SplineFontDB: 3.2
FontName: GotoMono-BoldItalic
FullName: Goto Mono Bold Italic
FamilyName: Goto Mono
Weight: Bold
Copyright: Copyright 2015 Google LLC. All Rights Reserved.
Version: 2.6
ItalicAngle: -12
UnderlinePosition: -125
UnderlineWidth: 50
Ascent: 800
Descent: 200
InvalidEm: 0
sfntRevision: 0x00020189
LayerCount: 2
Layer: 0 0 "Back" 1
Layer: 1 0 "Fore" 0
XUID: [1021 328 1927437058 7213121]
StyleMap: 0x0021
FSType: 0
OS2Version: 3
OS2_WeightWidthSlopeOnly: 0
OS2_UseTypoMetrics: 0
CreationTime: 1604030168
ModificationTime: 1609931632
PfmFamily: 49
TTFWeight: 700
TTFWidth: 5
LineGap: 0
VLineGap: 0
Panose: 2 11 8 9 4 5 4 2 2 4
OS2TypoAscent: 1069
OS2TypoAOffset: 0
OS2TypoDescent: -293
OS2TypoDOffset: 0
OS2TypoLinegap: 0
OS2WinAscent: 1069
OS2WinAOffset: 0
OS2WinDescent: 293
OS2WinDOffset: 0
HheadAscent: 1069
HheadAOffset: 0
HheadDescent: -293
HheadDOffset: 0
OS2SubXSize: 650
OS2SubYSize: 600
OS2SubXOff: 0
OS2SubYOff: 75
OS2SupXSize: 650
OS2SupYSize: 600
OS2SupXOff: 0
OS2SupYOff: 350
OS2StrikeYSize: 50
OS2StrikeYPos: 328
OS2CapHeight: 714
OS2XHeight: 546
OS2Vendor: 'GOOG'
OS2CodePages: 0000019f.dfd70000
OS2UnicodeRanges: e00002ff.0200fcff.08000039.00100000
Lookup: 1 0 0 "'aalt' Access All Alternates lookup 0" { "'aalt' Access All Alternates lookup 0 subtable"  } ['aalt' ('DFLT' <'dflt' > 'cyrl' <'MKD ' 'SRB ' 'dflt' > 'grek' <'dflt' > 'latn' <'APPH' 'CAT ' 'IPPH' 'MAH ' 'MOL ' 'NAV ' 'ROM ' 'dflt' > ) ]
Lookup: 3 0 0 "'aalt' Access All Alternates lookup 1" { "'aalt' Access All Alternates lookup 1 subtable"  } ['aalt' ('DFLT' <'dflt' > 'cyrl' <'MKD ' 'SRB ' 'dflt' > 'grek' <'dflt' > 'latn' <'APPH' 'CAT ' 'IPPH' 'MAH ' 'MOL ' 'NAV ' 'ROM ' 'dflt' > ) ]
Lookup: 4 0 0 "'ccmp' Glyph Composition/Decomposition lookup 2" { "'ccmp' Glyph Composition/Decomposition lookup 2 subtable"  } ['ccmp' ('DFLT' <'dflt' > 'cyrl' <'MKD ' 'SRB ' 'dflt' > 'grek' <'dflt' > 'latn' <'APPH' 'CAT ' 'IPPH' 'MAH ' 'MOL ' 'NAV ' 'ROM ' 'dflt' > ) ]

StartChar: .notdef
Encoding: 1114112 -1 0
Width: 563
Flags: HW
LayerCount: 2
Fore
SplineSet
76 0 m 1
 228 714 l 1
 639 714 l 1
 487 0 l 1
 76 0 l 1
138 51 m 1
 447 51 l 1
 577 663 l 1
 268 663 l 1
 138 51 l 1
EndSplineSet
Validated: 1
EndChar

StartChar: exclam
Encoding: 33 33 4
Width: 563
Flags: HW
LayerCount: 2
Fore
SplineSet
273 233 m 1
 354 714 l 1
 514 714 l 1
 391 233 l 1
 273 233 l 1
280 -10 m 0
 226 -10 202 20 213 74 c 0
 225 130 261 159 316 159 c 0
 369 159 393 129 381 74 c 0
 370 21 332 -10 280 -10 c 0
EndSplineSet
Validated: 33
Substitution2: "'smcp' Lowercase to Small Capitals lookup 35 subtable" exclam.sc
Substitution2: "'c2sc' Capitals to Small Capitals lookup 34 subtable" exclam.sc
Substitution2: "'aalt' Access All Alternates lookup 0 subtable" exclam.sc
EndChar

StartChar: quotedbl
Encoding: 34 34 5
Width: 563
Flags: HW
LayerCount: 2
Fore
SplineSet
429 456 m 1
 465 714 l 1
 603 714 l 1
 529 456 l 1
 429 456 l 1
228 456 m 1
 264 714 l 1
 402 714 l 1
 328 456 l 1
 228 456 l 1
EndSplineSet
Validated: 1
EndChar

StartChar: numbersign
Encoding: 35 35 6
Width: 563
Flags: HW
LayerCount: 2
Fore
SplineSet
89 0 m 1
 162 201 l 1
 58 201 l 1
 78 297 l 1
 196 297 l 1
 241 421 l 1
 131 421 l 1
 152 518 l 1
 276 518 l 1
 349 714 l 1
 446 714 l 1
 373 518 l 1
 458 518 l 1
 530 714 l 1
 626 714 l 1
 554 518 l 1
 658 518 l 1
 637 421 l 1
 518 421 l 1
 473 297 l 1
 584 297 l 1
 564 201 l 1
 440 201 l 1
 366 0 l 1
 268 0 l 1
 342 201 l 1
 258 201 l 1
 185 0 l 1
 89 0 l 1
293 297 m 1
 377 297 l 1
 422 421 l 1
 338 421 l 1
 293 297 l 1
EndSplineSet
Validated: 1
EndChar

StartChar: dollar
Encoding: 36 36 7
Width: 563
Flags: HW
LayerCount: 2
Fore
SplineSet
262 38 m 1
 195 40 136 54 93 77 c 1
 119 196 l 1
 159 168 225 143 284 140 c 1
 321 316 l 1
 203 365 160 416 180 508 c 0
 203 615 290 676 400 688 c 1
 415 759 l 1
 478 759 l 1
 463 689 l 1
 520 686 575 672 620 647 c 1
 564 545 l 1
 527 565 482 577 440 581 c 1
 405 413 l 1
 507 371 565 327 544 227 c 0
 523 130 447 58 326 40 c 1
 305 -58 l 1
 242 -58 l 1
 262 38 l 1
377 580 m 1
 333 574 306 550 298 511 c 0
 291 477 306 458 347 439 c 1
 377 580 l 1
348 147 m 1
 393 156 419 180 427 218 c 0
 434 253 418 272 379 291 c 1
 348 147 l 1
EndSplineSet
Validated: 33
EndChar

StartChar: percent
Encoding: 37 37 8
Width: 563
Flags: HW
LayerCount: 2
Fore
SplineSet
221 383 m 0
 135 383 94 444 117 550 c 0
 140 660 207 722 293 722 c 0
 384 722 423 661 399 550 c 0
 376 444 312 383 221 383 c 0
56 62 m 1
 549 652 l 1
 652 652 l 1
 160 62 l 1
 56 62 l 1
241 464 m 0
 271 464 293 494 305 550 c 0
 318 611 308 641 278 641 c 0
 244 641 224 613 211 550 c 0
 199 492 207 464 241 464 c 0
419 -9 m 0
 333 -9 292 52 315 158 c 0
 338 268 405 330 491 330 c 0
 582 330 621 269 597 158 c 0
 574 52 510 -9 419 -9 c 0
438 72 m 0
 468 72 491 102 503 158 c 0
 516 219 506 249 476 249 c 0
 442 249 422 221 409 158 c 0
 397 100 404 72 438 72 c 0
EndSplineSet
Validated: 33
EndChar

StartChar: ampersand
Encoding: 38 38 9
Width: 563
Flags: HW
LayerCount: 2
Fore
SplineSet
205 -10 m 0
 83 -10 41 68 64 175 c 0
 83 264 140 327 225 390 c 1
 207 431 187 485 202 557 c 0
 224 660 297 723 395 723 c 0
 499 723 540 661 520 567 c 0
 504 493 447 433 369 372 c 1
 428 248 l 1
 455 292 476 338 490 375 c 1
 607 375 l 1
 580 294 536 209 479 140 c 1
 545 0 l 1
 398 0 l 1
 378 45 l 1
 327 11 269 -10 205 -10 c 0
319 565 m 0
 310 524 319 488 328 461 c 1
 366 490 399 524 409 569 c 0
 417 608 404 628 378 628 c 0
 350 628 328 607 319 565 c 0
191 186 m 0
 181 141 198 104 245 104 c 0
 277 104 308 118 336 140 c 1
 267 296 l 1
 227 264 201 232 191 186 c 0
EndSplineSet
Validated: 33
Substitution2: "'smcp' Lowercase to Small Capitals lookup 35 subtable" ampersand.sc
Substitution2: "'c2sc' Capitals to Small Capitals lookup 34 subtable" ampersand.sc
Substitution2: "'aalt' Access All Alternates lookup 0 subtable" ampersand.sc
EndChar

StartChar: quotesingle
Encoding: 39 39 10
Width: 563
Flags: HW
LayerCount: 2
Fore
SplineSet
328 456 m 1
 364 714 l 1
 502 714 l 1
 428 456 l 1
 328 456 l 1
EndSplineSet
Validated: 1
EndChar

StartChar: parenleft
Encoding: 40 40 11
Width: 563
Flags: HW
LayerCount: 2
Fore
SplineSet
286 -167 m 1
 220 -52 201 97 238 270 c 0
 275 444 360 598 473 714 c 1
 589 714 l 1
 474 586 397 435 362 271 c 0
 328 110 343 -38 401 -167 c 1
 286 -167 l 1
EndSplineSet
Validated: 33
Substitution2: "'smcp' Lowercase to Small Capitals lookup 35 subtable" parenleft.sc
Substitution2: "'c2sc' Capitals to Small Capitals lookup 34 subtable" parenleft.sc
Substitution2: "'sups' Superscript lookup 23 subtable" uni207D
Substitution2: "'subs' Subscript lookup 22 subtable" uni208D
AlternateSubs2: "'aalt' Access All Alternates lookup 1 subtable" uni208D uni207D parenleft.sc
EndChar

StartChar: parenright
Encoding: 41 41 12
Width: 563
Flags: HW
LayerCount: 2
Fore
SplineSet
398 714 m 1
 463 598 482 450 445 277 c 0
 408 102 324 -51 211 -167 c 1
 95 -167 l 1
 210 -39 287 112 322 276 c 0
 356 436 341 585 283 714 c 1
 398 714 l 1
EndSplineSet
Validated: 33
Substitution2: "'smcp' Lowercase to Small Capitals lookup 35 subtable" parenright.sc
Substitution2: "'c2sc' Capitals to Small Capitals lookup 34 subtable" parenright.sc
Substitution2: "'sups' Superscript lookup 23 subtable" uni207E
Substitution2: "'subs' Subscript lookup 22 subtable" uni208E
AlternateSubs2: "'aalt' Access All Alternates lookup 1 subtable" uni208E uni207E parenright.sc
EndChar

StartChar: asterisk
Encoding: 42 42 13
Width: 563
Flags: HW
LayerCount: 2
Fore
SplineSet
426 339 m 1
 382 477 l 1
 281 339 l 1
 199 399 l 1
 321 521 l 1
 182 538 l 1
 229 645 l 1
 366 602 l 1
 385 758 l 1
 502 758 l 1
 453 602 l 1
 609 646 l 1
 610 537 l 1
 464 521 l 1
 535 400 l 1
 426 339 l 1
EndSplineSet
Validated: 1
EndChar

StartChar: plus
Encoding: 43 43 14
Width: 563
Flags: HW
LayerCount: 2
Fore
SplineSet
255 116 m 1
 294 301 l 1
 127 301 l 1
 149 405 l 1
 316 405 l 1
 356 592 l 1
 461 592 l 1
 421 405 l 1
 587 405 l 1
 565 301 l 1
 399 301 l 1
 360 116 l 1
 255 116 l 1
EndSplineSet
Validated: 1
Substitution2: "'sups' Superscript lookup 23 subtable" uni207A
Substitution2: "'subs' Subscript lookup 22 subtable" uni208A
AlternateSubs2: "'aalt' Access All Alternates lookup 1 subtable" uni208A uni207A
EndChar

StartChar: comma
Encoding: 44 44 15
Width: 563
Flags: HW
LayerCount: 2
Fore
SplineSet
152 -148 m 1
 190 -65 235 59 261 134 c 1
 392 134 l 1
 397 123 l 1
 363 45 312 -65 256 -148 c 1
 152 -148 l 1
EndSplineSet
Validated: 1
EndChar

StartChar: hyphen
Encoding: 45 45 16
Width: 563
Flags: HW
LayerCount: 2
Fore
SplineSet
185 205 m 1
 211 330 l 1
 493 330 l 1
 467 205 l 1
 185 205 l 1
EndSplineSet
Validated: 1
EndChar

StartChar: period
Encoding: 46 46 17
Width: 563
Flags: HW
LayerCount: 2
Fore
SplineSet
280 -10 m 0
 226 -10 202 20 213 74 c 0
 225 130 261 159 316 159 c 0
 369 159 393 129 381 74 c 0
 370 21 332 -10 280 -10 c 0
EndSplineSet
Validated: 33
EndChar

StartChar: slash
Encoding: 47 47 18
Width: 563
Flags: HW
LayerCount: 2
Fore
SplineSet
84 -5 m 1
 512 719 l 1
 631 719 l 1
 204 -5 l 1
 84 -5 l 1
EndSplineSet
Validated: 1
Substitution2: "'frac' Diagonal Fractions lookup 26 subtable" fraction
Substitution2: "'aalt' Access All Alternates lookup 0 subtable" fraction
EndChar

StartChar: zero
Encoding: 48 48 19
Width: 563
Flags: HW
LayerCount: 2
Fore
SplineSet
285 -10 m 0
 129 -10 81 111 134 360 c 0
 185 602 283 724 438 724 c 0
 595 724 641 596 590 354 c 0
 544 139 456 -10 285 -10 c 0
266 354 m 0
 262 333 259 314 256 296 c 1
 469 563 l 1
 461 591 443 606 414 606 c 0
 344 606 301 520 266 354 c 0
307 105 m 0
 378 105 418 186 453 353 c 0
 458 378 462 402 466 425 c 1
 249 155 l 1
 257 122 275 105 307 105 c 0
EndSplineSet
Validated: 33
Substitution2: "'zero' Slashed Zero lookup 37 subtable" zero.slash
Substitution2: "'onum' Oldstyle Figures lookup 33 subtable" zero.osf
Substitution2: "'frac' Diagonal Fractions lookup 27 subtable" zero.numr
Substitution2: "'dnom' Denominators lookup 25 subtable" zero.dnom
Substitution2: "'numr' Numerators lookup 24 subtable" zero.numr
Substitution2: "'sups' Superscript lookup 23 subtable" uni2070
Substitution2: "'subs' Subscript lookup 22 subtable" uni2080
AlternateSubs2: "'aalt' Access All Alternates lookup 1 subtable" uni2070 zero.osf zero.dnom zero.numr uni2080
EndChar

StartChar: one
Encoding: 49 49 20
Width: 563
Flags: HW
LayerCount: 2
Fore
SplineSet
99 0 m 1
 120 100 l 1
 259 113 l 1
 323 416 l 2
 336 476 347 520 361 567 c 1
 337 551 313 540 292 530 c 2
 212 491 l 1
 175 602 l 1
 405 714 l 1
 526 714 l 1
 398 114 l 1
 527 100 l 1
 506 0 l 1
 99 0 l 1
EndSplineSet
Validated: 1
Substitution2: "'onum' Oldstyle Figures lookup 33 subtable" one.osf
Substitution2: "'frac' Diagonal Fractions lookup 27 subtable" one.numr
Substitution2: "'dnom' Denominators lookup 25 subtable" one.dnom
Substitution2: "'numr' Numerators lookup 24 subtable" one.numr
Substitution2: "'sups' Superscript lookup 23 subtable" uni00B9
Substitution2: "'subs' Subscript lookup 22 subtable" uni2081
AlternateSubs2: "'aalt' Access All Alternates lookup 1 subtable" uni00B9 one.osf one.dnom one.numr uni2081
EndChar

StartChar: two
Encoding: 50 50 21
Width: 563
Flags: HW
LayerCount: 2
Fore
SplineSet
59 0 m 1
 80 100 l 1
 280 281 l 2
 385 379 450 439 465 511 c 0
 478 570 453 604 399 604 c 0
 352 604 307 582 246 534 c 1
 191 626 l 1
 275 693 341 724 437 724 c 0
 571 724 636 645 611 526 c 0
 587 412 496 328 375 227 c 2
 259 127 l 1
 257 119 l 1
 540 119 l 1
 515 0 l 1
 59 0 l 1
EndSplineSet
Validated: 33
Substitution2: "'onum' Oldstyle Figures lookup 33 subtable" two.osf
Substitution2: "'frac' Diagonal Fractions lookup 27 subtable" two.numr
Substitution2: "'dnom' Denominators lookup 25 subtable" two.dnom
Substitution2: "'numr' Numerators lookup 24 subtable" two.numr
Substitution2: "'sups' Superscript lookup 23 subtable" uni00B2
Substitution2: "'subs' Subscript lookup 22 subtable" uni2082
AlternateSubs2: "'aalt' Access All Alternates lookup 1 subtable" uni00B2 two.osf two.dnom two.numr uni2082
EndChar

StartChar: three
Encoding: 51 51 22
Width: 563
Flags: HW
LayerCount: 2
Fore
SplineSet
251 -10 m 0
 188 -10 126 3 74 27 c 1
 100 152 l 1
 149 124 212 107 265 107 c 0
 346 107 392 145 406 211 c 0
 421 282 384 311 277 311 c 2
 230 311 l 1
 254 423 l 1
 302 423 l 2
 397 423 449 460 463 524 c 0
 473 572 456 606 395 606 c 0
 354 606 307 590 245 556 c 1
 206 655 l 1
 276 699 354 724 432 724 c 0
 548 724 627 669 602 552 c 0
 584 465 521 400 433 376 c 1
 432 373 l 1
 531 356 566 298 546 204 c 0
 516 61 398 -10 251 -10 c 0
EndSplineSet
Validated: 33
Substitution2: "'onum' Oldstyle Figures lookup 33 subtable" three.osf
Substitution2: "'frac' Diagonal Fractions lookup 27 subtable" three.numr
Substitution2: "'dnom' Denominators lookup 25 subtable" three.dnom
Substitution2: "'numr' Numerators lookup 24 subtable" three.numr
Substitution2: "'sups' Superscript lookup 23 subtable" uni00B3
Substitution2: "'subs' Subscript lookup 22 subtable" uni2083
AlternateSubs2: "'aalt' Access All Alternates lookup 1 subtable" uni00B3 three.osf three.dnom three.numr uni2083
EndChar

StartChar: four
Encoding: 52 52 23
Width: 563
Flags: HW
LayerCount: 2
Fore
SplineSet
309 0 m 1
 340 148 l 1
 67 148 l 1
 89 251 l 1
 462 715 l 1
 594 715 l 1
 497 260 l 1
 582 260 l 1
 558 148 l 1
 473 148 l 1
 442 0 l 1
 309 0 l 1
213 260 m 1
 364 260 l 1
 395 404 l 2
 402 437 423 518 430 540 c 1
 426 540 l 1
 408 513 390 488 369 462 c 2
 213 260 l 1
EndSplineSet
Validated: 1
Substitution2: "'onum' Oldstyle Figures lookup 33 subtable" four.osf
Substitution2: "'frac' Diagonal Fractions lookup 27 subtable" four.numr
Substitution2: "'dnom' Denominators lookup 25 subtable" four.dnom
Substitution2: "'numr' Numerators lookup 24 subtable" four.numr
Substitution2: "'sups' Superscript lookup 23 subtable" uni2074
Substitution2: "'subs' Subscript lookup 22 subtable" uni2084
AlternateSubs2: "'aalt' Access All Alternates lookup 1 subtable" uni2074 four.osf four.dnom four.numr uni2084
EndChar

StartChar: five
Encoding: 53 53 24
Width: 563
Flags: HW
LayerCount: 2
Fore
SplineSet
236 -10 m 0
 177 -10 120 2 79 27 c 1
 105 152 l 1
 151 125 208 110 260 110 c 0
 335 110 382 151 398 225 c 0
 415 307 373 341 308 341 c 0
 274 341 236 335 207 324 c 1
 159 355 l 1
 261 714 l 1
 607 714 l 1
 581 594 l 1
 357 594 l 1
 315 446 l 1
 346 452 372 454 391 454 c 0
 507 454 572 371 543 233 c 0
 509 75 389 -10 236 -10 c 0
EndSplineSet
Validated: 33
Substitution2: "'onum' Oldstyle Figures lookup 33 subtable" five.osf
Substitution2: "'frac' Diagonal Fractions lookup 27 subtable" five.numr
Substitution2: "'dnom' Denominators lookup 25 subtable" five.dnom
Substitution2: "'numr' Numerators lookup 24 subtable" five.numr
Substitution2: "'sups' Superscript lookup 23 subtable" uni2075
Substitution2: "'subs' Subscript lookup 22 subtable" uni2085
AlternateSubs2: "'aalt' Access All Alternates lookup 1 subtable" uni2075 five.osf five.dnom five.numr uni2085
EndChar

StartChar: six
Encoding: 54 54 25
Width: 563
Flags: HW
LayerCount: 2
Fore
SplineSet
289 -11 m 0
 145 -11 79 105 124 318 c 0
 178 570 305 723 533 723 c 0
 562 723 593 720 617 715 c 1
 592 598 l 1
 565 605 538 609 508 609 c 0
 385 609 310 534 269 382 c 1
 274 382 l 1
 313 436 365 464 429 464 c 0
 546 464 588 374 559 237 c 0
 527 87 428 -11 289 -11 c 0
311 110 m 0
 363 110 403 151 421 235 c 0
 437 309 419 351 365 351 c 0
 313 351 263 306 249 238 c 0
 234 168 253 110 311 110 c 0
EndSplineSet
Validated: 33
Substitution2: "'onum' Oldstyle Figures lookup 33 subtable" six.osf
Substitution2: "'frac' Diagonal Fractions lookup 27 subtable" six.numr
Substitution2: "'dnom' Denominators lookup 25 subtable" six.dnom
Substitution2: "'numr' Numerators lookup 24 subtable" six.numr
Substitution2: "'sups' Superscript lookup 23 subtable" uni2076
Substitution2: "'subs' Subscript lookup 22 subtable" uni2086
AlternateSubs2: "'aalt' Access All Alternates lookup 1 subtable" uni2076 six.osf six.dnom six.numr uni2086
EndChar

StartChar: seven
Encoding: 55 55 26
Width: 563
Flags: HW
LayerCount: 2
Fore
SplineSet
121 0 m 1
 493 594 l 1
 181 594 l 1
 207 713 l 1
 668 713 l 1
 648 621 l 1
 269 0 l 1
 121 0 l 1
EndSplineSet
Validated: 1
Substitution2: "'onum' Oldstyle Figures lookup 33 subtable" seven.osf
Substitution2: "'frac' Diagonal Fractions lookup 27 subtable" seven.numr
Substitution2: "'dnom' Denominators lookup 25 subtable" seven.dnom
Substitution2: "'numr' Numerators lookup 24 subtable" seven.numr
Substitution2: "'sups' Superscript lookup 23 subtable" uni2077
Substitution2: "'subs' Subscript lookup 22 subtable" uni2087
AlternateSubs2: "'aalt' Access All Alternates lookup 1 subtable" uni2077 seven.osf seven.dnom seven.numr uni2087
EndChar

StartChar: eight
Encoding: 56 56 27
Width: 563
Flags: HW
LayerCount: 2
Fore
SplineSet
283 -10 m 0
 148 -10 70 54 97 181 c 0
 114 263 165 325 260 373 c 1
 199 424 182 482 197 553 c 0
 220 663 323 723 439 723 c 0
 557 723 631 664 607 552 c 0
 591 477 546 421 457 376 c 1
 538 320 565 261 549 185 c 0
 523 61 411 -10 283 -10 c 0
378 439 m 1
 438 470 463 500 472 541 c 0
 481 584 457 611 414 611 c 0
 372 611 337 584 328 541 c 0
 318 495 339 466 378 439 c 1
305 102 m 0
 368 102 407 136 418 187 c 0
 428 234 404 268 344 311 c 1
 278 277 243 238 232 188 c 0
 221 135 248 102 305 102 c 0
EndSplineSet
Validated: 33
Substitution2: "'onum' Oldstyle Figures lookup 33 subtable" eight.osf
Substitution2: "'frac' Diagonal Fractions lookup 27 subtable" eight.numr
Substitution2: "'dnom' Denominators lookup 25 subtable" eight.dnom
Substitution2: "'numr' Numerators lookup 24 subtable" eight.numr
Substitution2: "'sups' Superscript lookup 23 subtable" uni2078
Substitution2: "'subs' Subscript lookup 22 subtable" uni2088
AlternateSubs2: "'aalt' Access All Alternates lookup 1 subtable" uni2078 eight.osf eight.dnom eight.numr uni2088
EndChar

StartChar: nine
Encoding: 57 57 28
Width: 563
Flags: HW
LayerCount: 2
Fore
SplineSet
185 -10 m 0
 156 -10 124 -7 101 -2 c 1
 125 115 l 1
 150 107 178 104 209 104 c 0
 342 104 411 191 449 331 c 1
 444 331 l 1
 405 278 354 250 290 250 c 0
 173 250 130 339 159 476 c 0
 191 627 292 725 432 725 c 0
 575 725 640 609 596 402 c 0
 541 141 412 -10 185 -10 c 0
354 363 m 0
 409 363 457 411 470 474 c 0
 483 537 469 604 408 604 c 0
 355 604 317 562 299 478 c 0
 283 404 300 363 354 363 c 0
EndSplineSet
Validated: 33
Substitution2: "'onum' Oldstyle Figures lookup 33 subtable" nine.osf
Substitution2: "'frac' Diagonal Fractions lookup 27 subtable" nine.numr
Substitution2: "'dnom' Denominators lookup 25 subtable" nine.dnom
Substitution2: "'numr' Numerators lookup 24 subtable" nine.numr
Substitution2: "'sups' Superscript lookup 23 subtable" uni2079
Substitution2: "'subs' Subscript lookup 22 subtable" uni2089
AlternateSubs2: "'aalt' Access All Alternates lookup 1 subtable" uni2079 nine.osf nine.dnom nine.numr uni2089
EndChar

StartChar: colon
Encoding: 58 58 29
Width: 563
Flags: HW
LayerCount: 2
Fore
SplineSet
364 384 m 0
 310 384 286 415 297 469 c 0
 309 525 345 554 400 554 c 0
 453 554 476 523 465 469 c 0
 454 416 416 384 364 384 c 0
280 -10 m 0
 226 -10 202 20 213 74 c 0
 225 130 261 159 316 159 c 0
 369 159 393 129 381 74 c 0
 370 21 332 -10 280 -10 c 0
EndSplineSet
Validated: 33
EndChar

StartChar: semicolon
Encoding: 59 59 30
Width: 563
Flags: HW
LayerCount: 2
Fore
SplineSet
381 384 m 0
 328 384 304 415 315 469 c 0
 327 525 362 554 417 554 c 0
 471 554 494 523 483 469 c 0
 472 416 433 384 381 384 c 0
152 -148 m 1
 190 -64 234 58 261 134 c 1
 392 134 l 1
 397 123 l 1
 363 45 311 -65 256 -148 c 1
 152 -148 l 1
EndSplineSet
Validated: 33
EndChar

StartChar: less
Encoding: 60 60 31
Width: 563
Flags: HW
LayerCount: 2
Fore
SplineSet
513 114 m 1
 136 321 l 1
 151 390 l 1
 618 605 l 1
 593 489 l 1
 292 357 l 1
 538 229 l 1
 513 114 l 1
EndSplineSet
Validated: 1
EndChar

StartChar: equal
Encoding: 61 61 32
Width: 563
Flags: HW
LayerCount: 2
Fore
SplineSet
146 389 m 1
 171 509 l 1
 609 509 l 1
 584 389 l 1
 146 389 l 1
100 176 m 1
 126 296 l 1
 564 296 l 1
 538 176 l 1
 100 176 l 1
EndSplineSet
Validated: 1
Substitution2: "'sups' Superscript lookup 23 subtable" uni207C
Substitution2: "'subs' Subscript lookup 22 subtable" uni208C
AlternateSubs2: "'aalt' Access All Alternates lookup 1 subtable" uni208C uni207C
EndChar

StartChar: greater
Encoding: 62 62 33
Width: 563
Flags: HW
LayerCount: 2
Fore
SplineSet
95 114 m 1
 120 229 l 1
 420 357 l 1
 175 489 l 1
 200 605 l 1
 575 390 l 1
 560 321 l 1
 95 114 l 1
EndSplineSet
Validated: 1
EndChar

StartChar: question
Encoding: 63 63 34
Width: 563
Flags: HW
LayerCount: 2
Fore
SplineSet
253 269 m 2
 268 338 300 377 368 424 c 0
 425 464 455 493 465 540 c 0
 475 585 450 608 401 608 c 0
 358 608 311 592 248 562 c 1
 221 664 l 1
 298 704 366 724 437 724 c 0
 555 724 624 662 600 549 c 0
 582 463 540 423 457 364 c 0
 400 323 380 305 370 260 c 2
 365 233 l 1
 246 233 l 1
 253 269 l 2
255 -10 m 0
 202 -10 177 20 188 74 c 0
 200 130 236 159 291 159 c 0
 344 159 369 129 357 74 c 0
 346 21 307 -10 255 -10 c 0
EndSplineSet
Validated: 33
Substitution2: "'smcp' Lowercase to Small Capitals lookup 35 subtable" question.sc
Substitution2: "'c2sc' Capitals to Small Capitals lookup 34 subtable" question.sc
Substitution2: "'aalt' Access All Alternates lookup 0 subtable" question.sc
EndChar

StartChar: at
Encoding: 64 64 35
Width: 563
Flags: HW
LayerCount: 2
Fore
SplineSet
276 -89 m 0
 89 -89 11 52 60 282 c 0
 113 529 265 714 459 714 c 0
 615 714 686 575 641 365 c 0
 611 222 538 108 452 108 c 0
 409 108 391 133 385 165 c 1
 383 165 l 1
 359 135 326 108 283 108 c 0
 208 108 183 183 208 299 c 0
 236 429 316 520 416 520 c 0
 458 520 496 506 527 493 c 1
 474 296 l 2
 471 286 469 277 466 265 c 0
 455 211 459 193 474 193 c 0
 497 193 526 266 547 363 c 0
 585 540 542 636 442 636 c 0
 310 636 198 493 155 289 c 0
 115 99 161 -10 291 -10 c 0
 346 -10 407 6 464 31 c 1
 447 -49 l 1
 394 -75 339 -89 276 -89 c 0
314 193 m 0
 345 193 366 242 389 326 c 2
 416 429 l 1
 411 432 402 435 394 435 c 0
 348 435 315 372 299 297 c 0
 284 226 289 193 314 193 c 0
EndSplineSet
Validated: 33
EndChar

StartChar: A
Encoding: 65 65 36
Width: 563
GlyphClass: 2
Flags: HW
AnchorPoint: "Anchor-2" 695 714 basechar 0
AnchorPoint: "Anchor-1" 434 714 basechar 0
AnchorPoint: "Anchor-0" 282 0 basechar 0
LayerCount: 2
Fore
SplineSet
10 0 m 1
 341 717 l 1
 525 717 l 1
 553 0 l 1
 414 0 l 1
 412 176 l 1
 224 176 l 1
 148 0 l 1
 10 0 l 1
355 473 m 2
 277 295 l 1
 412 295 l 1
 410 472 l 2
 409 515 410 563 411 606 c 1
 394 563 373 513 355 473 c 2
EndSplineSet
Validated: 1048609
Substitution2: "'c2sc' Capitals to Small Capitals lookup 34 subtable" a.sc
Substitution2: "Single Substitution lookup 32 subtable" ordfeminine
AlternateSubs2: "'aalt' Access All Alternates lookup 1 subtable" ordfeminine a.sc
EndChar

StartChar: B
Encoding: 66 66 37
Width: 563
GlyphClass: 2
Flags: HW
AnchorPoint: "Anchor-2" 695 714 basechar 0
AnchorPoint: "Anchor-1" 434 714 basechar 0
AnchorPoint: "Anchor-0" 282 0 basechar 0
LayerCount: 2
Fore
SplineSet
71 0 m 1
 223 714 l 1
 431 714 l 2
 583 714 652 660 626 538 c 0
 608 452 557 394 490 379 c 1
 488 374 l 1
 558 357 591 305 570 208 c 0
 542 77 443 0 305 0 c 2
 71 0 l 1
370 431 m 2
 435 431 468 459 480 515 c 0
 492 571 468 598 401 598 c 2
 329 598 l 1
 294 431 l 1
 370 431 l 2
314 119 m 2
 380 119 415 155 428 216 c 0
 441 278 420 309 350 309 c 2
 268 309 l 1
 227 119 l 1
 314 119 l 2
EndSplineSet
Validated: 1048609
Substitution2: "'c2sc' Capitals to Small Capitals lookup 34 subtable" b.sc
Substitution2: "'aalt' Access All Alternates lookup 0 subtable" b.sc
EndChar

StartChar: C
Encoding: 67 67 38
Width: 563
GlyphClass: 2
Flags: HW
AnchorPoint: "Anchor-2" 695 714 basechar 0
AnchorPoint: "Anchor-1" 489 714 basechar 0
AnchorPoint: "Anchor-0" 322 0 basechar 0
LayerCount: 2
Fore
SplineSet
334 -12 m 0
 139 -12 72 126 119 347 c 0
 167 575 311 725 515 725 c 0
 580 725 629 710 676 682 c 1
 607 567 l 1
 567 590 530 600 490 600 c 0
 364 600 292 498 261 351 c 0
 227 190 267 113 383 113 c 0
 430 113 473 124 535 151 c 1
 508 24 l 1
 452 0 392 -12 334 -12 c 0
EndSplineSet
Validated: 1048609
Substitution2: "'c2sc' Capitals to Small Capitals lookup 34 subtable" c.sc
Substitution2: "'aalt' Access All Alternates lookup 0 subtable" c.sc
EndChar

StartChar: D
Encoding: 68 68 39
Width: 563
GlyphClass: 2
Flags: HW
AnchorPoint: "Anchor-3" 362 357 basechar 0
AnchorPoint: "Anchor-2" 715 714 basechar 0
AnchorPoint: "Anchor-1" 423 714 basechar 0
AnchorPoint: "Anchor-0" 238 0 basechar 0
LayerCount: 2
Fore
SplineSet
41 0 m 1
 193 714 l 1
 401 714 l 2
 580 714 663 594 615 366 c 0
 565 130 425 0 238 0 c 2
 41 0 l 1
256 122 m 2
 369 122 437 200 472 363 c 0
 506 523 469 592 366 592 c 2
 305 592 l 1
 205 122 l 1
 256 122 l 2
EndSplineSet
Validated: 33
Substitution2: "'c2sc' Capitals to Small Capitals lookup 34 subtable" d.sc
Substitution2: "'aalt' Access All Alternates lookup 0 subtable" d.sc
EndChar

StartChar: E
Encoding: 69 69 40
Width: 563
GlyphClass: 2
Flags: HW
AnchorPoint: "Anchor-2" 695 714 basechar 0
AnchorPoint: "Anchor-1" 439 714 basechar 0
AnchorPoint: "Anchor-0" 286 0 basechar 0
LayerCount: 2
Fore
SplineSet
71 0 m 1
 223 714 l 1
 653 714 l 1
 627 591 l 1
 332 591 l 1
 297 429 l 1
 576 429 l 1
 550 306 l 1
 271 306 l 1
 232 123 l 1
 527 123 l 1
 501 0 l 1
 71 0 l 1
EndSplineSet
Validated: 1048577
Substitution2: "'c2sc' Capitals to Small Capitals lookup 34 subtable" e.sc
Substitution2: "'aalt' Access All Alternates lookup 0 subtable" e.sc
EndChar

StartChar: F
Encoding: 70 70 41
Width: 563
GlyphClass: 2
Flags: HW
AnchorPoint: "Anchor-2" 695 714 basechar 0
AnchorPoint: "Anchor-1" 444 714 basechar 0
AnchorPoint: "Anchor-0" 292 0 basechar 0
LayerCount: 2
Fore
SplineSet
71 0 m 1
 223 714 l 1
 653 714 l 1
 627 591 l 1
 332 591 l 1
 291 400 l 1
 570 400 l 1
 544 277 l 1
 265 277 l 1
 206 0 l 1
 71 0 l 1
EndSplineSet
Validated: 1048577
Substitution2: "'c2sc' Capitals to Small Capitals lookup 34 subtable" f.sc
Substitution2: "'aalt' Access All Alternates lookup 0 subtable" f.sc
EndChar

StartChar: G
Encoding: 71 71 42
Width: 563
GlyphClass: 2
Flags: HW
AnchorPoint: "Anchor-2" 695 714 basechar 0
AnchorPoint: "Anchor-1" 462 714 basechar 0
AnchorPoint: "Anchor-0" 315 0 basechar 0
LayerCount: 2
Fore
SplineSet
324 -10 m 0
 116 -10 54 130 100 348 c 0
 151 586 289 724 486 724 c 0
 553 724 614 708 663 680 c 1
 594 565 l 1
 559 591 516 601 475 601 c 0
 352 601 275 511 241 353 c 0
 211 210 239 112 346 112 c 0
 373 112 399 117 423 122 c 1
 457 283 l 1
 363 283 l 1
 388 402 l 1
 607 402 l 1
 528 30 l 1
 455 1 396 -10 324 -10 c 0
EndSplineSet
Validated: 1048609
Substitution2: "'c2sc' Capitals to Small Capitals lookup 34 subtable" g.sc
Substitution2: "'aalt' Access All Alternates lookup 0 subtable" g.sc
EndChar

StartChar: H
Encoding: 72 72 43
Width: 563
GlyphClass: 2
Flags: HW
AnchorPoint: "Anchor-3" 361 372 basechar 0
AnchorPoint: "Anchor-2" 715 714 basechar 0
AnchorPoint: "Anchor-1" 434 714 basechar 0
AnchorPoint: "Anchor-0" 282 0 basechar 0
LayerCount: 2
Fore
SplineSet
41 0 m 1
 193 714 l 1
 332 714 l 1
 272 434 l 1
 475 434 l 1
 535 714 l 1
 674 714 l 1
 522 0 l 1
 383 0 l 1
 449 309 l 1
 246 309 l 1
 180 0 l 1
 41 0 l 1
EndSplineSet
Validated: 1
Substitution2: "'c2sc' Capitals to Small Capitals lookup 34 subtable" h.sc
Substitution2: "'aalt' Access All Alternates lookup 0 subtable" h.sc
EndChar

StartChar: I
Encoding: 73 73 44
Width: 563
GlyphClass: 2
Flags: HW
AnchorPoint: "Anchor-2" 695 714 basechar 0
AnchorPoint: "Anchor-1" 434 714 basechar 0
AnchorPoint: "Anchor-0" 282 0 basechar 0
LayerCount: 2
Fore
SplineSet
79 0 m 1
 100 100 l 1
 238 115 l 1
 342 600 l 1
 210 614 l 1
 231 714 l 1
 636 714 l 1
 615 614 l 1
 475 600 l 1
 371 115 l 1
 505 100 l 1
 484 0 l 1
 79 0 l 1
EndSplineSet
Validated: 1048577
Substitution2: "'c2sc' Capitals to Small Capitals lookup 34 subtable" i.sc
Substitution2: "'aalt' Access All Alternates lookup 0 subtable" i.sc
EndChar

StartChar: J
Encoding: 74 74 45
Width: 563
GlyphClass: 2
Flags: HW
AnchorPoint: "Anchor-2" 695 714 basechar 0
AnchorPoint: "Anchor-1" 543 714 basechar 0
AnchorPoint: "Anchor-0" 282 0 basechar 0
LayerCount: 2
Fore
SplineSet
214 -10 m 0
 169 -10 117 -4 72 11 c 1
 98 133 l 1
 150 117 196 112 229 112 c 0
 316 112 357 153 377 248 c 2
 476 714 l 1
 613 714 l 1
 512 240 l 2
 478 78 386 -10 214 -10 c 0
EndSplineSet
Validated: 1048577
Substitution2: "'c2sc' Capitals to Small Capitals lookup 34 subtable" j.sc
Substitution2: "'aalt' Access All Alternates lookup 0 subtable" j.sc
EndChar

StartChar: K
Encoding: 75 75 46
Width: 563
GlyphClass: 2
Flags: HW
AnchorPoint: "Anchor-2" 695 714 basechar 0
AnchorPoint: "Anchor-1" 434 714 basechar 0
AnchorPoint: "Anchor-0" 289 0 basechar 0
LayerCount: 2
Fore
SplineSet
41 0 m 1
 193 714 l 1
 330 714 l 1
 257 374 l 1
 283 412 306 441 337 477 c 2
 537 714 l 1
 691 714 l 1
 416 394 l 1
 536 0 l 1
 380 0 l 1
 295 291 l 1
 229 238 l 1
 178 0 l 1
 41 0 l 1
EndSplineSet
Validated: 1048577
Substitution2: "'c2sc' Capitals to Small Capitals lookup 34 subtable" k.sc
Substitution2: "'aalt' Access All Alternates lookup 0 subtable" k.sc
EndChar

StartChar: L
Encoding: 76 76 47
Width: 563
GlyphClass: 2
Flags: HW
AnchorPoint: "Anchor-3" 358 357 basechar 0
AnchorPoint: "Anchor-2" 575 714 basechar 0
AnchorPoint: "Anchor-1" 301 714 basechar 0
AnchorPoint: "Anchor-0" 308 0 basechar 0
LayerCount: 2
Fore
SplineSet
81 0 m 1
 233 714 l 1
 372 714 l 1
 246 124 l 1
 527 124 l 1
 501 0 l 1
 81 0 l 1
EndSplineSet
Validated: 1
Substitution2: "'c2sc' Capitals to Small Capitals lookup 34 subtable" l.sc
Substitution2: "'aalt' Access All Alternates lookup 0 subtable" l.sc
EndChar

StartChar: M
Encoding: 77 77 48
Width: 563
GlyphClass: 2
Flags: HW
AnchorPoint: "Anchor-2" 715 714 basechar 0
AnchorPoint: "Anchor-1" 435 714 basechar 0
AnchorPoint: "Anchor-0" 282 0 basechar 0
LayerCount: 2
Fore
SplineSet
33 0 m 1
 185 714 l 1
 380 714 l 1
 344 310 l 1
 349 310 l 1
 492 714 l 1
 682 714 l 1
 530 0 l 1
 404 0 l 1
 441 173 l 2
 469 304 541 552 551 590 c 1
 544 590 l 1
 387 172 l 1
 250 172 l 1
 265 590 l 1
 259 590 l 1
 253 547 223 306 193 165 c 2
 158 0 l 1
 33 0 l 1
EndSplineSet
Validated: 1048577
Substitution2: "'c2sc' Capitals to Small Capitals lookup 34 subtable" m.sc
Substitution2: "'aalt' Access All Alternates lookup 0 subtable" m.sc
EndChar

StartChar: N
Encoding: 78 78 49
Width: 563
GlyphClass: 2
Flags: HW
AnchorPoint: "Anchor-2" 715 714 basechar 0
AnchorPoint: "Anchor-1" 439 714 basechar 0
AnchorPoint: "Anchor-0" 282 0 basechar 0
LayerCount: 2
Fore
SplineSet
41 0 m 1
 193 714 l 1
 390 714 l 1
 430 137 l 1
 435 137 l 1
 447 221 464 332 475 382 c 2
 546 714 l 1
 674 714 l 1
 522 0 l 1
 327 0 l 1
 286 581 l 1
 281 581 l 1
 269 494 253 399 244 355 c 2
 169 0 l 1
 41 0 l 1
EndSplineSet
Validated: 1048577
Substitution2: "'c2sc' Capitals to Small Capitals lookup 34 subtable" n.sc
Substitution2: "'aalt' Access All Alternates lookup 0 subtable" n.sc
EndChar

StartChar: O
Encoding: 79 79 50
Width: 563
GlyphClass: 2
Flags: HW
AnchorPoint: "Anchor-3" 358 357 basechar 0
AnchorPoint: "Anchor-2" 715 714 basechar 0
AnchorPoint: "Anchor-1" 434 714 basechar 0
AnchorPoint: "Anchor-0" 282 0 basechar 0
LayerCount: 2
Fore
SplineSet
280 -9 m 0
 104 -9 54 131 102 358 c 0
 152 593 263 726 436 726 c 0
 611 726 662 587 613 358 c 0
 565 130 455 -9 280 -9 c 0
306 113 m 0
 385 113 436 196 471 359 c 0
 505 521 490 604 410 604 c 0
 330 604 278 518 244 358 c 0
 210 198 225 113 306 113 c 0
EndSplineSet
Validated: 33
Substitution2: "'c2sc' Capitals to Small Capitals lookup 34 subtable" o.sc
Substitution2: "Single Substitution lookup 32 subtable" ordmasculine
AlternateSubs2: "'aalt' Access All Alternates lookup 1 subtable" ordmasculine o.sc
EndChar

StartChar: P
Encoding: 80 80 51
Width: 563
GlyphClass: 2
Flags: HW
AnchorPoint: "Anchor-2" 715 714 basechar 0
AnchorPoint: "Anchor-1" 434 714 basechar 0
AnchorPoint: "Anchor-0" 282 0 basechar 0
LayerCount: 2
Fore
SplineSet
71 0 m 1
 223 714 l 1
 445 714 l 2
 602 714 661 635 631 492 c 0
 601 349 507 254 339 254 c 2
 260 254 l 1
 206 0 l 1
 71 0 l 1
350 376 m 2
 426 376 475 412 491 488 c 0
 506 560 479 593 411 593 c 2
 332 593 l 1
 286 376 l 1
 350 376 l 2
EndSplineSet
Validated: 1048609
Substitution2: "'c2sc' Capitals to Small Capitals lookup 34 subtable" p.sc
Substitution2: "'aalt' Access All Alternates lookup 0 subtable" p.sc
EndChar

StartChar: Q
Encoding: 81 81 52
Width: 563
GlyphClass: 2
Flags: HW
AnchorPoint: "Anchor-3" 358 357 basechar 0
AnchorPoint: "Anchor-2" 715 714 basechar 0
AnchorPoint: "Anchor-1" 434 714 basechar 0
AnchorPoint: "Anchor-0" 235 -220 basechar 0
LayerCount: 2
Fore
SplineSet
280 -9 m 0
 104 -9 54 131 102 358 c 0
 152 593 263 726 436 726 c 0
 611 726 662 587 613 358 c 0
 580 203 519 90 429 32 c 1
 487 -180 l 1
 337 -180 l 1
 299 -9 l 1
 292 -9 286 -9 280 -9 c 0
306 113 m 0
 385 113 436 196 471 359 c 0
 505 521 490 604 410 604 c 0
 330 604 278 518 244 358 c 0
 210 198 225 113 306 113 c 0
EndSplineSet
Validated: 33
Substitution2: "'c2sc' Capitals to Small Capitals lookup 34 subtable" q.sc
Substitution2: "'aalt' Access All Alternates lookup 0 subtable" q.sc
EndChar

StartChar: R
Encoding: 82 82 53
Width: 563
GlyphClass: 2
Flags: HW
AnchorPoint: "Anchor-2" 695 714 basechar 0
AnchorPoint: "Anchor-1" 434 714 basechar 0
AnchorPoint: "Anchor-0" 303 0 basechar 0
LayerCount: 2
Fore
SplineSet
71 0 m 1
 223 714 l 1
 410 714 l 2
 574 714 644 638 615 503 c 0
 595 408 539 342 456 304 c 1
 550 0 l 1
 401 0 l 1
 327 271 l 1
 268 271 l 1
 210 0 l 1
 71 0 l 1
338 392 m 2
 412 392 457 426 472 495 c 0
 487 565 454 594 380 594 c 2
 336 594 l 1
 293 392 l 1
 338 392 l 2
EndSplineSet
Validated: 1048609
Substitution2: "'c2sc' Capitals to Small Capitals lookup 34 subtable" r.sc
Substitution2: "'aalt' Access All Alternates lookup 0 subtable" r.sc
EndChar

StartChar: S
Encoding: 83 83 54
Width: 563
GlyphClass: 2
Flags: HW
AnchorPoint: "Anchor-2" 695 714 basechar 0
AnchorPoint: "Anchor-1" 446 714 basechar 0
AnchorPoint: "Anchor-0" 282 0 basechar 0
LayerCount: 2
Fore
SplineSet
253 -10 m 0
 186 -10 122 4 69 32 c 1
 97 165 l 1
 159 130 216 110 280 110 c 0
 350 110 398 134 410 192 c 0
 423 253 377 270 299 317 c 0
 223 363 158 414 183 530 c 0
 210 655 313 724 456 724 c 0
 513 724 582 713 644 679 c 1
 575 565 l 1
 521 593 475 604 435 604 c 0
 371 604 334 577 324 528 c 0
 311 469 350 453 427 409 c 0
 525 353 578 310 555 201 c 0
 526 66 411 -10 253 -10 c 0
EndSplineSet
Validated: 1048609
Substitution2: "'c2sc' Capitals to Small Capitals lookup 34 subtable" s.sc
Substitution2: "'aalt' Access All Alternates lookup 0 subtable" s.sc
EndChar

StartChar: T
Encoding: 84 84 55
Width: 563
GlyphClass: 2
Flags: HW
AnchorPoint: "Anchor-3" 358 357 basechar 0
AnchorPoint: "Anchor-2" 695 714 basechar 0
AnchorPoint: "Anchor-1" 434 714 basechar 0
AnchorPoint: "Anchor-0" 282 0 basechar 0
LayerCount: 2
Fore
SplineSet
212 0 m 1
 338 591 l 1
 154 591 l 1
 180 714 l 1
 687 714 l 1
 661 591 l 1
 477 591 l 1
 351 0 l 1
 212 0 l 1
EndSplineSet
Validated: 1
Substitution2: "'c2sc' Capitals to Small Capitals lookup 34 subtable" t.sc
Substitution2: "'aalt' Access All Alternates lookup 0 subtable" t.sc
EndChar

StartChar: U
Encoding: 85 85 56
Width: 563
GlyphClass: 2
Flags: HW
AnchorPoint: "Anchor-2" 695 714 basechar 0
AnchorPoint: "Anchor-1" 434 714 basechar 0
AnchorPoint: "Anchor-0" 282 0 basechar 0
LayerCount: 2
Fore
SplineSet
277 -10 m 0
 122 -10 57 77 90 231 c 2
 193 714 l 1
 332 714 l 1
 234 255 l 2
 212 152 237 112 305 112 c 0
 377 112 415 153 437 256 c 2
 535 714 l 1
 674 714 l 1
 571 229 l 2
 540 82 439 -10 277 -10 c 0
EndSplineSet
Validated: 1048609
Substitution2: "'c2sc' Capitals to Small Capitals lookup 34 subtable" u.sc
Substitution2: "'aalt' Access All Alternates lookup 0 subtable" u.sc
EndChar

StartChar: V
Encoding: 86 86 57
Width: 563
GlyphClass: 2
Flags: HW
AnchorPoint: "Anchor-2" 695 714 basechar 0
AnchorPoint: "Anchor-1" 434 714 basechar 0
AnchorPoint: "Anchor-0" 282 0 basechar 0
LayerCount: 2
Fore
SplineSet
204 0 m 1
 162 714 l 1
 305 714 l 1
 313 291 l 2
 314 254 313 173 309 130 c 1
 315 130 l 1
 330 174 361 252 377 291 c 2
 562 714 l 1
 705 714 l 1
 359 0 l 1
 204 0 l 1
EndSplineSet
Validated: 1048609
Substitution2: "'c2sc' Capitals to Small Capitals lookup 34 subtable" v.sc
Substitution2: "'aalt' Access All Alternates lookup 0 subtable" v.sc
EndChar

StartChar: W
Encoding: 87 87 58
Width: 563
GlyphClass: 2
Flags: HW
AnchorPoint: "Anchor-2" 695 714 basechar 0
AnchorPoint: "Anchor-1" 434 714 basechar 0
AnchorPoint: "Anchor-0" 282 0 basechar 0
LayerCount: 2
Fore
SplineSet
54 0 m 1
 162 714 l 1
 284 714 l 1
 253 472 230 359 216 294 c 0
 203 231 191 171 178 121 c 1
 185 121 l 1
 207 189 239 283 252 320 c 2
 334 546 l 1
 463 546 l 1
 447 319 l 2
 443 262 439 184 433 120 c 1
 440 120 l 1
 452 186 467 271 477 316 c 0
 494 396 519 487 581 714 c 1
 705 714 l 1
 511 0 l 1
 333 0 l 1
 353 245 l 2
 356 287 364 347 370 400 c 1
 364 400 l 1
 349 348 329 286 314 245 c 2
 230 0 l 1
 54 0 l 1
EndSplineSet
Validated: 1048577
Substitution2: "'c2sc' Capitals to Small Capitals lookup 34 subtable" w.sc
Substitution2: "'aalt' Access All Alternates lookup 0 subtable" w.sc
EndChar

StartChar: X
Encoding: 88 88 59
Width: 563
GlyphClass: 2
Flags: HW
AnchorPoint: "Anchor-2" 695 714 basechar 0
AnchorPoint: "Anchor-1" 434 714 basechar 0
AnchorPoint: "Anchor-0" 282 0 basechar 0
LayerCount: 2
Fore
SplineSet
16 0 m 1
 286 367 l 1
 181 714 l 1
 327 714 l 1
 384 479 l 1
 537 714 l 1
 685 714 l 1
 431 367 l 1
 547 0 l 1
 398 0 l 1
 334 255 l 1
 162 0 l 1
 16 0 l 1
EndSplineSet
Validated: 1048577
Substitution2: "'c2sc' Capitals to Small Capitals lookup 34 subtable" x.sc
Substitution2: "'aalt' Access All Alternates lookup 0 subtable" x.sc
EndChar

StartChar: Y
Encoding: 89 89 60
Width: 563
GlyphClass: 2
Flags: HW
AnchorPoint: "Anchor-2" 695 714 basechar 0
AnchorPoint: "Anchor-1" 434 714 basechar 0
AnchorPoint: "Anchor-0" 282 0 basechar 0
LayerCount: 2
Fore
SplineSet
213 0 m 1
 272 277 l 1
 168 714 l 1
 319 714 l 1
 371 412 l 1
 548 714 l 1
 699 714 l 1
 410 277 l 1
 351 0 l 1
 213 0 l 1
EndSplineSet
Validated: 1048577
Substitution2: "'c2sc' Capitals to Small Capitals lookup 34 subtable" y.sc
Substitution2: "'aalt' Access All Alternates lookup 0 subtable" y.sc
EndChar

StartChar: Z
Encoding: 90 90 61
Width: 563
GlyphClass: 2
Flags: HW
AnchorPoint: "Anchor-2" 695 714 basechar 0
AnchorPoint: "Anchor-1" 444 714 basechar 0
AnchorPoint: "Anchor-0" 296 0 basechar 0
LayerCount: 2
Fore
SplineSet
71 0 m 1
 92 98 l 1
 468 592 l 1
 216 592 l 1
 242 714 l 1
 649 714 l 1
 628 616 l 1
 251 123 l 1
 529 123 l 1
 503 0 l 1
 71 0 l 1
EndSplineSet
Validated: 1048577
Substitution2: "'c2sc' Capitals to Small Capitals lookup 34 subtable" z.sc
Substitution2: "'aalt' Access All Alternates lookup 0 subtable" z.sc
EndChar

StartChar: bracketleft
Encoding: 91 91 62
Width: 563
Flags: HW
LayerCount: 2
Fore
SplineSet
175 -163 m 1
 364 723 l 1
 599 723 l 1
 577 623 l 1
 463 623 l 1
 318 -62 l 1
 432 -62 l 1
 410 -163 l 1
 175 -163 l 1
EndSplineSet
Validated: 1
Substitution2: "'smcp' Lowercase to Small Capitals lookup 35 subtable" bracketleft.sc
Substitution2: "'c2sc' Capitals to Small Capitals lookup 34 subtable" bracketleft.sc
Substitution2: "'aalt' Access All Alternates lookup 0 subtable" bracketleft.sc
EndChar

StartChar: backslash
Encoding: 92 92 63
Width: 563
Flags: HW
LayerCount: 2
Fore
SplineSet
477 -5 m 1
 357 -5 l 1
 238 719 l 1
 357 719 l 1
 477 -5 l 1
EndSplineSet
Validated: 1
EndChar

StartChar: bracketright
Encoding: 93 93 64
Width: 563
Flags: HW
LayerCount: 2
Fore
SplineSet
508 725 m 1
 320 -161 l 1
 85 -161 l 1
 106 -61 l 1
 220 -61 l 1
 366 625 l 1
 252 625 l 1
 273 725 l 1
 508 725 l 1
EndSplineSet
Validated: 1
Substitution2: "'smcp' Lowercase to Small Capitals lookup 35 subtable" bracketright.sc
Substitution2: "'c2sc' Capitals to Small Capitals lookup 34 subtable" bracketright.sc
Substitution2: "'aalt' Access All Alternates lookup 0 subtable" bracketright.sc
EndChar

StartChar: asciicircum
Encoding: 94 94 65
Width: 563
Flags: HW
LayerCount: 2
Fore
SplineSet
88 273 m 1
 395 715 l 1
 463 715 l 1
 591 273 l 1
 474 273 l 1
 396 553 l 1
 204 273 l 1
 88 273 l 1
EndSplineSet
Validated: 1
EndChar

StartChar: underscore
Encoding: 95 95 66
Width: 563
Flags: HW
LayerCount: 2
Fore
SplineSet
-40 -188 m 1
 -14 -68 l 1
 549 -68 l 1
 523 -188 l 1
 -40 -188 l 1
EndSplineSet
Validated: 1
EndChar

StartChar: grave
Encoding: 96 96 67
Width: 563
Flags: HW
LayerCount: 2
Fore
SplineSet
409 606 m 1
 375 638 310 720 288 757 c 1
 290 766 l 1
 442 766 l 1
 455 723 486 652 504 619 c 1
 501 606 l 1
 409 606 l 1
EndSplineSet
Validated: 1
EndChar

StartChar: a
Encoding: 97 97 68
Width: 563
GlyphClass: 2
Flags: HW
AnchorPoint: "Anchor-2" 659 546 basechar 0
AnchorPoint: "Anchor-1" 408 546 basechar 0
AnchorPoint: "Anchor-0" 288 0 basechar 0
LayerCount: 2
Fore
SplineSet
211 -10 m 0
 105 -10 62 55 84 158 c 0
 109 277 193 332 334 336 c 2
 443 339 l 1
 448 362 l 2
 459 414 431 440 363 440 c 0
 322 440 274 431 213 407 c 1
 187 508 l 1
 257 541 322 556 395 556 c 0
 543 556 608 493 581 364 c 2
 504 0 l 1
 401 0 l 1
 391 70 l 1
 388 70 l 1
 328 11 272 -10 211 -10 c 0
284 105 m 0
 344 105 401 144 415 208 c 2
 425 253 l 1
 353 251 l 2
 280 249 235 223 224 170 c 0
 214 125 242 105 284 105 c 0
EndSplineSet
Validated: 1048609
Substitution2: "'smcp' Lowercase to Small Capitals lookup 35 subtable" a.sc
Substitution2: "Single Substitution lookup 32 subtable" ordfeminine
AlternateSubs2: "'aalt' Access All Alternates lookup 1 subtable" ordfeminine a.sc
EndChar

StartChar: b
Encoding: 98 98 69
Width: 563
GlyphClass: 2
Flags: HW
AnchorPoint: "Anchor-2" 705 760 basechar 0
AnchorPoint: "Anchor-1" 444 760 basechar 0
AnchorPoint: "Anchor-0" 282 0 basechar 0
LayerCount: 2
Fore
SplineSet
336 -10 m 0
 276 -10 227 14 201 60 c 1
 191 60 l 1
 156 0 l 1
 51 0 l 1
 213 760 l 1
 350 760 l 1
 312 583 l 2
 307 560 297 523 283 475 c 1
 289 475 l 1
 333 528 395 556 459 556 c 0
 589 556 618 432 585 275 c 0
 551 113 466 -10 336 -10 c 0
309 109 m 0
 373 109 420 167 443 276 c 0
 466 385 443 437 379 437 c 0
 319 437 271 391 246 275 c 0
 222 161 248 109 309 109 c 0
EndSplineSet
Validated: 1048609
Substitution2: "'smcp' Lowercase to Small Capitals lookup 35 subtable" b.sc
Substitution2: "'aalt' Access All Alternates lookup 0 subtable" b.sc
EndChar

StartChar: c
Encoding: 99 99 70
Width: 563
GlyphClass: 2
Flags: HW
AnchorPoint: "Anchor-2" 659 546 basechar 0
AnchorPoint: "Anchor-1" 426 546 basechar 0
AnchorPoint: "Anchor-0" 317 0 basechar 0
LayerCount: 2
Fore
SplineSet
319 -10 m 0
 146 -10 83 83 122 266 c 0
 163 458 273 556 445 556 c 0
 500 556 557 546 607 521 c 1
 541 409 l 1
 497 430 462 436 431 436 c 0
 344 436 287 380 264 272 c 0
 240 159 280 111 363 111 c 0
 401 111 450 121 513 154 c 1
 486 27 l 1
 423 -2 370 -10 319 -10 c 0
EndSplineSet
Validated: 1048609
Substitution2: "'smcp' Lowercase to Small Capitals lookup 35 subtable" c.sc
Substitution2: "'aalt' Access All Alternates lookup 0 subtable" c.sc
EndChar

StartChar: d
Encoding: 100 100 71
Width: 563
GlyphClass: 2
Flags: HW
AnchorPoint: "Anchor-3" 340 273 basechar 0
AnchorPoint: "Anchor-2" 705 760 basechar 0
AnchorPoint: "Anchor-1" 444 760 basechar 0
AnchorPoint: "Anchor-0" 282 0 basechar 0
LayerCount: 2
Fore
SplineSet
221 -10 m 0
 89 -10 60 112 94 272 c 0
 129 437 214 556 350 556 c 0
 416 556 460 528 483 476 c 1
 487 476 l 1
 488 514 492 551 500 589 c 2
 537 760 l 1
 674 760 l 1
 512 0 l 1
 409 0 l 1
 394 71 l 1
 388 71 l 1
 342 18 284 -10 221 -10 c 0
306 109 m 0
 377 109 421 160 441 254 c 2
 445 271 l 2
 466 368 459 437 379 437 c 0
 305 437 259 379 236 269 c 0
 212 157 236 109 306 109 c 0
EndSplineSet
Validated: 33
Substitution2: "'smcp' Lowercase to Small Capitals lookup 35 subtable" d.sc
Substitution2: "'aalt' Access All Alternates lookup 0 subtable" d.sc
EndChar

StartChar: e
Encoding: 101 101 72
Width: 563
GlyphClass: 2
Flags: HW
AnchorPoint: "Anchor-2" 659 546 basechar 0
AnchorPoint: "Anchor-1" 407 546 basechar 0
AnchorPoint: "Anchor-0" 292 0 basechar 0
LayerCount: 2
Fore
SplineSet
322 -10 m 0
 142 -10 64 92 103 275 c 0
 140 449 251 556 408 556 c 0
 552 556 618 467 584 306 c 2
 568 232 l 1
 233 232 l 1
 220 151 274 108 361 108 c 0
 418 108 475 124 530 145 c 1
 505 29 l 1
 453 4 390 -10 322 -10 c 0
458 330 m 1
 473 404 441 444 385 444 c 0
 329 444 278 406 256 330 c 1
 458 330 l 1
EndSplineSet
Validated: 1048609
Substitution2: "'smcp' Lowercase to Small Capitals lookup 35 subtable" e.sc
Substitution2: "'aalt' Access All Alternates lookup 0 subtable" e.sc
EndChar

StartChar: f
Encoding: 102 102 73
Width: 563
GlyphClass: 2
Flags: HW
AnchorPoint: "Anchor-2" 719 765 basechar 0
AnchorPoint: "Anchor-1" 528 762 basechar 0
AnchorPoint: "Anchor-0" 282 0 basechar 0
LayerCount: 2
Fore
SplineSet
195 0 m 1
 286 428 l 1
 149 428 l 1
 167 513 l 1
 311 546 l 1
 318 581 l 2
 345 708 418 765 551 765 c 0
 603 765 652 757 698 742 c 1
 636 629 l 1
 605 640 573 643 553 643 c 0
 495 643 465 617 455 569 c 2
 450 546 l 1
 616 546 l 1
 591 428 l 1
 425 428 l 1
 334 0 l 1
 195 0 l 1
EndSplineSet
Validated: 1048577
Substitution2: "'smcp' Lowercase to Small Capitals lookup 35 subtable" f.sc
Substitution2: "'aalt' Access All Alternates lookup 0 subtable" f.sc
EndChar

StartChar: g
Encoding: 103 103 74
Width: 563
GlyphClass: 2
Flags: HW
AnchorPoint: "Anchor-2" 659 546 basechar 0
AnchorPoint: "Anchor-1" 398 546 basechar 0
AnchorPoint: "Anchor-0" 230 -245 basechar 0
LayerCount: 2
Fore
SplineSet
192 -245 m 0
 137 -245 81 -237 25 -213 c 1
 53 -81 l 1
 112 -109 168 -123 223 -123 c 0
 307 -122 351 -86 368 -8 c 2
 371 4 l 2
 376 26 382 50 387 68 c 1
 383 68 l 1
 337 13 287 -10 228 -10 c 0
 106 -10 56 95 94 273 c 0
 132 452 228 557 347 557 c 0
 408 557 449 529 473 476 c 1
 477 476 l 1
 515 546 l 1
 628 546 l 1
 512 -1 l 2
 479 -158 377 -245 192 -245 c 0
305 109 m 0
 369 109 413 158 433 252 c 2
 437 271 l 2
 462 388 441 437 373 437 c 0
 305 437 260 380 237 273 c 0
 214 167 235 109 305 109 c 0
EndSplineSet
Validated: 1048609
Substitution2: "'smcp' Lowercase to Small Capitals lookup 35 subtable" g.sc
Substitution2: "'aalt' Access All Alternates lookup 0 subtable" g.sc
EndChar

StartChar: h
Encoding: 104 104 75
Width: 563
GlyphClass: 2
Flags: HW
AnchorPoint: "Anchor-3" 340 273 basechar 0
AnchorPoint: "Anchor-2" 705 760 basechar 0
AnchorPoint: "Anchor-1" 285 760 basechar 0
AnchorPoint: "Anchor-0" 282 0 basechar 0
LayerCount: 2
Fore
SplineSet
51 0 m 1
 213 760 l 1
 352 760 l 1
 318 601 l 2
 309 559 298 518 286 476 c 1
 295 476 l 1
 336 528 388 556 460 556 c 0
 574 556 621 486 593 356 c 2
 517 0 l 1
 378 0 l 1
 446 320 l 2
 464 404 444 437 387 437 c 0
 312 437 271 380 245 258 c 2
 190 0 l 1
 51 0 l 1
EndSplineSet
Validated: 33
Substitution2: "'smcp' Lowercase to Small Capitals lookup 35 subtable" h.sc
Substitution2: "'subs' Subscript lookup 22 subtable" uni2095
AlternateSubs2: "'aalt' Access All Alternates lookup 1 subtable" h.sc uni2095
EndChar

StartChar: i
Encoding: 105 105 76
Width: 563
GlyphClass: 2
Flags: HW
AnchorPoint: "Anchor-3" 353 291 basechar 0
AnchorPoint: "Anchor-2" 644 774 basechar 0
AnchorPoint: "Anchor-1" 460 774 basechar 0
AnchorPoint: "Anchor-0" 296 0 basechar 0
LayerCount: 2
Fore
SplineSet
423 611 m 0
 370 611 345 639 356 693 c 0
 367 746 403 774 460 774 c 0
 516 774 537 746 526 693 c 0
 515 641 482 611 423 611 c 0
58 0 m 1
 78 92 l 1
 249 115 l 1
 317 431 l 1
 177 446 l 1
 198 546 l 1
 480 546 l 1
 388 115 l 1
 532 92 l 1
 512 0 l 1
 58 0 l 1
EndSplineSet
Validated: 33
Substitution2: "'smcp' Lowercase to Small Capitals lookup 35 subtable" i.sc
Substitution2: "Single Substitution lookup 5 subtable" dotlessi
Substitution2: "Single Substitution lookup 4 subtable" dotlessi
AlternateSubs2: "'aalt' Access All Alternates lookup 1 subtable" dotlessi i.sc
EndChar

StartChar: j
Encoding: 106 106 77
Width: 563
GlyphClass: 2
Flags: HW
AnchorPoint: "Anchor-2" 648 774 basechar 0
AnchorPoint: "Anchor-1" 486 774 basechar 0
AnchorPoint: "Anchor-0" 142 -245 basechar 0
LayerCount: 2
Fore
SplineSet
454 611 m 0
 400 611 376 639 387 693 c 0
 398 746 433 774 490 774 c 0
 547 774 567 746 556 693 c 0
 545 641 512 611 454 611 c 0
132 -245 m 0
 87 -245 37 -238 -9 -223 c 1
 16 -104 l 1
 57 -117 104 -123 135 -123 c 0
 208 -123 247 -91 265 -4 c 2
 358 431 l 1
 208 446 l 1
 229 546 l 1
 521 546 l 1
 399 -28 l 2
 367 -177 284 -245 132 -245 c 0
EndSplineSet
Validated: 1048609
Substitution2: "'smcp' Lowercase to Small Capitals lookup 35 subtable" j.sc
Substitution2: "Single Substitution lookup 5 subtable" uni0237
Substitution2: "Single Substitution lookup 4 subtable" uni0237
AlternateSubs2: "'aalt' Access All Alternates lookup 1 subtable" uni0237 j.sc
EndChar

StartChar: k
Encoding: 107 107 78
Width: 563
GlyphClass: 2
Flags: HW
AnchorPoint: "Anchor-2" 630 860 basechar 0
AnchorPoint: "Anchor-1" 480 760 basechar 0
AnchorPoint: "Anchor-0" 300 0 basechar 0
LayerCount: 2
Fore
SplineSet
55 0 m 1
 217 760 l 1
 356 760 l 1
 282 415 l 2
 273 373 263 339 249 297 c 1
 252 297 l 1
 276 324 303 352 332 382 c 2
 494 546 l 1
 655 546 l 1
 427 322 l 1
 550 0 l 1
 397 0 l 1
 314 228 l 1
 229 165 l 1
 194 0 l 1
 55 0 l 1
EndSplineSet
Validated: 1048577
Substitution2: "'smcp' Lowercase to Small Capitals lookup 35 subtable" k.sc
Substitution2: "'subs' Subscript lookup 22 subtable" uni2096
AlternateSubs2: "'aalt' Access All Alternates lookup 1 subtable" k.sc uni2096
EndChar

StartChar: l
Encoding: 108 108 79
Width: 563
GlyphClass: 2
Flags: HW
AnchorPoint: "Anchor-3" 373 374 basechar 0
AnchorPoint: "Anchor-2" 634 760 basechar 0
AnchorPoint: "Anchor-1" 444 760 basechar 0
AnchorPoint: "Anchor-0" 294 0 basechar 0
LayerCount: 2
Fore
SplineSet
58 0 m 1
 78 92 l 1
 246 115 l 1
 359 645 l 1
 232 668 l 1
 252 760 l 1
 523 760 l 1
 385 115 l 1
 532 92 l 1
 512 0 l 1
 58 0 l 1
EndSplineSet
Validated: 1
Substitution2: "'smcp' Lowercase to Small Capitals lookup 35 subtable" l.sc
Substitution2: "'subs' Subscript lookup 22 subtable" uni2097
AlternateSubs2: "'aalt' Access All Alternates lookup 1 subtable" l.sc uni2097
EndChar

StartChar: m
Encoding: 109 109 80
Width: 563
GlyphClass: 2
Flags: HW
AnchorPoint: "Anchor-2" 659 546 basechar 0
AnchorPoint: "Anchor-1" 428 546 basechar 0
AnchorPoint: "Anchor-0" 291 0 basechar 0
LayerCount: 2
Fore
SplineSet
25 0 m 1
 141 546 l 1
 237 546 l 1
 238 480 l 1
 246 480 l 1
 275 532 308 556 359 556 c 0
 415 556 433 523 432 473 c 1
 437 473 l 1
 469 524 502 556 559 556 c 0
 638 556 645 499 619 378 c 2
 539 0 l 1
 419 0 l 1
 500 383 l 2
 508 421 507 441 480 441 c 0
 446 441 432 417 419 356 c 2
 343 0 l 1
 221 0 l 1
 302 383 l 2
 311 423 309 441 282 441 c 0
 247 441 233 415 220 353 c 2
 145 0 l 1
 25 0 l 1
EndSplineSet
Validated: 1048609
Substitution2: "'smcp' Lowercase to Small Capitals lookup 35 subtable" m.sc
Substitution2: "'subs' Subscript lookup 22 subtable" uni2098
AlternateSubs2: "'aalt' Access All Alternates lookup 1 subtable" m.sc uni2098
EndChar

StartChar: n
Encoding: 110 110 81
Width: 563
GlyphClass: 2
Flags: HW
AnchorPoint: "Anchor-2" 659 546 basechar 0
AnchorPoint: "Anchor-1" 404 546 basechar 0
AnchorPoint: "Anchor-0" 286 0 basechar 0
LayerCount: 2
Fore
SplineSet
51 0 m 1
 167 546 l 1
 275 546 l 1
 283 479 l 1
 290 479 l 1
 331 529 387 556 460 556 c 0
 575 556 621 490 594 362 c 2
 517 0 l 1
 378 0 l 1
 447 325 l 2
 464 403 443 439 386 439 c 0
 312 439 270 378 247 268 c 2
 190 0 l 1
 51 0 l 1
EndSplineSet
Validated: 1048609
Substitution2: "'smcp' Lowercase to Small Capitals lookup 35 subtable" n.sc
Substitution2: "'sups' Superscript lookup 23 subtable" uni207F
Substitution2: "'subs' Subscript lookup 22 subtable" uni2099
AlternateSubs2: "'aalt' Access All Alternates lookup 1 subtable" uni207F n.sc uni2099
EndChar

StartChar: o
Encoding: 111 111 82
Width: 563
GlyphClass: 2
Flags: HW
AnchorPoint: "Anchor-3" 340 273 basechar 0
AnchorPoint: "Anchor-2" 659 546 basechar 0
AnchorPoint: "Anchor-1" 398 546 basechar 0
AnchorPoint: "Anchor-0" 282 0 basechar 0
LayerCount: 2
Fore
SplineSet
282 -10 m 0
 120 -10 59 108 94 273 c 0
 129 439 242 556 401 556 c 0
 551 556 624 453 585 271 c 0
 550 107 445 -10 282 -10 c 0
307 107 m 0
 378 107 421 165 444 272 c 0
 467 379 449 439 377 439 c 0
 303 439 258 376 236 273 c 0
 214 168 234 107 307 107 c 0
EndSplineSet
Validated: 33
Substitution2: "'smcp' Lowercase to Small Capitals lookup 35 subtable" o.sc
Substitution2: "Single Substitution lookup 32 subtable" ordmasculine
AlternateSubs2: "'aalt' Access All Alternates lookup 1 subtable" ordmasculine o.sc
EndChar

StartChar: p
Encoding: 112 112 83
Width: 563
GlyphClass: 2
Flags: HW
AnchorPoint: "Anchor-2" 659 546 basechar 0
AnchorPoint: "Anchor-1" 430 546 basechar 0
AnchorPoint: "Anchor-0" 263 -240 basechar 0
LayerCount: 2
Fore
SplineSet
-0 -240 m 1
 167 546 l 1
 273 546 l 1
 282 475 l 1
 289 475 l 1
 334 528 395 556 458 556 c 0
 590 556 619 432 586 277 c 0
 548 97 452 -10 333 -10 c 0
 276 -10 227 15 201 60 c 1
 194 60 l 1
 192 21 187 -2 184 -18 c 2
 137 -240 l 1
 -0 -240 l 1
312 109 m 0
 377 109 417 162 441 277 c 0
 464 386 447 437 382 437 c 0
 317 437 270 387 250 291 c 2
 246 275 l 2
 222 163 246 109 312 109 c 0
EndSplineSet
Validated: 1048609
Substitution2: "'smcp' Lowercase to Small Capitals lookup 35 subtable" p.sc
Substitution2: "'subs' Subscript lookup 22 subtable" uni209A
AlternateSubs2: "'aalt' Access All Alternates lookup 1 subtable" p.sc uni209A
EndChar

StartChar: q
Encoding: 113 113 84
Width: 563
GlyphClass: 2
Flags: HW
AnchorPoint: "Anchor-2" 659 546 basechar 0
AnchorPoint: "Anchor-1" 378 546 basechar 0
AnchorPoint: "Anchor-0" 211 -240 basechar 0
LayerCount: 2
Fore
SplineSet
373 -10 m 2
 377 9 385 39 396 71 c 1
 390 71 l 1
 350 21 286 -10 221 -10 c 0
 89 -10 60 113 94 272 c 0
 128 431 208 556 345 556 c 0
 407 556 456 530 483 476 c 1
 487 476 l 1
 519 546 l 1
 628 546 l 1
 461 -240 l 1
 324 -240 l 1
 373 -10 l 2
306 109 m 0
 381 109 420 168 438 254 c 2
 442 274 l 2
 466 387 440 437 376 437 c 0
 307 437 261 379 238 269 c 0
 215 163 234 109 306 109 c 0
EndSplineSet
Validated: 1048609
Substitution2: "'smcp' Lowercase to Small Capitals lookup 35 subtable" q.sc
Substitution2: "'aalt' Access All Alternates lookup 0 subtable" q.sc
EndChar

StartChar: r
Encoding: 114 114 85
Width: 563
GlyphClass: 2
Flags: HW
AnchorPoint: "Anchor-2" 659 546 basechar 0
AnchorPoint: "Anchor-1" 424 546 basechar 0
AnchorPoint: "Anchor-0" 238 0 basechar 0
LayerCount: 2
Fore
SplineSet
36 0 m 1
 56 92 l 1
 190 115 l 1
 258 431 l 1
 151 446 l 1
 172 546 l 1
 386 546 l 1
 388 453 l 1
 395 453 l 1
 439 514 491 556 572 556 c 0
 599 556 634 552 665 538 c 1
 601 407 l 1
 583 415 556 421 527 421 c 0
 439 421 381 356 361 264 c 2
 329 115 l 1
 460 92 l 1
 440 0 l 1
 36 0 l 1
EndSplineSet
Validated: 1048577
Substitution2: "'smcp' Lowercase to Small Capitals lookup 35 subtable" r.sc
Substitution2: "'aalt' Access All Alternates lookup 0 subtable" r.sc
EndChar

StartChar: s
Encoding: 115 115 86
Width: 563
GlyphClass: 2
Flags: HW
AnchorPoint: "Anchor-2" 659 546 basechar 0
AnchorPoint: "Anchor-1" 403 546 basechar 0
AnchorPoint: "Anchor-0" 287 0 basechar 0
LayerCount: 2
Fore
SplineSet
251 -10 m 0
 189 -10 133 -2 80 22 c 1
 107 151 l 1
 155 127 223 107 290 107 c 0
 342 107 374 121 381 152 c 0
 389 189 346 201 270 236 c 0
 193 273 140 307 159 397 c 0
 182 505 280 556 407 556 c 0
 474 556 537 542 595 513 c 1
 528 406 l 1
 480 429 432 440 381 440 c 0
 337 440 308 429 302 401 c 0
 295 368 329 357 406 324 c 0
 485 290 545 253 524 153 c 0
 501 44 408 -10 251 -10 c 0
EndSplineSet
Validated: 1048609
Substitution2: "'smcp' Lowercase to Small Capitals lookup 35 subtable" s.sc
Substitution2: "'subs' Subscript lookup 22 subtable" uni209B
AlternateSubs2: "'aalt' Access All Alternates lookup 1 subtable" s.sc uni209B
EndChar

StartChar: t
Encoding: 116 116 87
Width: 563
GlyphClass: 2
Flags: HW
AnchorPoint: "Anchor-3" 299 276 basechar 0
AnchorPoint: "Anchor-2" 621 860 basechar 0
AnchorPoint: "Anchor-1" 400 682 basechar 0
AnchorPoint: "Anchor-0" 345 0 basechar 0
LayerCount: 2
Fore
SplineSet
362 -10 m 0
 225 -10 174 51 203 186 c 2
 254 428 l 1
 136 428 l 1
 153 510 l 1
 291 546 l 1
 350 682 l 1
 449 682 l 1
 420 546 l 1
 620 546 l 1
 595 428 l 1
 393 428 l 1
 344 199 l 2
 328 126 362 110 416 110 c 0
 448 110 483 116 535 127 c 1
 511 13 l 1
 460 -3 408 -10 362 -10 c 0
EndSplineSet
Validated: 33
Substitution2: "'smcp' Lowercase to Small Capitals lookup 35 subtable" t.sc
Substitution2: "'subs' Subscript lookup 22 subtable" uni209C
AlternateSubs2: "'aalt' Access All Alternates lookup 1 subtable" t.sc uni209C
EndChar

StartChar: u
Encoding: 117 117 88
Width: 563
GlyphClass: 2
Flags: HW
AnchorPoint: "Anchor-2" 659 546 basechar 0
AnchorPoint: "Anchor-1" 398 546 basechar 0
AnchorPoint: "Anchor-0" 282 0 basechar 0
LayerCount: 2
Fore
SplineSet
215 -10 m 0
 103 -10 58 60 86 190 c 2
 162 546 l 1
 301 546 l 1
 233 227 l 2
 217 152 227 109 292 109 c 0
 377 109 410 176 434 289 c 2
 489 546 l 1
 628 546 l 1
 512 0 l 1
 405 0 l 1
 397 70 l 1
 389 70 l 1
 348 19 287 -10 215 -10 c 0
EndSplineSet
Validated: 1048609
Substitution2: "'smcp' Lowercase to Small Capitals lookup 35 subtable" u.sc
Substitution2: "'aalt' Access All Alternates lookup 0 subtable" u.sc
EndChar

StartChar: v
Encoding: 118 118 89
Width: 563
GlyphClass: 2
Flags: HW
AnchorPoint: "Anchor-2" 659 546 basechar 0
AnchorPoint: "Anchor-1" 398 546 basechar 0
AnchorPoint: "Anchor-0" 282 0 basechar 0
LayerCount: 2
Fore
SplineSet
202 0 m 1
 132 546 l 1
 281 546 l 1
 305 236 l 2
 307 196 309 155 307 120 c 1
 310 120 l 1
 322 155 337 189 360 235 c 2
 516 546 l 1
 663 546 l 1
 357 0 l 1
 202 0 l 1
EndSplineSet
Validated: 1048609
Substitution2: "'smcp' Lowercase to Small Capitals lookup 35 subtable" v.sc
Substitution2: "'aalt' Access All Alternates lookup 0 subtable" v.sc
EndChar

StartChar: w
Encoding: 119 119 90
Width: 563
GlyphClass: 2
Flags: HW
AnchorPoint: "Anchor-2" 659 546 basechar 0
AnchorPoint: "Anchor-1" 399 546 basechar 0
AnchorPoint: "Anchor-0" 283 0 basechar 0
LayerCount: 2
Fore
SplineSet
76 0 m 1
 118 546 l 1
 242 546 l 1
 206 265 l 2
 201 221 195 186 189 132 c 1
 193 132 l 1
 210 186 223 221 242 268 c 2
 322 465 l 1
 441 465 l 1
 436 267 l 2
 434 227 432 182 429 132 c 1
 433 132 l 1
 449 182 459 225 471 265 c 2
 556 546 l 1
 678 546 l 1
 487 0 l 1
 334 0 l 1
 343 217 l 2
 345 256 347 279 349 312 c 1
 345 312 l 1
 333 278 325 255 311 217 c 2
 227 0 l 1
 76 0 l 1
EndSplineSet
Validated: 1048577
Substitution2: "'smcp' Lowercase to Small Capitals lookup 35 subtable" w.sc
Substitution2: "'aalt' Access All Alternates lookup 0 subtable" w.sc
EndChar

StartChar: x
Encoding: 120 120 91
Width: 563
GlyphClass: 2
Flags: HW
AnchorPoint: "Anchor-2" 659 546 basechar 0
AnchorPoint: "Anchor-1" 398 546 basechar 0
AnchorPoint: "Anchor-0" 282 0 basechar 0
LayerCount: 2
Fore
SplineSet
16 0 m 1
 253 278 l 1
 141 546 l 1
 305 546 l 1
 361 369 l 1
 497 546 l 1
 660 546 l 1
 431 278 l 1
 547 0 l 1
 383 0 l 1
 322 184 l 1
 181 0 l 1
 16 0 l 1
EndSplineSet
Validated: 1048577
Substitution2: "'smcp' Lowercase to Small Capitals lookup 35 subtable" x.sc
Substitution2: "'aalt' Access All Alternates lookup 0 subtable" x.sc
EndChar

StartChar: y
Encoding: 121 121 92
Width: 563
GlyphClass: 2
Flags: HW
AnchorPoint: "Anchor-2" 659 546 basechar 0
AnchorPoint: "Anchor-1" 398 546 basechar 0
AnchorPoint: "Anchor-0" 230 -245 basechar 0
LayerCount: 2
Fore
SplineSet
71 -245 m 0
 47 -245 24 -242 1 -237 c 1
 25 -120 l 1
 41 -124 60 -126 72 -126 c 0
 127 -126 170 -93 204 -31 c 2
 221 0 l 1
 132 546 l 1
 287 546 l 1
 317 233 l 2
 319 205 320 173 317 136 c 1
 320 136 l 1
 332 171 347 202 362 233 c 2
 511 546 l 1
 663 546 l 1
 347 -29 l 2
 271 -166 186 -245 71 -245 c 0
EndSplineSet
Validated: 1048609
Substitution2: "'smcp' Lowercase to Small Capitals lookup 35 subtable" y.sc
Substitution2: "'aalt' Access All Alternates lookup 0 subtable" y.sc
EndChar

StartChar: z
Encoding: 122 122 93
Width: 563
GlyphClass: 2
Flags: HW
AnchorPoint: "Anchor-2" 659 546 basechar 0
AnchorPoint: "Anchor-1" 403 546 basechar 0
AnchorPoint: "Anchor-0" 287 0 basechar 0
LayerCount: 2
Fore
SplineSet
61 0 m 1
 79 87 l 1
 414 432 l 1
 165 432 l 1
 189 546 l 1
 608 546 l 1
 587 449 l 1
 260 114 l 1
 526 114 l 1
 502 0 l 1
 61 0 l 1
EndSplineSet
Validated: 1048577
Substitution2: "'smcp' Lowercase to Small Capitals lookup 35 subtable" z.sc
Substitution2: "'aalt' Access All Alternates lookup 0 subtable" z.sc
EndChar

StartChar: braceleft
Encoding: 123 123 94
Width: 563
Flags: HW
LayerCount: 2
Fore
SplineSet
406 -163 m 1
 248 -163 205 -123 229 -8 c 2
 260 136 l 2
 273 196 245 225 170 225 c 1
 192 330 l 1
 265 330 307 357 320 419 c 2
 351 564 l 2
 374 673 430 718 594 719 c 1
 572 615 l 1
 516 613 481 601 469 545 c 2
 438 400 l 2
 423 329 384 292 315 281 c 1
 313 275 l 1
 380 264 401 225 387 158 c 2
 356 12 l 2
 345 -40 366 -57 428 -59 c 1
 406 -163 l 1
EndSplineSet
Validated: 33
Substitution2: "'smcp' Lowercase to Small Capitals lookup 35 subtable" braceleft.sc
Substitution2: "'c2sc' Capitals to Small Capitals lookup 34 subtable" braceleft.sc
Substitution2: "'aalt' Access All Alternates lookup 0 subtable" braceleft.sc
EndChar

StartChar: bar
Encoding: 124 124 95
Width: 563
Flags: HW
LayerCount: 2
Fore
SplineSet
175 -240 m 1
 388 760 l 1
 498 760 l 1
 285 -240 l 1
 175 -240 l 1
EndSplineSet
Validated: 1
EndChar

StartChar: braceright
Encoding: 125 125 96
Width: 563
Flags: HW
LayerCount: 2
Fore
SplineSet
275 719 m 1
 433 719 476 679 452 564 c 2
 421 420 l 2
 408 360 436 331 511 331 c 1
 489 226 l 1
 416 226 374 199 361 137 c 2
 330 -8 l 2
 307 -117 251 -162 87 -163 c 1
 109 -59 l 1
 165 -57 200 -45 212 11 c 2
 243 156 l 2
 258 227 296 264 366 275 c 1
 368 281 l 1
 301 292 281 331 295 398 c 2
 326 544 l 2
 337 596 315 613 253 615 c 1
 275 719 l 1
EndSplineSet
Validated: 33
Substitution2: "'smcp' Lowercase to Small Capitals lookup 35 subtable" braceright.sc
Substitution2: "'c2sc' Capitals to Small Capitals lookup 34 subtable" braceright.sc
Substitution2: "'aalt' Access All Alternates lookup 0 subtable" braceright.sc
EndChar

StartChar: asciitilde
Encoding: 126 126 97
Width: 563
Flags: HW
LayerCount: 2
Fore
SplineSet
121 272 m 1
 142 369 190 460 284 460 c 0
 328 460 353 442 391 393 c 0
 419 354 429 343 450 343 c 0
 483 343 509 380 528 460 c 1
 598 460 l 1
 574 357 526 272 437 272 c 0
 399 272 372 286 333 337 c 0
 300 378 291 389 272 389 c 0
 235 389 207 354 190 272 c 1
 121 272 l 1
EndSplineSet
Validated: 1
EndChar

StartChar: exclamdown
Encoding: 161 161 99
Width: 563
Flags: HW
LayerCount: 2
Fore
SplineSet
396 539 m 0
 450 539 474 509 463 455 c 0
 451 399 416 370 360 370 c 0
 307 370 283 400 295 455 c 0
 306 508 345 539 396 539 c 0
403 296 m 1
 322 -185 l 1
 162 -185 l 1
 285 296 l 1
 403 296 l 1
EndSplineSet
Validated: 33
Substitution2: "'smcp' Lowercase to Small Capitals lookup 35 subtable" exclamdown.sc
Substitution2: "'c2sc' Capitals to Small Capitals lookup 34 subtable" exclamdown.sc
Substitution2: "'aalt' Access All Alternates lookup 0 subtable" exclamdown.sc
EndChar

StartChar: cent
Encoding: 162 162 100
Width: 563
Flags: HW
LayerCount: 2
Fore
SplineSet
303 86 m 1
 164 100 115 197 148 362 c 0
 186 530 281 627 422 643 c 1
 439 724 l 1
 515 724 l 1
 499 647 l 1
 550 644 601 630 628 612 c 1
 569 506 l 1
 539 525 492 535 458 535 c 0
 365 535 306 484 280 363 c 0
 255 245 291 194 384 194 c 0
 433 194 491 209 536 233 c 1
 512 120 l 1
 478 101 425 88 379 84 c 1
 359 -10 l 1
 283 -10 l 1
 303 86 l 1
EndSplineSet
Validated: 33
EndChar

StartChar: sterling
Encoding: 163 163 101
Width: 563
Flags: HW
LayerCount: 2
Fore
SplineSet
97 113 m 1
 150 139 181 169 196 240 c 2
 212 314 l 1
 139 314 l 1
 160 414 l 1
 233 414 l 1
 256 521 l 2
 285 659 377 725 497 725 c 0
 555 725 604 710 645 684 c 1
 584 577 l 1
 548 597 521 607 483 607 c 0
 442 607 403 582 389 517 c 2
 367 414 l 1
 517 414 l 1
 496 314 l 1
 346 314 l 1
 330 241 l 2
 317 180 283 142 238 119 c 1
 529 119 l 1
 504 0 l 1
 73 0 l 1
 97 113 l 1
EndSplineSet
Validated: 1
EndChar

StartChar: currency
Encoding: 164 164 102
Width: 563
Flags: HW
LayerCount: 2
Fore
SplineSet
427 196 m 1
 392 177 353 166 316 166 c 0
 276 166 243 176 217 196 c 1
 139 132 l 1
 89 196 l 1
 168 260 l 1
 154 292 151 326 159 365 c 0
 167 402 185 437 213 469 c 1
 160 535 l 1
 238 599 l 1
 290 534 l 1
 325 555 363 565 401 565 c 0
 438 565 471 555 498 533 c 1
 578 599 l 1
 630 537 l 1
 550 470 l 1
 564 440 567 404 559 365 c 0
 551 326 533 291 505 259 c 1
 555 195 l 1
 479 131 l 1
 427 196 l 1
336 260 m 0
 398 260 453 304 466 365 c 0
 479 426 446 471 381 471 c 0
 317 471 267 425 254 365 c 0
 241 303 277 260 336 260 c 0
EndSplineSet
Validated: 33
EndChar

StartChar: yen
Encoding: 165 165 103
Width: 563
Flags: HW
LayerCount: 2
Fore
SplineSet
216 0 m 1
 240 113 l 1
 105 113 l 1
 123 197 l 1
 258 197 l 1
 273 266 l 1
 138 266 l 1
 156 352 l 1
 266 352 l 1
 181 714 l 1
 323 714 l 1
 373 426 l 1
 544 714 l 1
 686 714 l 1
 445 352 l 1
 557 352 l 1
 539 266 l 1
 404 266 l 1
 389 197 l 1
 524 197 l 1
 506 113 l 1
 371 113 l 1
 347 0 l 1
 216 0 l 1
EndSplineSet
Validated: 1
EndChar

StartChar: brokenbar
Encoding: 166 166 104
Width: 563
Flags: HW
LayerCount: 2
Fore
SplineSet
303 363 m 1
 387 758 l 1
 497 758 l 1
 413 363 l 1
 303 363 l 1
177 -231 m 1
 261 165 l 1
 371 165 l 1
 287 -231 l 1
 177 -231 l 1
EndSplineSet
Validated: 1
EndChar

StartChar: section
Encoding: 167 167 105
Width: 563
Flags: HW
LayerCount: 2
Fore
SplineSet
251 -8 m 0
 187 -8 137 5 99 30 c 1
 121 130 l 1
 159 104 217 82 269 82 c 0
 329 82 363 104 371 141 c 0
 379 178 361 195 295 229 c 0
 207 275 162 311 178 387 c 0
 191 446 230 485 284 511 c 1
 246 541 230 581 240 627 c 0
 258 712 348 765 462 765 c 0
 522 765 569 751 618 727 c 1
 561 640 l 1
 523 662 484 676 445 676 c 0
 396 676 367 659 360 627 c 0
 353 592 385 573 436 549 c 0
 524 506 570 467 553 386 c 0
 541 330 506 292 457 263 c 1
 491 232 502 193 492 147 c 0
 472 51 379 -8 251 -8 c 0
388 305 m 1
 412 320 432 341 438 370 c 0
 447 410 429 435 352 469 c 1
 323 459 300 436 294 407 c 0
 286 369 312 345 366 318 c 2
 388 305 l 1
EndSplineSet
Validated: 33
EndChar

StartChar: dieresis
Encoding: 168 168 106
Width: 563
GlyphClass: 2
Flags: HW
AnchorPoint: "Anchor-1" 421 656 basechar 0
LayerCount: 2
Fore
SplineSet
519 612 m 0
 480 612 457 637 467 682 c 0
 477 729 510 752 549 752 c 0
 588 752 612 728 602 682 c 0
 592 637 558 612 519 612 c 0
306 612 m 0
 267 612 245 636 255 682 c 0
 265 729 297 752 336 752 c 0
 375 752 398 728 388 682 c 0
 378 637 345 612 306 612 c 0
EndSplineSet
Validated: 1048609
EndChar

StartChar: copyright
Encoding: 169 169 107
Width: 563
Flags: HW
LayerCount: 2
Fore
SplineSet
299 91 m 0
 129 91 65 213 95 352 c 0
 126 499 252 612 412 612 c 0
 573 612 648 496 617 348 c 0
 584 195 455 91 299 91 c 0
313 153 m 0
 429 153 524 235 549 354 c 0
 574 473 511 550 399 550 c 0
 276 550 188 458 165 351 c 0
 142 242 192 153 313 153 c 0
332 190 m 0
 236 190 197 252 218 351 c 0
 239 452 307 515 402 515 c 0
 433 515 460 509 489 493 c 1
 453 433 l 1
 434 445 412 452 392 452 c 0
 344 452 308 416 294 348 c 0
 281 286 298 254 351 254 c 0
 374 254 403 259 429 270 c 1
 416 207 l 1
 390 196 364 190 332 190 c 0
EndSplineSet
Validated: 33
EndChar

StartChar: ordfeminine
Encoding: 170 170 108
Width: 563
GlyphClass: 2
Flags: HW
AnchorPoint: "Anchor-1" 437 722 basechar 0
AnchorPoint: "Anchor-0" 358 368 basechar 0
LayerCount: 2
Fore
SplineSet
318 369 m 0
 251 369 218 410 232 475 c 0
 249 554 314 581 417 586 c 2
 464 589 l 1
 466 599 l 2
 473 632 458 649 419 649 c 0
 390 649 358 640 323 624 c 1
 307 688 l 1
 350 709 399 722 449 722 c 0
 542 722 574 674 557 592 c 2
 511 375 l 1
 449 375 l 1
 445 427 l 1
 411 390 367 369 318 369 c 0
362 440 m 0
 405 440 439 470 448 514 c 2
 452 532 l 1
 407 529 l 2
 351 525 332 505 326 479 c 0
 320 452 334 440 362 440 c 0
EndSplineSet
Validated: 1048609
EndChar

StartChar: guillemotleft
Encoding: 171 171 109
Width: 563
Flags: HW
LayerCount: 2
Fore
SplineSet
431 47 m 1
 317 264 l 1
 320 278 l 1
 526 495 l 1
 611 444 l 1
 462 271 l 1
 538 98 l 1
 431 47 l 1
217 47 m 1
 103 264 l 1
 106 278 l 1
 312 495 l 1
 396 444 l 1
 246 271 l 1
 323 98 l 1
 217 47 l 1
EndSplineSet
Validated: 1
EndChar

StartChar: logicalnot
Encoding: 172 172 110
Width: 563
Flags: HW
LayerCount: 2
Fore
SplineSet
413 119 m 1
 452 301 l 1
 128 301 l 1
 150 405 l 1
 579 405 l 1
 518 119 l 1
 413 119 l 1
EndSplineSet
Validated: 1
EndChar

StartChar: uni00AD
Encoding: 173 173 111
Width: 563
Flags: HW
LayerCount: 2
Fore
SplineSet
185 205 m 1
 211 330 l 1
 493 330 l 1
 467 205 l 1
 185 205 l 1
EndSplineSet
Validated: 1
EndChar

StartChar: registered
Encoding: 174 174 112
Width: 563
Flags: HW
LayerCount: 2
Fore
SplineSet
300 92 m 0
 130 92 67 214 96 352 c 0
 127 499 253 612 412 612 c 0
 572 612 648 497 617 349 c 0
 584 195 456 92 300 92 c 0
313 154 m 0
 429 154 523 236 548 354 c 0
 574 474 511 550 399 550 c 0
 276 550 188 458 165 351 c 0
 142 242 192 154 313 154 c 0
222 205 m 1
 286 506 l 1
 380 506 l 2
 459 506 492 477 479 415 c 0
 470 372 446 346 416 333 c 1
 445 205 l 1
 370 205 l 1
 351 320 l 1
 315 320 l 1
 291 205 l 1
 222 205 l 1
347 369 m 2
 376 369 398 382 405 414 c 0
 411 441 400 452 366 452 c 2
 343 452 l 1
 325 369 l 1
 347 369 l 2
EndSplineSet
Validated: 33
EndChar

StartChar: overscore
Encoding: 175 175 113
Width: 563
Flags: HW
LayerCount: 2
Fore
SplineSet
269 620 m 1
 289 716 l 1
 579 716 l 1
 559 620 l 1
 269 620 l 1
EndSplineSet
Validated: 1
EndChar

StartChar: degree
Encoding: 176 176 114
Width: 563
Flags: HW
LayerCount: 2
Fore
SplineSet
370 419 m 0
 281 419 231 484 250 572 c 0
 268 658 348 724 435 724 c 0
 523 724 576 657 558 572 c 0
 539 484 464 419 370 419 c 0
387 500 m 0
 432 500 464 532 473 572 c 0
 482 613 460 643 418 643 c 0
 377 643 343 612 334 572 c 0
 325 531 345 500 387 500 c 0
EndSplineSet
Validated: 33
EndChar

StartChar: plusminus
Encoding: 177 177 115
Width: 563
Flags: HW
LayerCount: 2
Fore
SplineSet
263 155 m 1
 302 339 l 1
 136 339 l 1
 158 443 l 1
 324 443 l 1
 364 629 l 1
 469 629 l 1
 429 443 l 1
 595 443 l 1
 573 339 l 1
 407 339 l 1
 368 155 l 1
 263 155 l 1
63 0 m 1
 85 104 l 1
 523 104 l 1
 501 0 l 1
 63 0 l 1
EndSplineSet
Validated: 1
EndChar

StartChar: uni00B2
Encoding: 178 178 116
Width: 563
Flags: HW
LayerCount: 2
Fore
SplineSet
230 416 m 1
 248 497 l 1
 357 591 l 2
 416 642 459 674 469 722 c 0
 476 756 460 769 430 769 c 0
 400 769 374 755 340 727 c 1
 306 792 l 1
 344 827 402 854 465 854 c 0
 545 854 587 813 570 732 c 0
 553 650 497 615 397 529 c 2
 363 500 l 1
 538 500 l 1
 520 416 l 1
 230 416 l 1
EndSplineSet
Validated: 33
EndChar

StartChar: uni00B3
Encoding: 179 179 117
Width: 563
Flags: HW
LayerCount: 2
Fore
SplineSet
352 408 m 0
 305 408 265 418 234 439 c 1
 254 530 l 1
 283 505 321 491 368 491 c 0
 412 491 437 509 444 541 c 0
 451 575 434 596 380 596 c 2
 335 596 l 1
 351 671 l 1
 389 671 l 2
 442 671 466 694 473 725 c 0
 479 753 467 771 433 771 c 0
 402 771 374 761 338 735 c 1
 308 799 l 1
 353 833 405 853 460 853 c 0
 539 853 585 812 571 744 c 0
 561 696 529 662 476 642 c 1
 475 637 l 1
 529 623 550 585 538 530 c 0
 522 455 451 408 352 408 c 0
EndSplineSet
Validated: 33
EndChar

StartChar: acute
Encoding: 180 180 118
Width: 563
Flags: HW
LayerCount: 2
Fore
SplineSet
338 619 m 1
 382 667 428 721 462 766 c 1
 614 766 l 1
 612 757 l 1
 573 719 484 646 427 606 c 1
 335 606 l 1
 338 619 l 1
EndSplineSet
Validated: 1
EndChar

StartChar: uni00B5
Encoding: 181 181 119
Width: 563
GlyphClass: 2
Flags: HW
AnchorPoint: "Anchor-2" 659 546 basechar 0
AnchorPoint: "Anchor-1" 398 546 basechar 0
AnchorPoint: "Anchor-0" 282 0 basechar 0
LayerCount: 2
Fore
SplineSet
215 -10 m 0
 204 -10 193 -9 183 -8 c 1
 134 -240 l 1
 -5 -240 l 1
 162 546 l 1
 301 546 l 1
 233 227 l 2
 217 152 227 109 292 109 c 0
 377 109 410 176 434 289 c 2
 489 546 l 1
 628 546 l 1
 512 0 l 1
 405 0 l 1
 397 70 l 1
 389 70 l 1
 348 19 287 -10 215 -10 c 0
EndSplineSet
Validated: 1048609
EndChar

StartChar: paragraph
Encoding: 182 182 120
Width: 563
Flags: HW
LayerCount: 2
Fore
SplineSet
347 273 m 1
 331 267 311 264 288 264 c 0
 164 264 114 339 150 509 c 0
 187 683 275 760 409 760 c 2
 668 760 l 1
 479 -127 l 1
 405 -127 l 1
 577 682 l 1
 509 682 l 1
 337 -127 l 1
 262 -127 l 1
 347 273 l 1
EndSplineSet
Validated: 33
EndChar

StartChar: periodcentered
Encoding: 183 183 121
Width: 563
Flags: HW
LayerCount: 2
Fore
SplineSet
337 261 m 0
 283 261 259 291 270 345 c 0
 282 401 318 430 373 430 c 0
 426 430 450 400 438 345 c 0
 427 293 389 261 337 261 c 0
EndSplineSet
Validated: 33
EndChar

StartChar: cedilla
Encoding: 184 184 122
Width: 563
Flags: HW
LayerCount: 2
Fore
SplineSet
201 -240 m 0
 176 -240 151 -237 133 -231 c 1
 148 -158 l 1
 164 -164 182 -166 197 -166 c 0
 229 -166 252 -155 258 -127 c 0
 264 -98 243 -85 195 -80 c 1
 248 3 l 1
 322 3 l 1
 297 -38 l 1
 345 -50 369 -81 357 -136 c 0
 344 -198 295 -240 201 -240 c 0
EndSplineSet
Validated: 33
EndChar

StartChar: uni00B9
Encoding: 185 185 123
Width: 563
Flags: HW
LayerCount: 2
Fore
SplineSet
247 416 m 1
 261 480 l 1
 359 490 l 1
 390 635 l 2
 397 666 407 711 415 739 c 1
 405 732 386 722 374 715 c 2
 322 687 l 1
 293 757 l 1
 450 844 l 1
 526 844 l 1
 451 490 l 1
 542 481 l 1
 528 416 l 1
 247 416 l 1
EndSplineSet
Validated: 1
EndChar

StartChar: ordmasculine
Encoding: 186 186 124
Width: 563
GlyphClass: 2
Flags: HW
AnchorPoint: "Anchor-1" 435 722 basechar 0
AnchorPoint: "Anchor-0" 359 368 basechar 0
LayerCount: 2
Fore
SplineSet
359 369 m 0
 268 369 221 435 245 546 c 0
 269 658 341 722 435 722 c 0
 524 722 574 658 550 546 c 0
 526 434 454 369 359 369 c 0
376 445 m 0
 417 445 442 478 456 546 c 0
 470 613 459 646 418 646 c 0
 378 646 352 613 338 546 c 0
 324 478 335 445 376 445 c 0
EndSplineSet
Validated: 1048609
EndChar

StartChar: guillemotright
Encoding: 187 187 125
Width: 563
Flags: HW
LayerCount: 2
Fore
SplineSet
247 494 m 1
 361 277 l 1
 358 263 l 1
 152 46 l 1
 68 97 l 1
 217 270 l 1
 141 443 l 1
 247 494 l 1
461 494 m 1
 576 277 l 1
 573 263 l 1
 366 46 l 1
 282 97 l 1
 432 270 l 1
 355 443 l 1
 461 494 l 1
EndSplineSet
Validated: 1
EndChar

StartChar: onequarter
Encoding: 188 188 126
Width: 563
Flags: HW
LayerCount: 2
Fore
SplineSet
112 379 m 1
 125 440 l 1
 198 446 l 1
 218 540 l 2
 224 567 231 599 238 626 c 1
 227 618 214 609 204 603 c 2
 168 584 l 1
 146 648 l 1
 268 714 l 1
 331 714 l 1
 274 446 l 1
 343 440 l 1
 330 379 l 1
 112 379 l 1
53 70 m 1
 560 621 l 1
 667 621 l 1
 161 70 l 1
 53 70 l 1
416 0 m 1
 429 63 l 1
 294 63 l 1
 308 125 l 1
 482 337 l 1
 566 337 l 1
 521 129 l 1
 569 129 l 1
 555 63 l 1
 507 63 l 1
 494 0 l 1
 416 0 l 1
376 129 m 1
 443 129 l 1
 458 196 l 2
 463 218 468 232 472 252 c 1
 462 235 447 216 437 204 c 2
 376 129 l 1
EndSplineSet
Validated: 1
EndChar

StartChar: onehalf
Encoding: 189 189 127
Width: 563
Flags: HW
LayerCount: 2
Fore
SplineSet
112 379 m 1
 125 440 l 1
 198 446 l 1
 218 540 l 2
 224 567 231 599 238 626 c 1
 227 618 214 609 204 603 c 2
 168 584 l 1
 146 648 l 1
 268 714 l 1
 331 714 l 1
 274 446 l 1
 343 440 l 1
 330 379 l 1
 112 379 l 1
53 70 m 1
 560 621 l 1
 667 621 l 1
 161 70 l 1
 53 70 l 1
325 0 m 1
 338 67 l 1
 430 149 l 2
 485 198 500 212 506 238 c 0
 511 261 501 274 479 274 c 0
 457 274 437 262 412 241 c 1
 384 295 l 1
 416 323 458 344 507 344 c 0
 574 344 602 306 589 247 c 0
 578 193 535 161 467 99 c 2
 435 72 l 1
 564 72 l 1
 549 0 l 1
 325 0 l 1
EndSplineSet
Validated: 33
EndChar

StartChar: threequarters
Encoding: 190 190 128
Width: 563
Flags: HW
LayerCount: 2
Fore
SplineSet
211 374 m 0
 174 374 142 380 120 397 c 1
 137 474 l 1
 161 453 191 444 221 444 c 0
 255 444 273 457 279 483 c 0
 284 507 272 519 234 519 c 2
 196 519 l 1
 210 583 l 1
 242 583 l 2
 279 583 296 597 301 620 c 0
 306 642 297 656 273 656 c 0
 250 656 228 646 201 627 c 1
 176 681 l 1
 212 707 251 723 296 723 c 0
 362 723 393 689 382 637 c 0
 373 597 350 570 316 557 c 1
 316 554 l 1
 352 543 365 518 356 475 c 0
 343 413 289 374 211 374 c 0
53 70 m 1
 560 621 l 1
 667 621 l 1
 161 70 l 1
 53 70 l 1
416 0 m 1
 429 63 l 1
 294 63 l 1
 308 125 l 1
 482 337 l 1
 566 337 l 1
 521 129 l 1
 569 129 l 1
 555 63 l 1
 507 63 l 1
 494 0 l 1
 416 0 l 1
376 129 m 1
 443 129 l 1
 458 196 l 2
 463 218 468 232 472 252 c 1
 462 235 447 216 437 204 c 2
 376 129 l 1
EndSplineSet
Validated: 33
EndChar

StartChar: questiondown
Encoding: 191 191 129
Width: 563
Flags: HW
LayerCount: 2
Fore
SplineSet
407 539 m 0
 461 539 485 509 474 455 c 0
 462 399 426 370 371 370 c 0
 318 370 294 400 306 455 c 0
 317 508 355 539 407 539 c 0
408 260 m 2
 393 191 361 152 294 105 c 0
 236 65 208 36 198 -11 c 0
 188 -56 211 -79 260 -79 c 0
 303 -79 349 -63 413 -32 c 1
 440 -135 l 1
 363 -175 297 -195 225 -195 c 0
 107 -195 38 -133 62 -20 c 0
 80 66 121 106 204 165 c 0
 261 206 281 224 291 269 c 2
 297 296 l 1
 416 296 l 1
 408 260 l 2
EndSplineSet
Validated: 33
Substitution2: "'smcp' Lowercase to Small Capitals lookup 35 subtable" questiondown.sc
Substitution2: "'c2sc' Capitals to Small Capitals lookup 34 subtable" questiondown.sc
Substitution2: "'aalt' Access All Alternates lookup 0 subtable" questiondown.sc
EndChar

StartChar: Agrave
Encoding: 192 192 130
Width: 563
GlyphClass: 2
Flags: HW
AnchorPoint: "Anchor-2" 695 714 basechar 0
AnchorPoint: "Anchor-1" 481 934 basechar 0
AnchorPoint: "Anchor-0" 282 0 basechar 0
LayerCount: 2
Fore
SplineSet
451 774 m 1
 418 806 352 888 331 925 c 1
 333 934 l 1
 484 934 l 1
 497 891 527 820 545 787 c 1
 543 774 l 1
 451 774 l 1
10 0 m 1
 341 717 l 1
 525 717 l 1
 553 0 l 1
 414 0 l 1
 412 176 l 1
 224 176 l 1
 148 0 l 1
 10 0 l 1
355 473 m 2
 277 295 l 1
 412 295 l 1
 410 472 l 2
 409 515 410 563 411 606 c 1
 394 563 373 513 355 473 c 2
EndSplineSet
Validated: 1048609
Substitution2: "'c2sc' Capitals to Small Capitals lookup 34 subtable" agrave.sc
Substitution2: "'aalt' Access All Alternates lookup 0 subtable" agrave.sc
EndChar

StartChar: Aacute
Encoding: 193 193 131
Width: 563
GlyphClass: 2
Flags: HW
AnchorPoint: "Anchor-2" 695 714 basechar 0
AnchorPoint: "Anchor-1" 481 934 basechar 0
AnchorPoint: "Anchor-0" 282 0 basechar 0
LayerCount: 2
Fore
SplineSet
382 787 m 1
 427 835 474 889 507 934 c 1
 659 934 l 1
 657 925 l 1
 618 887 529 814 473 774 c 1
 380 774 l 1
 382 787 l 1
10 0 m 1
 341 717 l 1
 525 717 l 1
 553 0 l 1
 414 0 l 1
 412 176 l 1
 224 176 l 1
 148 0 l 1
 10 0 l 1
355 473 m 2
 277 295 l 1
 412 295 l 1
 410 472 l 2
 409 515 410 563 411 606 c 1
 394 563 373 513 355 473 c 2
EndSplineSet
Validated: 1048609
Substitution2: "'c2sc' Capitals to Small Capitals lookup 34 subtable" aacute.sc
Substitution2: "'aalt' Access All Alternates lookup 0 subtable" aacute.sc
EndChar

StartChar: Acircumflex
Encoding: 194 194 132
Width: 563
GlyphClass: 2
Flags: HW
AnchorPoint: "Anchor-2" 695 714 basechar 0
AnchorPoint: "Anchor-1" 481 934 basechar 0
AnchorPoint: "Anchor-0" 282 0 basechar 0
LayerCount: 2
Fore
SplineSet
277 787 m 1
 319 826 383 894 414 934 c 1
 548 934 l 1
 563 890 593 832 620 787 c 1
 618 774 l 1
 535 774 l 1
 512 795 487 823 463 858 c 1
 425 823 388 793 359 774 c 1
 275 774 l 1
 277 787 l 1
10 0 m 1
 341 717 l 1
 525 717 l 1
 553 0 l 1
 414 0 l 1
 412 176 l 1
 224 176 l 1
 148 0 l 1
 10 0 l 1
355 473 m 2
 277 295 l 1
 412 295 l 1
 410 472 l 2
 409 515 410 563 411 606 c 1
 394 563 373 513 355 473 c 2
EndSplineSet
Validated: 1048609
Substitution2: "'c2sc' Capitals to Small Capitals lookup 34 subtable" acircumflex.sc
Substitution2: "'aalt' Access All Alternates lookup 0 subtable" acircumflex.sc
EndChar

StartChar: Atilde
Encoding: 195 195 133
Width: 563
GlyphClass: 2
Flags: HW
AnchorPoint: "Anchor-2" 695 714 basechar 0
AnchorPoint: "Anchor-1" 478 922 basechar 0
AnchorPoint: "Anchor-0" 282 0 basechar 0
LayerCount: 2
Fore
SplineSet
266 773 m 1
 287 849 331 921 400 921 c 0
 456 921 493 870 538 870 c 0
 561 870 573 888 587 922 c 1
 657 922 l 1
 633 826 580 774 524 774 c 0
 471 774 425 825 385 825 c 0
 363 825 350 809 337 773 c 1
 266 773 l 1
10 0 m 1
 341 717 l 1
 525 717 l 1
 553 0 l 1
 414 0 l 1
 412 176 l 1
 224 176 l 1
 148 0 l 1
 10 0 l 1
355 473 m 2
 277 295 l 1
 412 295 l 1
 410 472 l 2
 409 515 410 563 411 606 c 1
 394 563 373 513 355 473 c 2
EndSplineSet
Validated: 1048609
Substitution2: "'c2sc' Capitals to Small Capitals lookup 34 subtable" atilde.sc
Substitution2: "'aalt' Access All Alternates lookup 0 subtable" atilde.sc
EndChar

StartChar: Adieresis
Encoding: 196 196 134
Width: 563
GlyphClass: 2
Flags: HW
AnchorPoint: "Anchor-2" 695 714 basechar 0
AnchorPoint: "Anchor-1" 476 915 basechar 0
AnchorPoint: "Anchor-0" 282 0 basechar 0
LayerCount: 2
Fore
SplineSet
552 775 m 0
 513 775 491 800 501 846 c 0
 511 893 542 915 581 915 c 0
 620 915 645 891 635 846 c 0
 625 801 591 775 552 775 c 0
339 775 m 0
 301 775 278 799 288 846 c 0
 298 893 330 915 368 915 c 0
 407 915 431 891 421 846 c 0
 411 801 378 775 339 775 c 0
10 0 m 1
 341 717 l 1
 525 717 l 1
 553 0 l 1
 414 0 l 1
 412 176 l 1
 224 176 l 1
 148 0 l 1
 10 0 l 1
355 473 m 2
 277 295 l 1
 412 295 l 1
 410 472 l 2
 409 515 410 563 411 606 c 1
 394 563 373 513 355 473 c 2
EndSplineSet
Validated: 1048609
Substitution2: "'c2sc' Capitals to Small Capitals lookup 34 subtable" adieresis.sc
Substitution2: "'aalt' Access All Alternates lookup 0 subtable" adieresis.sc
EndChar

StartChar: Aring
Encoding: 197 197 135
Width: 563
GlyphClass: 2
Flags: HW
AnchorPoint: "Anchor-2" 695 714 basechar 0
AnchorPoint: "Anchor-1" 495 1002 basechar 0
AnchorPoint: "Anchor-0" 282 0 basechar 0
LayerCount: 2
Fore
SplineSet
446 774 m 0
 375 774 338 819 353 888 c 0
 368 957 423 1002 494 1002 c 0
 562 1002 602 956 588 889 c 0
 574 821 516 774 446 774 c 0
460 842 m 0
 486 842 511 860 517 888 c 0
 523 916 508 934 480 934 c 0
 453 934 429 916 423 888 c 0
 417 860 430 842 460 842 c 0
10 0 m 1
 341 717 l 1
 525 717 l 1
 553 0 l 1
 414 0 l 1
 412 176 l 1
 224 176 l 1
 148 0 l 1
 10 0 l 1
355 473 m 2
 277 295 l 1
 412 295 l 1
 410 472 l 2
 409 515 410 563 411 606 c 1
 394 563 373 513 355 473 c 2
EndSplineSet
Validated: 1048609
Substitution2: "'c2sc' Capitals to Small Capitals lookup 34 subtable" aring.sc
Substitution2: "'aalt' Access All Alternates lookup 0 subtable" aring.sc
EndChar

StartChar: AE
Encoding: 198 198 136
Width: 563
GlyphClass: 2
Flags: HW
AnchorPoint: "Anchor-1" 465 714 basechar 0
AnchorPoint: "Anchor-0" 282 0 basechar 0
LayerCount: 2
Fore
SplineSet
10 0 m 1
 319 714 l 1
 689 714 l 1
 663 592 l 1
 539 592 l 1
 505 433 l 1
 612 433 l 1
 586 310 l 1
 479 310 l 1
 439 122 l 1
 563 122 l 1
 537 0 l 1
 291 0 l 1
 328 176 l 1
 215 176 l 1
 143 0 l 1
 10 0 l 1
388 595 m 1
 265 298 l 1
 354 298 l 1
 417 595 l 1
 388 595 l 1
EndSplineSet
Validated: 1048577
Substitution2: "'c2sc' Capitals to Small Capitals lookup 34 subtable" ae.sc
Substitution2: "'aalt' Access All Alternates lookup 0 subtable" ae.sc
EndChar

StartChar: Ccedilla
Encoding: 199 199 137
Width: 563
GlyphClass: 2
Flags: HW
AnchorPoint: "Anchor-2" 695 714 basechar 0
AnchorPoint: "Anchor-1" 488 714 basechar 0
AnchorPoint: "Anchor-0" 261 -240 basechar 0
LayerCount: 2
Fore
SplineSet
242 -240 m 0
 217 -240 192 -237 174 -231 c 1
 189 -158 l 1
 205 -164 223 -166 238 -166 c 0
 270 -166 293 -155 299 -127 c 0
 305 -98 284 -85 236 -80 c 1
 281 -8 l 1
 127 16 77 148 119 347 c 0
 167 575 311 725 515 725 c 0
 580 725 629 710 676 682 c 1
 607 567 l 1
 567 590 530 600 490 600 c 0
 364 600 292 498 261 351 c 0
 227 190 267 113 383 113 c 0
 430 113 473 124 535 151 c 1
 508 24 l 1
 458 3 406 -9 354 -11 c 1
 338 -38 l 1
 386 -50 410 -81 398 -136 c 0
 385 -198 336 -240 242 -240 c 0
EndSplineSet
Validated: 1048609
Substitution2: "'c2sc' Capitals to Small Capitals lookup 34 subtable" ccedilla.sc
Substitution2: "'aalt' Access All Alternates lookup 0 subtable" ccedilla.sc
EndChar

StartChar: Egrave
Encoding: 200 200 138
Width: 563
GlyphClass: 2
Flags: HW
AnchorPoint: "Anchor-2" 695 714 basechar 0
AnchorPoint: "Anchor-1" 481 934 basechar 0
AnchorPoint: "Anchor-0" 282 0 basechar 0
LayerCount: 2
Fore
SplineSet
457 774 m 1
 423 806 358 888 336 925 c 1
 338 934 l 1
 490 934 l 1
 503 891 533 820 551 787 c 1
 549 774 l 1
 457 774 l 1
71 0 m 1
 223 714 l 1
 653 714 l 1
 627 591 l 1
 332 591 l 1
 297 429 l 1
 576 429 l 1
 550 306 l 1
 271 306 l 1
 232 123 l 1
 527 123 l 1
 501 0 l 1
 71 0 l 1
EndSplineSet
Validated: 1048577
Substitution2: "'c2sc' Capitals to Small Capitals lookup 34 subtable" egrave.sc
Substitution2: "'aalt' Access All Alternates lookup 0 subtable" egrave.sc
EndChar

StartChar: Eacute
Encoding: 201 201 139
Width: 563
GlyphClass: 2
Flags: HW
AnchorPoint: "Anchor-2" 695 714 basechar 0
AnchorPoint: "Anchor-1" 481 934 basechar 0
AnchorPoint: "Anchor-0" 282 0 basechar 0
LayerCount: 2
Fore
SplineSet
388 787 m 1
 432 835 479 889 513 934 c 1
 665 934 l 1
 663 925 l 1
 624 887 535 814 478 774 c 1
 386 774 l 1
 388 787 l 1
71 0 m 1
 223 714 l 1
 653 714 l 1
 627 591 l 1
 332 591 l 1
 297 429 l 1
 576 429 l 1
 550 306 l 1
 271 306 l 1
 232 123 l 1
 527 123 l 1
 501 0 l 1
 71 0 l 1
EndSplineSet
Validated: 1048577
Substitution2: "'c2sc' Capitals to Small Capitals lookup 34 subtable" eacute.sc
Substitution2: "'aalt' Access All Alternates lookup 0 subtable" eacute.sc
EndChar

StartChar: Ecircumflex
Encoding: 202 202 140
Width: 563
GlyphClass: 2
Flags: HW
AnchorPoint: "Anchor-2" 695 714 basechar 0
AnchorPoint: "Anchor-1" 481 934 basechar 0
AnchorPoint: "Anchor-0" 282 0 basechar 0
LayerCount: 2
Fore
SplineSet
283 787 m 1
 324 826 389 894 420 934 c 1
 554 934 l 1
 569 890 599 832 625 787 c 1
 623 774 l 1
 541 774 l 1
 518 795 492 823 469 858 c 1
 431 823 394 793 365 774 c 1
 281 774 l 1
 283 787 l 1
71 0 m 1
 223 714 l 1
 653 714 l 1
 627 591 l 1
 332 591 l 1
 297 429 l 1
 576 429 l 1
 550 306 l 1
 271 306 l 1
 232 123 l 1
 527 123 l 1
 501 0 l 1
 71 0 l 1
EndSplineSet
Validated: 1048577
Substitution2: "'c2sc' Capitals to Small Capitals lookup 34 subtable" ecircumflex.sc
Substitution2: "'aalt' Access All Alternates lookup 0 subtable" ecircumflex.sc
EndChar

StartChar: Edieresis
Encoding: 203 203 141
Width: 563
GlyphClass: 2
Flags: HW
AnchorPoint: "Anchor-2" 695 714 basechar 0
AnchorPoint: "Anchor-1" 479 915 basechar 0
AnchorPoint: "Anchor-0" 282 0 basechar 0
LayerCount: 2
Fore
SplineSet
558 775 m 0
 519 775 496 800 506 846 c 0
 516 893 548 915 587 915 c 0
 626 915 651 891 641 846 c 0
 631 801 597 775 558 775 c 0
345 775 m 0
 306 775 283 799 293 846 c 0
 303 893 335 915 374 915 c 0
 412 915 437 891 427 846 c 0
 417 801 383 775 345 775 c 0
71 0 m 1
 223 714 l 1
 653 714 l 1
 627 591 l 1
 332 591 l 1
 297 429 l 1
 576 429 l 1
 550 306 l 1
 271 306 l 1
 232 123 l 1
 527 123 l 1
 501 0 l 1
 71 0 l 1
EndSplineSet
Validated: 1048609
Substitution2: "'c2sc' Capitals to Small Capitals lookup 34 subtable" edieresis.sc
Substitution2: "'aalt' Access All Alternates lookup 0 subtable" edieresis.sc
EndChar

StartChar: Igrave
Encoding: 204 204 142
Width: 563
GlyphClass: 2
Flags: HW
AnchorPoint: "Anchor-2" 695 714 basechar 0
AnchorPoint: "Anchor-1" 481 934 basechar 0
AnchorPoint: "Anchor-0" 282 0 basechar 0
LayerCount: 2
Fore
SplineSet
451 774 m 1
 418 806 352 888 331 925 c 1
 333 934 l 1
 484 934 l 1
 497 891 527 820 545 787 c 1
 543 774 l 1
 451 774 l 1
79 0 m 1
 100 100 l 1
 238 115 l 1
 342 600 l 1
 210 614 l 1
 231 714 l 1
 636 714 l 1
 615 614 l 1
 475 600 l 1
 371 115 l 1
 505 100 l 1
 484 0 l 1
 79 0 l 1
EndSplineSet
Validated: 1048577
Substitution2: "'c2sc' Capitals to Small Capitals lookup 34 subtable" igrave.sc
Substitution2: "'aalt' Access All Alternates lookup 0 subtable" igrave.sc
EndChar

StartChar: Iacute
Encoding: 205 205 143
Width: 563
GlyphClass: 2
Flags: HW
AnchorPoint: "Anchor-2" 695 714 basechar 0
AnchorPoint: "Anchor-1" 481 934 basechar 0
AnchorPoint: "Anchor-0" 282 0 basechar 0
LayerCount: 2
Fore
SplineSet
382 787 m 1
 427 835 474 889 507 934 c 1
 659 934 l 1
 657 925 l 1
 618 887 529 814 473 774 c 1
 380 774 l 1
 382 787 l 1
79 0 m 1
 100 100 l 1
 238 115 l 1
 342 600 l 1
 210 614 l 1
 231 714 l 1
 636 714 l 1
 615 614 l 1
 475 600 l 1
 371 115 l 1
 505 100 l 1
 484 0 l 1
 79 0 l 1
EndSplineSet
Validated: 1048577
Substitution2: "'c2sc' Capitals to Small Capitals lookup 34 subtable" iacute.sc
Substitution2: "'aalt' Access All Alternates lookup 0 subtable" iacute.sc
EndChar

StartChar: Icircumflex
Encoding: 206 206 144
Width: 563
GlyphClass: 2
Flags: HW
AnchorPoint: "Anchor-2" 695 714 basechar 0
AnchorPoint: "Anchor-1" 481 934 basechar 0
AnchorPoint: "Anchor-0" 282 0 basechar 0
LayerCount: 2
Fore
SplineSet
277 787 m 1
 319 826 383 894 414 934 c 1
 548 934 l 1
 563 890 593 832 620 787 c 1
 618 774 l 1
 535 774 l 1
 512 795 487 823 463 858 c 1
 425 823 388 793 359 774 c 1
 275 774 l 1
 277 787 l 1
79 0 m 1
 100 100 l 1
 238 115 l 1
 342 600 l 1
 210 614 l 1
 231 714 l 1
 636 714 l 1
 615 614 l 1
 475 600 l 1
 371 115 l 1
 505 100 l 1
 484 0 l 1
 79 0 l 1
EndSplineSet
Validated: 1048577
Substitution2: "'c2sc' Capitals to Small Capitals lookup 34 subtable" icircumflex.sc
Substitution2: "'aalt' Access All Alternates lookup 0 subtable" icircumflex.sc
EndChar

StartChar: Idieresis
Encoding: 207 207 145
Width: 563
GlyphClass: 2
Flags: HW
AnchorPoint: "Anchor-2" 695 714 basechar 0
AnchorPoint: "Anchor-1" 476 915 basechar 0
AnchorPoint: "Anchor-0" 282 0 basechar 0
LayerCount: 2
Fore
SplineSet
552 775 m 0
 513 775 491 800 501 846 c 0
 511 893 542 915 581 915 c 0
 620 915 645 891 635 846 c 0
 625 801 591 775 552 775 c 0
339 775 m 0
 301 775 278 799 288 846 c 0
 298 893 330 915 368 915 c 0
 407 915 431 891 421 846 c 0
 411 801 378 775 339 775 c 0
79 0 m 1
 100 100 l 1
 238 115 l 1
 342 600 l 1
 210 614 l 1
 231 714 l 1
 636 714 l 1
 615 614 l 1
 475 600 l 1
 371 115 l 1
 505 100 l 1
 484 0 l 1
 79 0 l 1
EndSplineSet
Validated: 1048609
Substitution2: "'c2sc' Capitals to Small Capitals lookup 34 subtable" idieresis.sc
Substitution2: "'aalt' Access All Alternates lookup 0 subtable" idieresis.sc
EndChar

StartChar: Eth
Encoding: 208 208 146
Width: 563
GlyphClass: 2
Flags: HW
AnchorPoint: "Anchor-3" 366 357 basechar 0
AnchorPoint: "Anchor-2" 719 714 basechar 0
AnchorPoint: "Anchor-1" 434 714 basechar 0
AnchorPoint: "Anchor-0" 282 0 basechar 0
LayerCount: 2
Fore
SplineSet
45 0 m 1
 109 303 l 1
 64 303 l 1
 88 414 l 1
 133 414 l 1
 197 714 l 1
 404 714 l 2
 583 714 667 594 619 366 c 0
 569 130 429 0 242 0 c 2
 45 0 l 1
260 122 m 2
 373 122 441 200 476 363 c 0
 510 523 473 592 370 592 c 2
 309 592 l 1
 271 414 l 1
 368 414 l 1
 344 303 l 1
 247 303 l 1
 209 122 l 1
 260 122 l 2
EndSplineSet
Validated: 33
Substitution2: "'c2sc' Capitals to Small Capitals lookup 34 subtable" eth.sc
Substitution2: "'aalt' Access All Alternates lookup 0 subtable" eth.sc
EndChar

StartChar: Ntilde
Encoding: 209 209 147
Width: 563
GlyphClass: 2
Flags: HW
AnchorPoint: "Anchor-2" 715 714 basechar 0
AnchorPoint: "Anchor-1" 478 922 basechar 0
AnchorPoint: "Anchor-0" 282 0 basechar 0
LayerCount: 2
Fore
SplineSet
271 773 m 1
 292 849 336 921 405 921 c 0
 461 921 498 870 543 870 c 0
 566 870 578 888 592 922 c 1
 662 922 l 1
 638 826 585 774 529 774 c 0
 476 774 430 825 390 825 c 0
 368 825 355 809 342 773 c 1
 271 773 l 1
41 0 m 1
 193 714 l 1
 390 714 l 1
 430 137 l 1
 435 137 l 1
 447 221 464 332 475 382 c 2
 546 714 l 1
 674 714 l 1
 522 0 l 1
 327 0 l 1
 286 581 l 1
 281 581 l 1
 269 494 253 399 244 355 c 2
 169 0 l 1
 41 0 l 1
EndSplineSet
Validated: 1048577
Substitution2: "'c2sc' Capitals to Small Capitals lookup 34 subtable" ntilde.sc
Substitution2: "'aalt' Access All Alternates lookup 0 subtable" ntilde.sc
EndChar

StartChar: Ograve
Encoding: 210 210 148
Width: 563
GlyphClass: 2
Flags: HW
AnchorPoint: "Anchor-3" 358 357 basechar 0
AnchorPoint: "Anchor-2" 715 714 basechar 0
AnchorPoint: "Anchor-1" 481 934 basechar 0
AnchorPoint: "Anchor-0" 282 0 basechar 0
LayerCount: 2
Fore
SplineSet
451 774 m 1
 418 806 352 888 331 925 c 1
 333 934 l 1
 484 934 l 1
 497 891 527 820 545 787 c 1
 543 774 l 1
 451 774 l 1
280 -9 m 0
 104 -9 54 131 102 358 c 0
 152 593 263 726 436 726 c 0
 611 726 662 587 613 358 c 0
 565 130 455 -9 280 -9 c 0
306 113 m 0
 385 113 436 196 471 359 c 0
 505 521 490 604 410 604 c 0
 330 604 278 518 244 358 c 0
 210 198 225 113 306 113 c 0
EndSplineSet
Validated: 33
Substitution2: "'c2sc' Capitals to Small Capitals lookup 34 subtable" ograve.sc
Substitution2: "'aalt' Access All Alternates lookup 0 subtable" ograve.sc
EndChar

StartChar: Oacute
Encoding: 211 211 149
Width: 563
GlyphClass: 2
Flags: HW
AnchorPoint: "Anchor-3" 358 357 basechar 0
AnchorPoint: "Anchor-2" 715 714 basechar 0
AnchorPoint: "Anchor-1" 481 934 basechar 0
AnchorPoint: "Anchor-0" 282 0 basechar 0
LayerCount: 2
Fore
SplineSet
382 787 m 1
 427 835 474 889 507 934 c 1
 659 934 l 1
 657 925 l 1
 618 887 529 814 473 774 c 1
 380 774 l 1
 382 787 l 1
280 -9 m 0
 104 -9 54 131 102 358 c 0
 152 593 263 726 436 726 c 0
 611 726 662 587 613 358 c 0
 565 130 455 -9 280 -9 c 0
306 113 m 0
 385 113 436 196 471 359 c 0
 505 521 490 604 410 604 c 0
 330 604 278 518 244 358 c 0
 210 198 225 113 306 113 c 0
EndSplineSet
Validated: 33
Substitution2: "'c2sc' Capitals to Small Capitals lookup 34 subtable" oacute.sc
Substitution2: "'aalt' Access All Alternates lookup 0 subtable" oacute.sc
EndChar

StartChar: Ocircumflex
Encoding: 212 212 150
Width: 563
GlyphClass: 2
Flags: HW
AnchorPoint: "Anchor-3" 358 357 basechar 0
AnchorPoint: "Anchor-2" 715 714 basechar 0
AnchorPoint: "Anchor-1" 481 934 basechar 0
AnchorPoint: "Anchor-0" 282 0 basechar 0
LayerCount: 2
Fore
SplineSet
277 787 m 1
 319 826 383 894 414 934 c 1
 548 934 l 1
 563 890 593 832 620 787 c 1
 618 774 l 1
 535 774 l 1
 512 795 487 823 463 858 c 1
 425 823 388 793 359 774 c 1
 275 774 l 1
 277 787 l 1
280 -9 m 0
 104 -9 54 131 102 358 c 0
 152 593 263 726 436 726 c 0
 611 726 662 587 613 358 c 0
 565 130 455 -9 280 -9 c 0
306 113 m 0
 385 113 436 196 471 359 c 0
 505 521 490 604 410 604 c 0
 330 604 278 518 244 358 c 0
 210 198 225 113 306 113 c 0
EndSplineSet
Validated: 33
Substitution2: "'c2sc' Capitals to Small Capitals lookup 34 subtable" ocircumflex.sc
Substitution2: "'aalt' Access All Alternates lookup 0 subtable" ocircumflex.sc
EndChar

StartChar: Otilde
Encoding: 213 213 151
Width: 563
GlyphClass: 2
Flags: HW
AnchorPoint: "Anchor-3" 358 357 basechar 0
AnchorPoint: "Anchor-2" 715 714 basechar 0
AnchorPoint: "Anchor-1" 478 922 basechar 0
AnchorPoint: "Anchor-0" 282 0 basechar 0
LayerCount: 2
Fore
SplineSet
266 773 m 1
 287 849 331 921 400 921 c 0
 456 921 493 870 538 870 c 0
 561 870 573 888 587 922 c 1
 657 922 l 1
 633 826 580 774 524 774 c 0
 471 774 425 825 385 825 c 0
 363 825 350 809 337 773 c 1
 266 773 l 1
280 -9 m 0
 104 -9 54 131 102 358 c 0
 152 593 263 726 436 726 c 0
 611 726 662 587 613 358 c 0
 565 130 455 -9 280 -9 c 0
306 113 m 0
 385 113 436 196 471 359 c 0
 505 521 490 604 410 604 c 0
 330 604 278 518 244 358 c 0
 210 198 225 113 306 113 c 0
EndSplineSet
Validated: 33
Substitution2: "'c2sc' Capitals to Small Capitals lookup 34 subtable" otilde.sc
Substitution2: "'aalt' Access All Alternates lookup 0 subtable" otilde.sc
EndChar

StartChar: Odieresis
Encoding: 214 214 152
Width: 563
GlyphClass: 2
Flags: HW
AnchorPoint: "Anchor-3" 358 357 basechar 0
AnchorPoint: "Anchor-2" 715 714 basechar 0
AnchorPoint: "Anchor-1" 476 915 basechar 0
AnchorPoint: "Anchor-0" 282 0 basechar 0
LayerCount: 2
Fore
SplineSet
552 775 m 0
 513 775 491 800 501 846 c 0
 511 893 542 915 581 915 c 0
 620 915 645 891 635 846 c 0
 625 801 591 775 552 775 c 0
339 775 m 0
 301 775 278 799 288 846 c 0
 298 893 330 915 368 915 c 0
 407 915 431 891 421 846 c 0
 411 801 378 775 339 775 c 0
280 -9 m 0
 104 -9 54 131 102 358 c 0
 152 593 263 726 436 726 c 0
 611 726 662 587 613 358 c 0
 565 130 455 -9 280 -9 c 0
306 113 m 0
 385 113 436 196 471 359 c 0
 505 521 490 604 410 604 c 0
 330 604 278 518 244 358 c 0
 210 198 225 113 306 113 c 0
EndSplineSet
Validated: 33
Substitution2: "'c2sc' Capitals to Small Capitals lookup 34 subtable" odieresis.sc
Substitution2: "'aalt' Access All Alternates lookup 0 subtable" odieresis.sc
EndChar

StartChar: multiply
Encoding: 215 215 153
Width: 563
Flags: HW
LayerCount: 2
Fore
SplineSet
172 141 m 1
 116 216 l 1
 281 353 l 1
 173 490 l 1
 262 565 l 1
 372 429 l 1
 540 565 l 1
 599 492 l 1
 430 353 l 1
 538 215 l 1
 449 141 l 1
 340 279 l 1
 172 141 l 1
EndSplineSet
Validated: 1
EndChar

StartChar: Oslash
Encoding: 216 216 154
Width: 563
GlyphClass: 2
Flags: HW
AnchorPoint: "Anchor-3" 358 357 basechar 0
AnchorPoint: "Anchor-2" 715 714 basechar 0
AnchorPoint: "Anchor-1" 434 714 basechar 0
AnchorPoint: "Anchor-0" 282 0 basechar 0
LayerCount: 2
Fore
SplineSet
79 -46 m 1
 16 -2 l 1
 102 103 l 1
 79 166 79 252 102 358 c 0
 152 593 263 726 436 726 c 0
 496 726 542 710 573 679 c 1
 633 752 l 1
 696 709 l 1
 616 611 l 1
 637 548 635 463 613 358 c 0
 565 130 455 -9 280 -9 c 0
 221 -9 177 6 145 35 c 1
 79 -46 l 1
244 358 m 0
 236 321 231 287 229 258 c 1
 477 562 l 1
 465 590 443 604 410 604 c 0
 330 604 278 518 244 358 c 0
306 113 m 0
 385 113 436 196 471 359 c 0
 478 394 484 425 486 453 c 1
 240 151 l 1
 253 126 274 113 306 113 c 0
EndSplineSet
Validated: 33
Substitution2: "'c2sc' Capitals to Small Capitals lookup 34 subtable" oslash.sc
Substitution2: "'aalt' Access All Alternates lookup 0 subtable" oslash.sc
EndChar

StartChar: Ugrave
Encoding: 217 217 155
Width: 563
GlyphClass: 2
Flags: HW
AnchorPoint: "Anchor-2" 695 714 basechar 0
AnchorPoint: "Anchor-1" 481 934 basechar 0
AnchorPoint: "Anchor-0" 282 0 basechar 0
LayerCount: 2
Fore
SplineSet
451 774 m 1
 418 806 352 888 331 925 c 1
 333 934 l 1
 484 934 l 1
 497 891 527 820 545 787 c 1
 543 774 l 1
 451 774 l 1
277 -10 m 0
 122 -10 57 77 90 231 c 2
 193 714 l 1
 332 714 l 1
 234 255 l 2
 212 152 237 112 305 112 c 0
 377 112 415 153 437 256 c 2
 535 714 l 1
 674 714 l 1
 571 229 l 2
 540 82 439 -10 277 -10 c 0
EndSplineSet
Validated: 1048609
Substitution2: "'c2sc' Capitals to Small Capitals lookup 34 subtable" ugrave.sc
Substitution2: "'aalt' Access All Alternates lookup 0 subtable" ugrave.sc
EndChar

StartChar: Uacute
Encoding: 218 218 156
Width: 563
GlyphClass: 2
Flags: HW
AnchorPoint: "Anchor-2" 695 714 basechar 0
AnchorPoint: "Anchor-1" 481 934 basechar 0
AnchorPoint: "Anchor-0" 282 0 basechar 0
LayerCount: 2
Fore
SplineSet
382 787 m 1
 427 835 474 889 507 934 c 1
 659 934 l 1
 657 925 l 1
 618 887 529 814 473 774 c 1
 380 774 l 1
 382 787 l 1
277 -10 m 0
 122 -10 57 77 90 231 c 2
 193 714 l 1
 332 714 l 1
 234 255 l 2
 212 152 237 112 305 112 c 0
 377 112 415 153 437 256 c 2
 535 714 l 1
 674 714 l 1
 571 229 l 2
 540 82 439 -10 277 -10 c 0
EndSplineSet
Validated: 1048609
Substitution2: "'c2sc' Capitals to Small Capitals lookup 34 subtable" uacute.sc
Substitution2: "'aalt' Access All Alternates lookup 0 subtable" uacute.sc
EndChar

StartChar: Ucircumflex
Encoding: 219 219 157
Width: 563
GlyphClass: 2
Flags: HW
AnchorPoint: "Anchor-2" 695 714 basechar 0
AnchorPoint: "Anchor-1" 481 934 basechar 0
AnchorPoint: "Anchor-0" 282 0 basechar 0
LayerCount: 2
Fore
SplineSet
277 787 m 1
 319 826 383 894 414 934 c 1
 548 934 l 1
 563 890 593 832 620 787 c 1
 618 774 l 1
 535 774 l 1
 512 795 487 823 463 858 c 1
 425 823 388 793 359 774 c 1
 275 774 l 1
 277 787 l 1
277 -10 m 0
 122 -10 57 77 90 231 c 2
 193 714 l 1
 332 714 l 1
 234 255 l 2
 212 152 237 112 305 112 c 0
 377 112 415 153 437 256 c 2
 535 714 l 1
 674 714 l 1
 571 229 l 2
 540 82 439 -10 277 -10 c 0
EndSplineSet
Validated: 1048609
Substitution2: "'c2sc' Capitals to Small Capitals lookup 34 subtable" ucircumflex.sc
Substitution2: "'aalt' Access All Alternates lookup 0 subtable" ucircumflex.sc
EndChar

StartChar: Udieresis
Encoding: 220 220 158
Width: 563
GlyphClass: 2
Flags: HW
AnchorPoint: "Anchor-2" 695 714 basechar 0
AnchorPoint: "Anchor-1" 476 915 basechar 0
AnchorPoint: "Anchor-0" 282 0 basechar 0
LayerCount: 2
Fore
SplineSet
552 775 m 0
 513 775 491 800 501 846 c 0
 511 893 542 915 581 915 c 0
 620 915 645 891 635 846 c 0
 625 801 591 775 552 775 c 0
339 775 m 0
 301 775 278 799 288 846 c 0
 298 893 330 915 368 915 c 0
 407 915 431 891 421 846 c 0
 411 801 378 775 339 775 c 0
277 -10 m 0
 122 -10 57 77 90 231 c 2
 193 714 l 1
 332 714 l 1
 234 255 l 2
 212 152 237 112 305 112 c 0
 377 112 415 153 437 256 c 2
 535 714 l 1
 674 714 l 1
 571 229 l 2
 540 82 439 -10 277 -10 c 0
EndSplineSet
Validated: 1048609
Substitution2: "'c2sc' Capitals to Small Capitals lookup 34 subtable" udieresis.sc
Substitution2: "'aalt' Access All Alternates lookup 0 subtable" udieresis.sc
EndChar

StartChar: Yacute
Encoding: 221 221 159
Width: 563
GlyphClass: 2
Flags: HW
AnchorPoint: "Anchor-2" 695 714 basechar 0
AnchorPoint: "Anchor-1" 481 934 basechar 0
AnchorPoint: "Anchor-0" 282 0 basechar 0
LayerCount: 2
Fore
SplineSet
382 787 m 1
 427 835 474 889 507 934 c 1
 659 934 l 1
 657 925 l 1
 618 887 529 814 473 774 c 1
 380 774 l 1
 382 787 l 1
213 0 m 1
 272 277 l 1
 168 714 l 1
 319 714 l 1
 371 412 l 1
 548 714 l 1
 699 714 l 1
 410 277 l 1
 351 0 l 1
 213 0 l 1
EndSplineSet
Validated: 1048577
Substitution2: "'c2sc' Capitals to Small Capitals lookup 34 subtable" yacute.sc
Substitution2: "'aalt' Access All Alternates lookup 0 subtable" yacute.sc
EndChar

StartChar: Thorn
Encoding: 222 222 160
Width: 563
GlyphClass: 2
Flags: HW
AnchorPoint: "Anchor-1" 434 714 basechar 0
AnchorPoint: "Anchor-0" 282 0 basechar 0
LayerCount: 2
Fore
SplineSet
71 0 m 1
 223 714 l 1
 358 714 l 1
 332 594 l 1
 419 594 l 2
 576 594 635 515 605 372 c 0
 575 229 481 134 313 134 c 2
 234 134 l 1
 206 0 l 1
 71 0 l 1
324 256 m 2
 400 256 449 292 465 368 c 0
 480 440 454 473 386 473 c 2
 307 473 l 1
 260 256 l 1
 324 256 l 2
EndSplineSet
Validated: 1048609
Substitution2: "'c2sc' Capitals to Small Capitals lookup 34 subtable" thorn.sc
Substitution2: "'aalt' Access All Alternates lookup 0 subtable" thorn.sc
EndChar

StartChar: germandbls
Encoding: 223 223 161
Width: 563
GlyphClass: 2
Flags: HW
AnchorPoint: "Anchor-1" 445 765 basechar 0
AnchorPoint: "Anchor-0" 282 0 basechar 0
LayerCount: 2
Fore
SplineSet
350 -10 m 0
 306 -10 264 -2 232 19 c 1
 258 140 l 1
 284 117 322 100 360 100 c 0
 401 100 427 120 435 158 c 0
 442 193 428 207 381 249 c 0
 336 289 310 328 323 387 c 0
 345 492 457 504 475 587 c 0
 484 630 458 652 413 652 c 0
 352 652 315 614 300 544 c 2
 184 0 l 1
 50 0 l 1
 168 554 l 2
 197 689 298 765 435 765 c 0
 557 765 634 705 612 600 c 0
 587 484 471 457 460 404 c 0
 454 375 481 353 513 323 c 0
 562 274 588 239 571 160 c 0
 548 51 471 -10 350 -10 c 0
EndSplineSet
Validated: 1048609
Substitution2: "'smcp' Lowercase to Small Capitals lookup 35 subtable" germandbls.sc
Substitution2: "'aalt' Access All Alternates lookup 0 subtable" germandbls.sc
EndChar

StartChar: agrave
Encoding: 224 224 162
Width: 563
GlyphClass: 2
Flags: HW
AnchorPoint: "Anchor-2" 659 546 basechar 0
AnchorPoint: "Anchor-1" 445 766 basechar 0
AnchorPoint: "Anchor-0" 282 0 basechar 0
LayerCount: 2
Fore
SplineSet
426 606 m 1
 392 638 327 720 305 757 c 1
 307 766 l 1
 459 766 l 1
 472 723 502 652 521 619 c 1
 518 606 l 1
 426 606 l 1
211 -10 m 0
 105 -10 62 55 84 158 c 0
 109 277 193 332 334 336 c 2
 443 339 l 1
 448 362 l 2
 459 414 431 440 363 440 c 0
 322 440 274 431 213 407 c 1
 187 508 l 1
 257 541 322 556 395 556 c 0
 543 556 608 493 581 364 c 2
 504 0 l 1
 401 0 l 1
 391 70 l 1
 388 70 l 1
 328 11 272 -10 211 -10 c 0
284 105 m 0
 344 105 401 144 415 208 c 2
 425 253 l 1
 353 251 l 2
 280 249 235 223 224 170 c 0
 214 125 242 105 284 105 c 0
EndSplineSet
Validated: 1048609
Substitution2: "'smcp' Lowercase to Small Capitals lookup 35 subtable" agrave.sc
Substitution2: "'aalt' Access All Alternates lookup 0 subtable" agrave.sc
EndChar

StartChar: aacute
Encoding: 225 225 163
Width: 563
GlyphClass: 2
Flags: HW
AnchorPoint: "Anchor-2" 659 546 basechar 0
AnchorPoint: "Anchor-1" 445 766 basechar 0
AnchorPoint: "Anchor-0" 282 0 basechar 0
LayerCount: 2
Fore
SplineSet
358 619 m 1
 402 667 448 721 482 766 c 1
 634 766 l 1
 632 757 l 1
 593 719 504 646 447 606 c 1
 355 606 l 1
 358 619 l 1
211 -10 m 0
 105 -10 62 55 84 158 c 0
 109 277 193 332 334 336 c 2
 443 339 l 1
 448 362 l 2
 459 414 431 440 363 440 c 0
 322 440 274 431 213 407 c 1
 187 508 l 1
 257 541 322 556 395 556 c 0
 543 556 608 493 581 364 c 2
 504 0 l 1
 401 0 l 1
 391 70 l 1
 388 70 l 1
 328 11 272 -10 211 -10 c 0
284 105 m 0
 344 105 401 144 415 208 c 2
 425 253 l 1
 353 251 l 2
 280 249 235 223 224 170 c 0
 214 125 242 105 284 105 c 0
EndSplineSet
Validated: 1048609
Substitution2: "'smcp' Lowercase to Small Capitals lookup 35 subtable" aacute.sc
Substitution2: "'aalt' Access All Alternates lookup 0 subtable" aacute.sc
EndChar

StartChar: acircumflex
Encoding: 226 226 164
Width: 563
GlyphClass: 2
Flags: HW
AnchorPoint: "Anchor-2" 659 546 basechar 0
AnchorPoint: "Anchor-1" 445 766 basechar 0
AnchorPoint: "Anchor-0" 282 0 basechar 0
LayerCount: 2
Fore
SplineSet
253 619 m 1
 294 658 358 726 388 766 c 1
 523 766 l 1
 538 722 569 664 595 619 c 1
 592 606 l 1
 510 606 l 1
 486 627 462 655 439 690 c 1
 401 655 363 625 333 606 c 1
 250 606 l 1
 253 619 l 1
211 -10 m 0
 105 -10 62 55 84 158 c 0
 109 277 193 332 334 336 c 2
 443 339 l 1
 448 362 l 2
 459 414 431 440 363 440 c 0
 322 440 274 431 213 407 c 1
 187 508 l 1
 257 541 322 556 395 556 c 0
 543 556 608 493 581 364 c 2
 504 0 l 1
 401 0 l 1
 391 70 l 1
 388 70 l 1
 328 11 272 -10 211 -10 c 0
284 105 m 0
 344 105 401 144 415 208 c 2
 425 253 l 1
 353 251 l 2
 280 249 235 223 224 170 c 0
 214 125 242 105 284 105 c 0
EndSplineSet
Validated: 1048609
Substitution2: "'smcp' Lowercase to Small Capitals lookup 35 subtable" acircumflex.sc
Substitution2: "'aalt' Access All Alternates lookup 0 subtable" acircumflex.sc
EndChar

StartChar: atilde
Encoding: 227 227 165
Width: 563
GlyphClass: 2
Flags: HW
AnchorPoint: "Anchor-2" 659 546 basechar 0
AnchorPoint: "Anchor-1" 442 754 basechar 0
AnchorPoint: "Anchor-0" 282 0 basechar 0
LayerCount: 2
Fore
SplineSet
242 605 m 1
 262 681 305 753 374 753 c 0
 430 753 468 702 513 702 c 0
 536 702 548 720 561 754 c 1
 632 754 l 1
 608 658 554 606 499 606 c 0
 446 606 400 657 360 657 c 0
 339 657 326 641 312 605 c 1
 242 605 l 1
211 -10 m 0
 105 -10 62 55 84 158 c 0
 109 277 193 332 334 336 c 2
 443 339 l 1
 448 362 l 2
 459 414 431 440 363 440 c 0
 322 440 274 431 213 407 c 1
 187 508 l 1
 257 541 322 556 395 556 c 0
 543 556 608 493 581 364 c 2
 504 0 l 1
 401 0 l 1
 391 70 l 1
 388 70 l 1
 328 11 272 -10 211 -10 c 0
284 105 m 0
 344 105 401 144 415 208 c 2
 425 253 l 1
 353 251 l 2
 280 249 235 223 224 170 c 0
 214 125 242 105 284 105 c 0
EndSplineSet
Validated: 1048609
Substitution2: "'smcp' Lowercase to Small Capitals lookup 35 subtable" atilde.sc
Substitution2: "'aalt' Access All Alternates lookup 0 subtable" atilde.sc
EndChar

StartChar: adieresis
Encoding: 228 228 166
Width: 563
GlyphClass: 2
Flags: HW
AnchorPoint: "Anchor-2" 659 546 basechar 0
AnchorPoint: "Anchor-1" 448 747 basechar 0
AnchorPoint: "Anchor-0" 282 0 basechar 0
LayerCount: 2
Fore
SplineSet
527 607 m 0
 488 607 465 632 475 678 c 0
 485 725 518 747 557 747 c 0
 596 747 620 723 610 678 c 0
 600 633 566 607 527 607 c 0
313 607 m 0
 275 607 252 631 262 678 c 0
 272 725 305 747 343 747 c 0
 382 747 406 723 396 678 c 0
 386 633 352 607 313 607 c 0
211 -10 m 0
 105 -10 62 55 84 158 c 0
 109 277 193 332 334 336 c 2
 443 339 l 1
 448 362 l 2
 459 414 431 440 363 440 c 0
 322 440 274 431 213 407 c 1
 187 508 l 1
 257 541 322 556 395 556 c 0
 543 556 608 493 581 364 c 2
 504 0 l 1
 401 0 l 1
 391 70 l 1
 388 70 l 1
 328 11 272 -10 211 -10 c 0
284 105 m 0
 344 105 401 144 415 208 c 2
 425 253 l 1
 353 251 l 2
 280 249 235 223 224 170 c 0
 214 125 242 105 284 105 c 0
EndSplineSet
Validated: 1048609
Substitution2: "'smcp' Lowercase to Small Capitals lookup 35 subtable" adieresis.sc
Substitution2: "'aalt' Access All Alternates lookup 0 subtable" adieresis.sc
EndChar

StartChar: aring
Encoding: 229 229 167
Width: 563
GlyphClass: 2
Flags: HW
AnchorPoint: "Anchor-2" 659 546 basechar 0
AnchorPoint: "Anchor-1" 459 834 basechar 0
AnchorPoint: "Anchor-0" 282 0 basechar 0
LayerCount: 2
Fore
SplineSet
420 606 m 0
 349 606 312 651 327 720 c 0
 342 789 397 834 468 834 c 0
 536 834 577 788 563 721 c 0
 549 653 490 606 420 606 c 0
435 674 m 0
 461 674 485 692 491 720 c 0
 497 748 482 766 455 766 c 0
 428 766 404 748 398 720 c 0
 392 692 405 674 435 674 c 0
211 -10 m 0
 105 -10 62 55 84 158 c 0
 109 277 193 332 334 336 c 2
 443 339 l 1
 448 362 l 2
 459 414 431 440 363 440 c 0
 322 440 274 431 213 407 c 1
 187 508 l 1
 257 541 322 556 395 556 c 0
 543 556 608 493 581 364 c 2
 504 0 l 1
 401 0 l 1
 391 70 l 1
 388 70 l 1
 328 11 272 -10 211 -10 c 0
284 105 m 0
 344 105 401 144 415 208 c 2
 425 253 l 1
 353 251 l 2
 280 249 235 223 224 170 c 0
 214 125 242 105 284 105 c 0
EndSplineSet
Validated: 1048609
Substitution2: "'smcp' Lowercase to Small Capitals lookup 35 subtable" aring.sc
Substitution2: "'aalt' Access All Alternates lookup 0 subtable" aring.sc
EndChar

StartChar: ae
Encoding: 230 230 168
Width: 563
GlyphClass: 2
Flags: HW
AnchorPoint: "Anchor-1" 398 546 basechar 0
AnchorPoint: "Anchor-0" 282 0 basechar 0
LayerCount: 2
Fore
SplineSet
138 -10 m 0
 57 -10 20 48 44 159 c 0
 68 271 131 327 238 332 c 2
 299 334 l 1
 307 372 l 2
 317 418 297 440 252 440 c 0
 228 440 203 433 170 418 c 1
 147 516 l 1
 196 543 246 556 293 556 c 0
 345 556 378 540 403 506 c 1
 441 540 480 556 523 556 c 0
 630 556 649 450 618 306 c 2
 604 239 l 1
 394 239 l 1
 376 147 409 101 471 101 c 0
 503 101 529 113 561 136 c 1
 538 28 l 1
 506 3 467 -10 424 -10 c 0
 359 -10 314 20 292 81 c 1
 246 21 198 -10 138 -10 c 0
510 331 m 1
 523 401 519 440 488 440 c 0
 455 440 431 396 416 331 c 1
 510 331 l 1
197 103 m 0
 233 103 259 145 272 207 c 2
 281 251 l 1
 250 251 l 2
 211 251 180 221 169 168 c 0
 159 122 174 103 197 103 c 0
EndSplineSet
Validated: 1048609
Substitution2: "'smcp' Lowercase to Small Capitals lookup 35 subtable" ae.sc
Substitution2: "'aalt' Access All Alternates lookup 0 subtable" ae.sc
EndChar

StartChar: ccedilla
Encoding: 231 231 169
Width: 563
GlyphClass: 2
Flags: HW
AnchorPoint: "Anchor-2" 659 546 basechar 0
AnchorPoint: "Anchor-1" 439 546 basechar 0
AnchorPoint: "Anchor-0" 251 -240 basechar 0
LayerCount: 2
Fore
SplineSet
237 -240 m 0
 211 -240 187 -237 168 -231 c 1
 183 -158 l 1
 199 -164 218 -166 233 -166 c 0
 264 -166 287 -155 293 -127 c 0
 299 -98 278 -85 230 -80 c 1
 276 -8 l 1
 135 7 87 100 122 266 c 0
 163 458 273 556 445 556 c 0
 500 556 557 546 607 521 c 1
 541 409 l 1
 497 430 462 436 431 436 c 0
 344 436 287 380 264 272 c 0
 240 159 280 111 363 111 c 0
 401 111 450 121 513 154 c 1
 486 27 l 1
 435 4 392 -6 350 -9 c 1
 332 -38 l 1
 380 -50 405 -81 393 -136 c 0
 380 -198 330 -240 237 -240 c 0
EndSplineSet
Validated: 1048609
Substitution2: "'smcp' Lowercase to Small Capitals lookup 35 subtable" ccedilla.sc
Substitution2: "'aalt' Access All Alternates lookup 0 subtable" ccedilla.sc
EndChar

StartChar: egrave
Encoding: 232 232 170
Width: 563
GlyphClass: 2
Flags: HW
AnchorPoint: "Anchor-2" 659 546 basechar 0
AnchorPoint: "Anchor-1" 445 766 basechar 0
AnchorPoint: "Anchor-0" 282 0 basechar 0
LayerCount: 2
Fore
SplineSet
425 606 m 1
 391 638 326 720 304 757 c 1
 306 766 l 1
 458 766 l 1
 471 723 502 652 520 619 c 1
 517 606 l 1
 425 606 l 1
322 -10 m 0
 142 -10 64 92 103 275 c 0
 140 449 251 556 408 556 c 0
 552 556 618 467 584 306 c 2
 568 232 l 1
 233 232 l 1
 220 151 274 108 361 108 c 0
 418 108 475 124 530 145 c 1
 505 29 l 1
 453 4 390 -10 322 -10 c 0
458 330 m 1
 473 404 441 444 385 444 c 0
 329 444 278 406 256 330 c 1
 458 330 l 1
EndSplineSet
Validated: 1048609
Substitution2: "'smcp' Lowercase to Small Capitals lookup 35 subtable" egrave.sc
Substitution2: "'aalt' Access All Alternates lookup 0 subtable" egrave.sc
EndChar

StartChar: eacute
Encoding: 233 233 171
Width: 563
GlyphClass: 2
Flags: HW
AnchorPoint: "Anchor-2" 659 546 basechar 0
AnchorPoint: "Anchor-1" 445 766 basechar 0
AnchorPoint: "Anchor-0" 282 0 basechar 0
LayerCount: 2
Fore
SplineSet
357 619 m 1
 401 667 447 721 481 766 c 1
 633 766 l 1
 631 757 l 1
 592 719 503 646 446 606 c 1
 354 606 l 1
 357 619 l 1
322 -10 m 0
 142 -10 64 92 103 275 c 0
 140 449 251 556 408 556 c 0
 552 556 618 467 584 306 c 2
 568 232 l 1
 233 232 l 1
 220 151 274 108 361 108 c 0
 418 108 475 124 530 145 c 1
 505 29 l 1
 453 4 390 -10 322 -10 c 0
458 330 m 1
 473 404 441 444 385 444 c 0
 329 444 278 406 256 330 c 1
 458 330 l 1
EndSplineSet
Validated: 1048609
Substitution2: "'smcp' Lowercase to Small Capitals lookup 35 subtable" eacute.sc
Substitution2: "'aalt' Access All Alternates lookup 0 subtable" eacute.sc
EndChar

StartChar: ecircumflex
Encoding: 234 234 172
Width: 563
GlyphClass: 2
Flags: HW
AnchorPoint: "Anchor-2" 659 546 basechar 0
AnchorPoint: "Anchor-1" 445 766 basechar 0
AnchorPoint: "Anchor-0" 282 0 basechar 0
LayerCount: 2
Fore
SplineSet
252 619 m 1
 293 658 357 726 388 766 c 1
 522 766 l 1
 537 722 568 664 594 619 c 1
 591 606 l 1
 509 606 l 1
 486 627 461 655 438 690 c 1
 400 655 362 625 333 606 c 1
 249 606 l 1
 252 619 l 1
322 -10 m 0
 142 -10 64 92 103 275 c 0
 140 449 251 556 408 556 c 0
 552 556 618 467 584 306 c 2
 568 232 l 1
 233 232 l 1
 220 151 274 108 361 108 c 0
 418 108 475 124 530 145 c 1
 505 29 l 1
 453 4 390 -10 322 -10 c 0
458 330 m 1
 473 404 441 444 385 444 c 0
 329 444 278 406 256 330 c 1
 458 330 l 1
EndSplineSet
Validated: 1048609
Substitution2: "'smcp' Lowercase to Small Capitals lookup 35 subtable" ecircumflex.sc
Substitution2: "'aalt' Access All Alternates lookup 0 subtable" ecircumflex.sc
EndChar

StartChar: edieresis
Encoding: 235 235 173
Width: 563
GlyphClass: 2
Flags: HW
AnchorPoint: "Anchor-2" 659 546 basechar 0
AnchorPoint: "Anchor-1" 441 747 basechar 0
AnchorPoint: "Anchor-0" 282 0 basechar 0
LayerCount: 2
Fore
SplineSet
526 607 m 0
 487 607 464 632 474 678 c 0
 484 725 517 747 556 747 c 0
 595 747 619 723 609 678 c 0
 599 633 565 607 526 607 c 0
313 607 m 0
 274 607 251 631 261 678 c 0
 271 725 304 747 343 747 c 0
 381 747 405 723 395 678 c 0
 385 633 351 607 313 607 c 0
322 -10 m 0
 142 -10 64 92 103 275 c 0
 140 449 251 556 408 556 c 0
 552 556 618 467 584 306 c 2
 568 232 l 1
 233 232 l 1
 220 151 274 108 361 108 c 0
 418 108 475 124 530 145 c 1
 505 29 l 1
 453 4 390 -10 322 -10 c 0
458 330 m 1
 473 404 441 444 385 444 c 0
 329 444 278 406 256 330 c 1
 458 330 l 1
EndSplineSet
Validated: 1048609
Substitution2: "'smcp' Lowercase to Small Capitals lookup 35 subtable" edieresis.sc
Substitution2: "'aalt' Access All Alternates lookup 0 subtable" edieresis.sc
EndChar

StartChar: igrave
Encoding: 236 236 174
Width: 563
GlyphClass: 2
Flags: HW
AnchorPoint: "Anchor-3" 353 291 basechar 0
AnchorPoint: "Anchor-1" 445 766 basechar 0
AnchorPoint: "Anchor-0" 282 0 basechar 0
LayerCount: 2
Fore
SplineSet
415 606 m 1
 382 638 316 720 295 757 c 1
 297 766 l 1
 448 766 l 1
 461 723 492 652 510 619 c 1
 507 606 l 1
 415 606 l 1
58 0 m 1
 78 92 l 1
 249 115 l 1
 317 431 l 1
 177 446 l 1
 198 546 l 1
 480 546 l 1
 388 115 l 1
 532 92 l 1
 512 0 l 1
 58 0 l 1
EndSplineSet
Validated: 1048577
Substitution2: "'smcp' Lowercase to Small Capitals lookup 35 subtable" igrave.sc
Substitution2: "'aalt' Access All Alternates lookup 0 subtable" igrave.sc
EndChar

StartChar: iacute
Encoding: 237 237 175
Width: 563
GlyphClass: 2
Flags: HW
AnchorPoint: "Anchor-3" 353 291 basechar 0
AnchorPoint: "Anchor-1" 445 766 basechar 0
AnchorPoint: "Anchor-0" 282 0 basechar 0
LayerCount: 2
Fore
SplineSet
347 619 m 1
 392 667 438 721 471 766 c 1
 623 766 l 1
 621 757 l 1
 582 719 493 646 437 606 c 1
 344 606 l 1
 347 619 l 1
58 0 m 1
 78 92 l 1
 249 115 l 1
 317 431 l 1
 177 446 l 1
 198 546 l 1
 480 546 l 1
 388 115 l 1
 532 92 l 1
 512 0 l 1
 58 0 l 1
EndSplineSet
Validated: 1048577
Substitution2: "'smcp' Lowercase to Small Capitals lookup 35 subtable" iacute.sc
Substitution2: "'aalt' Access All Alternates lookup 0 subtable" iacute.sc
EndChar

StartChar: icircumflex
Encoding: 238 238 176
Width: 563
GlyphClass: 2
Flags: HW
AnchorPoint: "Anchor-3" 353 291 basechar 0
AnchorPoint: "Anchor-1" 445 766 basechar 0
AnchorPoint: "Anchor-0" 282 0 basechar 0
LayerCount: 2
Fore
SplineSet
242 619 m 1
 284 658 347 726 378 766 c 1
 512 766 l 1
 527 722 558 664 585 619 c 1
 582 606 l 1
 499 606 l 1
 476 627 452 655 428 690 c 1
 390 655 352 625 323 606 c 1
 239 606 l 1
 242 619 l 1
58 0 m 1
 78 92 l 1
 249 115 l 1
 317 431 l 1
 177 446 l 1
 198 546 l 1
 480 546 l 1
 388 115 l 1
 532 92 l 1
 512 0 l 1
 58 0 l 1
EndSplineSet
Validated: 1048577
Substitution2: "'smcp' Lowercase to Small Capitals lookup 35 subtable" icircumflex.sc
Substitution2: "'aalt' Access All Alternates lookup 0 subtable" icircumflex.sc
EndChar

StartChar: idieresis
Encoding: 239 239 177
Width: 563
GlyphClass: 2
Flags: HW
AnchorPoint: "Anchor-3" 353 291 basechar 0
AnchorPoint: "Anchor-1" 441 747 basechar 0
AnchorPoint: "Anchor-0" 282 0 basechar 0
LayerCount: 2
Fore
SplineSet
516 607 m 0
 477 607 455 632 465 678 c 0
 475 725 507 747 546 747 c 0
 585 747 609 723 599 678 c 0
 589 633 555 607 516 607 c 0
303 607 m 0
 265 607 242 631 252 678 c 0
 262 725 295 747 333 747 c 0
 372 747 395 723 385 678 c 0
 375 633 342 607 303 607 c 0
58 0 m 1
 78 92 l 1
 249 115 l 1
 317 431 l 1
 177 446 l 1
 198 546 l 1
 480 546 l 1
 388 115 l 1
 532 92 l 1
 512 0 l 1
 58 0 l 1
EndSplineSet
Validated: 1048609
Substitution2: "'smcp' Lowercase to Small Capitals lookup 35 subtable" idieresis.sc
Substitution2: "'aalt' Access All Alternates lookup 0 subtable" idieresis.sc
EndChar

StartChar: eth
Encoding: 240 240 178
Width: 563
GlyphClass: 2
Flags: HW
AnchorPoint: "Anchor-3" 340 273 basechar 0
AnchorPoint: "Anchor-2" 705 760 basechar 0
AnchorPoint: "Anchor-1" 445 765 basechar 0
AnchorPoint: "Anchor-0" 282 0 basechar 0
LayerCount: 2
Fore
SplineSet
275 -10 m 0
 129 -10 54 85 87 239 c 0
 120 395 230 485 356 485 c 0
 411 485 447 472 464 444 c 1
 468 446 l 1
 461 500 438 546 408 586 c 1
 295 521 l 1
 262 590 l 1
 353 642 l 1
 335 659 315 674 295 688 c 1
 362 765 l 1
 398 748 430 727 459 703 c 1
 566 764 l 1
 600 696 l 1
 514 647 l 1
 592 547 616 415 586 276 c 0
 547 93 429 -10 275 -10 c 0
299 95 m 0
 375 95 420 148 442 250 c 0
 458 323 435 379 359 379 c 0
 286 379 244 332 224 237 c 0
 206 151 224 95 299 95 c 0
EndSplineSet
Validated: 33
Substitution2: "'smcp' Lowercase to Small Capitals lookup 35 subtable" eth.sc
Substitution2: "'aalt' Access All Alternates lookup 0 subtable" eth.sc
EndChar

StartChar: ntilde
Encoding: 241 241 179
Width: 563
GlyphClass: 2
Flags: HW
AnchorPoint: "Anchor-2" 659 546 basechar 0
AnchorPoint: "Anchor-1" 442 754 basechar 0
AnchorPoint: "Anchor-0" 282 0 basechar 0
LayerCount: 2
Fore
SplineSet
238 605 m 1
 258 681 301 753 370 753 c 0
 426 753 464 702 509 702 c 0
 532 702 543 720 557 754 c 1
 627 754 l 1
 603 658 550 606 495 606 c 0
 441 606 396 657 356 657 c 0
 334 657 321 641 308 605 c 1
 238 605 l 1
51 0 m 1
 167 546 l 1
 275 546 l 1
 283 479 l 1
 290 479 l 1
 331 529 387 556 460 556 c 0
 575 556 621 490 594 362 c 2
 517 0 l 1
 378 0 l 1
 447 325 l 2
 464 403 443 439 386 439 c 0
 312 439 270 378 247 268 c 2
 190 0 l 1
 51 0 l 1
EndSplineSet
Validated: 1048609
Substitution2: "'smcp' Lowercase to Small Capitals lookup 35 subtable" ntilde.sc
Substitution2: "'aalt' Access All Alternates lookup 0 subtable" ntilde.sc
EndChar

StartChar: ograve
Encoding: 242 242 180
Width: 563
GlyphClass: 2
Flags: HW
AnchorPoint: "Anchor-3" 340 273 basechar 0
AnchorPoint: "Anchor-2" 659 546 basechar 0
AnchorPoint: "Anchor-1" 445 766 basechar 0
AnchorPoint: "Anchor-0" 282 0 basechar 0
LayerCount: 2
Fore
SplineSet
415 606 m 1
 382 638 316 720 295 757 c 1
 297 766 l 1
 448 766 l 1
 461 723 492 652 510 619 c 1
 507 606 l 1
 415 606 l 1
282 -10 m 0
 120 -10 59 108 94 273 c 0
 129 439 242 556 401 556 c 0
 551 556 624 453 585 271 c 0
 550 107 445 -10 282 -10 c 0
307 107 m 0
 378 107 421 165 444 272 c 0
 467 379 449 439 377 439 c 0
 303 439 258 376 236 273 c 0
 214 168 234 107 307 107 c 0
EndSplineSet
Validated: 33
Substitution2: "'smcp' Lowercase to Small Capitals lookup 35 subtable" ograve.sc
Substitution2: "'aalt' Access All Alternates lookup 0 subtable" ograve.sc
EndChar

StartChar: oacute
Encoding: 243 243 181
Width: 563
GlyphClass: 2
Flags: HW
AnchorPoint: "Anchor-3" 340 273 basechar 0
AnchorPoint: "Anchor-2" 659 546 basechar 0
AnchorPoint: "Anchor-1" 445 766 basechar 0
AnchorPoint: "Anchor-0" 282 0 basechar 0
LayerCount: 2
Fore
SplineSet
347 619 m 1
 392 667 438 721 471 766 c 1
 623 766 l 1
 621 757 l 1
 582 719 493 646 437 606 c 1
 344 606 l 1
 347 619 l 1
282 -10 m 0
 120 -10 59 108 94 273 c 0
 129 439 242 556 401 556 c 0
 551 556 624 453 585 271 c 0
 550 107 445 -10 282 -10 c 0
307 107 m 0
 378 107 421 165 444 272 c 0
 467 379 449 439 377 439 c 0
 303 439 258 376 236 273 c 0
 214 168 234 107 307 107 c 0
EndSplineSet
Validated: 33
Substitution2: "'smcp' Lowercase to Small Capitals lookup 35 subtable" oacute.sc
Substitution2: "'aalt' Access All Alternates lookup 0 subtable" oacute.sc
EndChar

StartChar: ocircumflex
Encoding: 244 244 182
Width: 563
GlyphClass: 2
Flags: HW
AnchorPoint: "Anchor-3" 340 273 basechar 0
AnchorPoint: "Anchor-2" 659 546 basechar 0
AnchorPoint: "Anchor-1" 445 766 basechar 0
AnchorPoint: "Anchor-0" 282 0 basechar 0
LayerCount: 2
Fore
SplineSet
242 619 m 1
 284 658 347 726 378 766 c 1
 512 766 l 1
 527 722 558 664 585 619 c 1
 582 606 l 1
 499 606 l 1
 476 627 452 655 428 690 c 1
 390 655 352 625 323 606 c 1
 239 606 l 1
 242 619 l 1
282 -10 m 0
 120 -10 59 108 94 273 c 0
 129 439 242 556 401 556 c 0
 551 556 624 453 585 271 c 0
 550 107 445 -10 282 -10 c 0
307 107 m 0
 378 107 421 165 444 272 c 0
 467 379 449 439 377 439 c 0
 303 439 258 376 236 273 c 0
 214 168 234 107 307 107 c 0
EndSplineSet
Validated: 33
Substitution2: "'smcp' Lowercase to Small Capitals lookup 35 subtable" ocircumflex.sc
Substitution2: "'aalt' Access All Alternates lookup 0 subtable" ocircumflex.sc
EndChar

StartChar: otilde
Encoding: 245 245 183
Width: 563
GlyphClass: 2
Flags: HW
AnchorPoint: "Anchor-3" 340 273 basechar 0
AnchorPoint: "Anchor-2" 659 546 basechar 0
AnchorPoint: "Anchor-1" 442 754 basechar 0
AnchorPoint: "Anchor-0" 282 0 basechar 0
LayerCount: 2
Fore
SplineSet
231 605 m 1
 252 681 295 753 364 753 c 0
 420 753 457 702 502 702 c 0
 525 702 537 720 551 754 c 1
 621 754 l 1
 597 658 544 606 488 606 c 0
 435 606 390 657 350 657 c 0
 328 657 315 641 302 605 c 1
 231 605 l 1
282 -10 m 0
 120 -10 59 108 94 273 c 0
 129 439 242 556 401 556 c 0
 551 556 624 453 585 271 c 0
 550 107 445 -10 282 -10 c 0
307 107 m 0
 378 107 421 165 444 272 c 0
 467 379 449 439 377 439 c 0
 303 439 258 376 236 273 c 0
 214 168 234 107 307 107 c 0
EndSplineSet
Validated: 33
Substitution2: "'smcp' Lowercase to Small Capitals lookup 35 subtable" otilde.sc
Substitution2: "'aalt' Access All Alternates lookup 0 subtable" otilde.sc
EndChar

StartChar: odieresis
Encoding: 246 246 184
Width: 563
GlyphClass: 2
Flags: HW
AnchorPoint: "Anchor-3" 340 273 basechar 0
AnchorPoint: "Anchor-2" 659 546 basechar 0
AnchorPoint: "Anchor-1" 441 747 basechar 0
AnchorPoint: "Anchor-0" 282 0 basechar 0
LayerCount: 2
Fore
SplineSet
516 607 m 0
 477 607 455 632 465 678 c 0
 475 725 507 747 546 747 c 0
 585 747 609 723 599 678 c 0
 589 633 555 607 516 607 c 0
303 607 m 0
 265 607 242 631 252 678 c 0
 262 725 295 747 333 747 c 0
 372 747 395 723 385 678 c 0
 375 633 342 607 303 607 c 0
282 -10 m 0
 120 -10 59 108 94 273 c 0
 129 439 242 556 401 556 c 0
 551 556 624 453 585 271 c 0
 550 107 445 -10 282 -10 c 0
307 107 m 0
 378 107 421 165 444 272 c 0
 467 379 449 439 377 439 c 0
 303 439 258 376 236 273 c 0
 214 168 234 107 307 107 c 0
EndSplineSet
Validated: 33
Substitution2: "'smcp' Lowercase to Small Capitals lookup 35 subtable" odieresis.sc
Substitution2: "'aalt' Access All Alternates lookup 0 subtable" odieresis.sc
EndChar

StartChar: divide
Encoding: 247 247 185
Width: 563
Flags: HW
LayerCount: 2
Fore
SplineSet
381 461 m 0
 340 461 318 486 329 536 c 0
 340 586 371 611 413 611 c 0
 453 611 473 586 462 536 c 0
 451 486 420 461 381 461 c 0
127 301 m 1
 149 405 l 1
 587 405 l 1
 565 301 l 1
 127 301 l 1
303 94 m 0
 262 94 240 120 251 170 c 0
 262 220 293 244 335 244 c 0
 375 244 395 220 384 170 c 0
 373 120 342 94 303 94 c 0
EndSplineSet
Validated: 33
EndChar

StartChar: oslash
Encoding: 248 248 186
Width: 563
GlyphClass: 2
Flags: HW
AnchorPoint: "Anchor-3" 340 273 basechar 0
AnchorPoint: "Anchor-2" 659 546 basechar 0
AnchorPoint: "Anchor-1" 398 546 basechar 0
AnchorPoint: "Anchor-0" 282 0 basechar 0
LayerCount: 2
Fore
SplineSet
130 -43 m 1
 69 -1 l 1
 120 61 l 1
 84 112 76 186 94 273 c 0
 129 439 242 556 401 556 c 0
 442 556 477 549 506 533 c 1
 549 585 l 1
 609 541 l 1
 562 484 l 1
 596 435 605 363 585 271 c 0
 550 107 445 -10 282 -10 c 0
 240 -10 205 -2 176 13 c 1
 130 -43 l 1
236 273 m 0
 229 242 227 215 228 193 c 1
 421 428 l 1
 410 436 395 439 377 439 c 0
 303 439 258 376 236 273 c 0
307 107 m 0
 378 107 421 165 444 272 c 0
 450 302 453 328 453 351 c 1
 262 118 l 1
 274 111 289 107 307 107 c 0
EndSplineSet
Validated: 33
Substitution2: "'smcp' Lowercase to Small Capitals lookup 35 subtable" oslash.sc
Substitution2: "'aalt' Access All Alternates lookup 0 subtable" oslash.sc
EndChar

StartChar: ugrave
Encoding: 249 249 187
Width: 563
GlyphClass: 2
Flags: HW
AnchorPoint: "Anchor-2" 659 546 basechar 0
AnchorPoint: "Anchor-1" 445 766 basechar 0
AnchorPoint: "Anchor-0" 282 0 basechar 0
LayerCount: 2
Fore
SplineSet
415 606 m 1
 382 638 316 720 295 757 c 1
 297 766 l 1
 448 766 l 1
 461 723 492 652 510 619 c 1
 507 606 l 1
 415 606 l 1
215 -10 m 0
 103 -10 58 60 86 190 c 2
 162 546 l 1
 301 546 l 1
 233 227 l 2
 217 152 227 109 292 109 c 0
 377 109 410 176 434 289 c 2
 489 546 l 1
 628 546 l 1
 512 0 l 1
 405 0 l 1
 397 70 l 1
 389 70 l 1
 348 19 287 -10 215 -10 c 0
EndSplineSet
Validated: 1048609
Substitution2: "'smcp' Lowercase to Small Capitals lookup 35 subtable" ugrave.sc
Substitution2: "'aalt' Access All Alternates lookup 0 subtable" ugrave.sc
EndChar

StartChar: uacute
Encoding: 250 250 188
Width: 563
GlyphClass: 2
Flags: HW
AnchorPoint: "Anchor-2" 659 546 basechar 0
AnchorPoint: "Anchor-1" 445 766 basechar 0
AnchorPoint: "Anchor-0" 282 0 basechar 0
LayerCount: 2
Fore
SplineSet
347 619 m 1
 392 667 438 721 471 766 c 1
 623 766 l 1
 621 757 l 1
 582 719 493 646 437 606 c 1
 344 606 l 1
 347 619 l 1
215 -10 m 0
 103 -10 58 60 86 190 c 2
 162 546 l 1
 301 546 l 1
 233 227 l 2
 217 152 227 109 292 109 c 0
 377 109 410 176 434 289 c 2
 489 546 l 1
 628 546 l 1
 512 0 l 1
 405 0 l 1
 397 70 l 1
 389 70 l 1
 348 19 287 -10 215 -10 c 0
EndSplineSet
Validated: 1048609
Substitution2: "'smcp' Lowercase to Small Capitals lookup 35 subtable" uacute.sc
Substitution2: "'aalt' Access All Alternates lookup 0 subtable" uacute.sc
EndChar

StartChar: ucircumflex
Encoding: 251 251 189
Width: 563
GlyphClass: 2
Flags: HW
AnchorPoint: "Anchor-2" 659 546 basechar 0
AnchorPoint: "Anchor-1" 445 766 basechar 0
AnchorPoint: "Anchor-0" 282 0 basechar 0
LayerCount: 2
Fore
SplineSet
242 619 m 1
 284 658 347 726 378 766 c 1
 512 766 l 1
 527 722 558 664 585 619 c 1
 582 606 l 1
 499 606 l 1
 476 627 452 655 428 690 c 1
 390 655 352 625 323 606 c 1
 239 606 l 1
 242 619 l 1
215 -10 m 0
 103 -10 58 60 86 190 c 2
 162 546 l 1
 301 546 l 1
 233 227 l 2
 217 152 227 109 292 109 c 0
 377 109 410 176 434 289 c 2
 489 546 l 1
 628 546 l 1
 512 0 l 1
 405 0 l 1
 397 70 l 1
 389 70 l 1
 348 19 287 -10 215 -10 c 0
EndSplineSet
Validated: 1048609
Substitution2: "'smcp' Lowercase to Small Capitals lookup 35 subtable" ucircumflex.sc
Substitution2: "'aalt' Access All Alternates lookup 0 subtable" ucircumflex.sc
EndChar

StartChar: udieresis
Encoding: 252 252 190
Width: 563
GlyphClass: 2
Flags: HW
AnchorPoint: "Anchor-2" 659 546 basechar 0
AnchorPoint: "Anchor-1" 441 747 basechar 0
AnchorPoint: "Anchor-0" 282 0 basechar 0
LayerCount: 2
Fore
SplineSet
516 607 m 0
 477 607 455 632 465 678 c 0
 475 725 507 747 546 747 c 0
 585 747 609 723 599 678 c 0
 589 633 555 607 516 607 c 0
303 607 m 0
 265 607 242 631 252 678 c 0
 262 725 295 747 333 747 c 0
 372 747 395 723 385 678 c 0
 375 633 342 607 303 607 c 0
215 -10 m 0
 103 -10 58 60 86 190 c 2
 162 546 l 1
 301 546 l 1
 233 227 l 2
 217 152 227 109 292 109 c 0
 377 109 410 176 434 289 c 2
 489 546 l 1
 628 546 l 1
 512 0 l 1
 405 0 l 1
 397 70 l 1
 389 70 l 1
 348 19 287 -10 215 -10 c 0
EndSplineSet
Validated: 1048609
Substitution2: "'smcp' Lowercase to Small Capitals lookup 35 subtable" udieresis.sc
Substitution2: "'aalt' Access All Alternates lookup 0 subtable" udieresis.sc
EndChar

StartChar: yacute
Encoding: 253 253 191
Width: 563
GlyphClass: 2
Flags: HW
AnchorPoint: "Anchor-2" 659 546 basechar 0
AnchorPoint: "Anchor-1" 445 766 basechar 0
AnchorPoint: "Anchor-0" 230 -245 basechar 0
LayerCount: 2
Fore
SplineSet
347 619 m 1
 392 667 438 721 471 766 c 1
 623 766 l 1
 621 757 l 1
 582 719 493 646 437 606 c 1
 344 606 l 1
 347 619 l 1
71 -245 m 0
 47 -245 24 -242 1 -237 c 1
 25 -120 l 1
 41 -124 60 -126 72 -126 c 0
 127 -126 170 -93 204 -31 c 2
 221 0 l 1
 132 546 l 1
 287 546 l 1
 317 233 l 2
 319 205 320 173 317 136 c 1
 320 136 l 1
 332 171 347 202 362 233 c 2
 511 546 l 1
 663 546 l 1
 347 -29 l 2
 271 -166 186 -245 71 -245 c 0
EndSplineSet
Validated: 1048609
Substitution2: "'smcp' Lowercase to Small Capitals lookup 35 subtable" yacute.sc
Substitution2: "'aalt' Access All Alternates lookup 0 subtable" yacute.sc
EndChar

StartChar: thorn
Encoding: 254 254 192
Width: 563
GlyphClass: 2
Flags: HW
AnchorPoint: "Anchor-1" 470 760 basechar 0
AnchorPoint: "Anchor-0" 257 -240 basechar 0
LayerCount: 2
Fore
SplineSet
-0 -240 m 1
 213 760 l 1
 350 760 l 1
 309 567 l 2
 304 542 295 512 283 475 c 1
 289 475 l 1
 334 528 395 556 458 556 c 0
 590 556 619 432 586 277 c 0
 548 97 452 -10 333 -10 c 0
 276 -10 227 15 201 60 c 1
 194 60 l 1
 192 21 187 -2 184 -18 c 2
 137 -240 l 1
 -0 -240 l 1
312 109 m 0
 377 109 417 162 441 277 c 0
 464 386 447 437 382 437 c 0
 317 437 270 387 250 291 c 2
 246 275 l 2
 222 163 246 109 312 109 c 0
EndSplineSet
Validated: 1048609
Substitution2: "'smcp' Lowercase to Small Capitals lookup 35 subtable" thorn.sc
Substitution2: "'aalt' Access All Alternates lookup 0 subtable" thorn.sc
EndChar

StartChar: ydieresis
Encoding: 255 255 193
Width: 563
GlyphClass: 2
Flags: HW
AnchorPoint: "Anchor-2" 659 546 basechar 0
AnchorPoint: "Anchor-1" 441 747 basechar 0
AnchorPoint: "Anchor-0" 230 -245 basechar 0
LayerCount: 2
Fore
SplineSet
516 607 m 0
 477 607 455 632 465 678 c 0
 475 725 507 747 546 747 c 0
 585 747 609 723 599 678 c 0
 589 633 555 607 516 607 c 0
303 607 m 0
 265 607 242 631 252 678 c 0
 262 725 295 747 333 747 c 0
 372 747 395 723 385 678 c 0
 375 633 342 607 303 607 c 0
71 -245 m 0
 47 -245 24 -242 1 -237 c 1
 25 -120 l 1
 41 -124 60 -126 72 -126 c 0
 127 -126 170 -93 204 -31 c 2
 221 0 l 1
 132 546 l 1
 287 546 l 1
 317 233 l 2
 319 205 320 173 317 136 c 1
 320 136 l 1
 332 171 347 202 362 233 c 2
 511 546 l 1
 663 546 l 1
 347 -29 l 2
 271 -166 186 -245 71 -245 c 0
EndSplineSet
Validated: 1048609
Substitution2: "'smcp' Lowercase to Small Capitals lookup 35 subtable" ydieresis.sc
Substitution2: "'aalt' Access All Alternates lookup 0 subtable" ydieresis.sc
EndChar

StartChar: Amacron
Encoding: 256 256 194
Width: 563
GlyphClass: 2
Flags: HW
AnchorPoint: "Anchor-2" 695 714 basechar 0
AnchorPoint: "Anchor-1" 470 883 basechar 0
AnchorPoint: "Anchor-0" 282 0 basechar 0
LayerCount: 2
Fore
SplineSet
303 787 m 1
 324 883 l 1
 615 883 l 1
 594 787 l 1
 303 787 l 1
10 0 m 1
 341 717 l 1
 525 717 l 1
 553 0 l 1
 414 0 l 1
 412 176 l 1
 224 176 l 1
 148 0 l 1
 10 0 l 1
355 473 m 2
 277 295 l 1
 412 295 l 1
 410 472 l 2
 409 515 410 563 411 606 c 1
 394 563 373 513 355 473 c 2
EndSplineSet
Validated: 1048609
Substitution2: "'c2sc' Capitals to Small Capitals lookup 34 subtable" amacron.sc
Substitution2: "'aalt' Access All Alternates lookup 0 subtable" amacron.sc
EndChar

StartChar: amacron
Encoding: 257 257 195
Width: 563
GlyphClass: 2
Flags: HW
AnchorPoint: "Anchor-2" 659 546 basechar 0
AnchorPoint: "Anchor-1" 434 715 basechar 0
AnchorPoint: "Anchor-0" 282 0 basechar 0
LayerCount: 2
Fore
SplineSet
278 619 m 1
 298 715 l 1
 589 715 l 1
 569 619 l 1
 278 619 l 1
211 -10 m 0
 105 -10 62 55 84 158 c 0
 109 277 193 332 334 336 c 2
 443 339 l 1
 448 362 l 2
 459 414 431 440 363 440 c 0
 322 440 274 431 213 407 c 1
 187 508 l 1
 257 541 322 556 395 556 c 0
 543 556 608 493 581 364 c 2
 504 0 l 1
 401 0 l 1
 391 70 l 1
 388 70 l 1
 328 11 272 -10 211 -10 c 0
284 105 m 0
 344 105 401 144 415 208 c 2
 425 253 l 1
 353 251 l 2
 280 249 235 223 224 170 c 0
 214 125 242 105 284 105 c 0
EndSplineSet
Validated: 1048609
Substitution2: "'smcp' Lowercase to Small Capitals lookup 35 subtable" amacron.sc
Substitution2: "'aalt' Access All Alternates lookup 0 subtable" amacron.sc
EndChar

StartChar: Abreve
Encoding: 258 258 196
Width: 563
GlyphClass: 2
Flags: HW
AnchorPoint: "Anchor-2" 695 714 basechar 0
AnchorPoint: "Anchor-1" 481 935 basechar 0
AnchorPoint: "Anchor-0" 282 0 basechar 0
LayerCount: 2
Fore
SplineSet
445 776 m 0
 353 776 302 833 321 935 c 1
 402 935 l 1
 395 885 422 866 465 866 c 0
 507 866 543 884 559 935 c 1
 640 935 l 1
 617 838 539 776 445 776 c 0
10 0 m 1
 341 717 l 1
 525 717 l 1
 553 0 l 1
 414 0 l 1
 412 176 l 1
 224 176 l 1
 148 0 l 1
 10 0 l 1
355 473 m 2
 277 295 l 1
 412 295 l 1
 410 472 l 2
 409 515 410 563 411 606 c 1
 394 563 373 513 355 473 c 2
EndSplineSet
Validated: 1048609
Substitution2: "'c2sc' Capitals to Small Capitals lookup 34 subtable" abreve.sc
Substitution2: "'aalt' Access All Alternates lookup 0 subtable" abreve.sc
EndChar

StartChar: abreve
Encoding: 259 259 197
Width: 563
GlyphClass: 2
Flags: HW
AnchorPoint: "Anchor-2" 659 546 basechar 0
AnchorPoint: "Anchor-1" 445 767 basechar 0
AnchorPoint: "Anchor-0" 282 0 basechar 0
LayerCount: 2
Fore
SplineSet
420 608 m 0
 327 608 276 665 296 767 c 1
 377 767 l 1
 369 717 396 698 440 698 c 0
 481 698 518 716 533 767 c 1
 614 767 l 1
 592 670 514 608 420 608 c 0
211 -10 m 0
 105 -10 62 55 84 158 c 0
 109 277 193 332 334 336 c 2
 443 339 l 1
 448 362 l 2
 459 414 431 440 363 440 c 0
 322 440 274 431 213 407 c 1
 187 508 l 1
 257 541 322 556 395 556 c 0
 543 556 608 493 581 364 c 2
 504 0 l 1
 401 0 l 1
 391 70 l 1
 388 70 l 1
 328 11 272 -10 211 -10 c 0
284 105 m 0
 344 105 401 144 415 208 c 2
 425 253 l 1
 353 251 l 2
 280 249 235 223 224 170 c 0
 214 125 242 105 284 105 c 0
EndSplineSet
Validated: 1048609
Substitution2: "'smcp' Lowercase to Small Capitals lookup 35 subtable" abreve.sc
Substitution2: "'aalt' Access All Alternates lookup 0 subtable" abreve.sc
EndChar

StartChar: Aogonek
Encoding: 260 260 198
Width: 563
GlyphClass: 2
Flags: HW
AnchorPoint: "Anchor-2" 695 714 basechar 0
AnchorPoint: "Anchor-1" 434 714 basechar 0
AnchorPoint: "Anchor-0" 232 -236 basechar 0
LayerCount: 2
Fore
SplineSet
10 0 m 1
 341 717 l 1
 525 717 l 1
 553 0 l 1
 500 -44 477 -75 471 -105 c 0
 465 -134 476 -150 502 -150 c 0
 519 -150 534 -145 545 -141 c 1
 527 -224 l 1
 511 -231 488 -236 459 -236 c 0
 383 -236 351 -195 365 -131 c 0
 375 -86 411 -38 466 0 c 1
 414 0 l 1
 412 176 l 1
 224 176 l 1
 148 0 l 1
 10 0 l 1
355 473 m 2
 277 295 l 1
 412 295 l 1
 410 472 l 2
 409 515 410 563 411 606 c 1
 394 563 373 513 355 473 c 2
EndSplineSet
Validated: 1048609
Substitution2: "'c2sc' Capitals to Small Capitals lookup 34 subtable" aogonek.sc
Substitution2: "'locl' Localized Forms in Latin lookup 10 subtable" Aogonek.loclNAV
Ligature2: "'ccmp' Glyph Composition/Decomposition lookup 6 subtable" A uni0328
AlternateSubs2: "'aalt' Access All Alternates lookup 1 subtable" Aogonek.loclNAV aogonek.sc
EndChar

StartChar: aogonek
Encoding: 261 261 199
Width: 563
GlyphClass: 2
Flags: HW
AnchorPoint: "Anchor-2" 659 546 basechar 0
AnchorPoint: "Anchor-1" 398 546 basechar 0
AnchorPoint: "Anchor-0" 232 -236 basechar 0
LayerCount: 2
Fore
SplineSet
211 -10 m 0
 105 -10 62 55 84 158 c 0
 109 277 193 332 334 336 c 2
 443 339 l 1
 448 362 l 2
 459 414 431 440 363 440 c 0
 322 440 274 431 213 407 c 1
 187 508 l 1
 257 541 322 556 395 556 c 0
 543 556 608 493 581 364 c 2
 504 0 l 1
 489 0 l 1
 436 -44 413 -75 407 -105 c 0
 401 -134 412 -150 438 -150 c 0
 455 -150 470 -145 481 -141 c 1
 463 -224 l 1
 447 -231 423 -236 395 -236 c 0
 319 -236 287 -195 301 -131 c 0
 311 -86 347 -38 402 0 c 1
 401 0 l 1
 391 70 l 1
 388 70 l 1
 328 11 272 -10 211 -10 c 0
284 105 m 0
 344 105 401 144 415 208 c 2
 425 253 l 1
 353 251 l 2
 280 249 235 223 224 170 c 0
 214 125 242 105 284 105 c 0
EndSplineSet
Validated: 1048609
Substitution2: "'smcp' Lowercase to Small Capitals lookup 35 subtable" aogonek.sc
Substitution2: "'locl' Localized Forms in Latin lookup 10 subtable" aogonek.loclNAV
Ligature2: "'ccmp' Glyph Composition/Decomposition lookup 6 subtable" a uni0328
AlternateSubs2: "'aalt' Access All Alternates lookup 1 subtable" aogonek.loclNAV aogonek.sc
EndChar

StartChar: Cacute
Encoding: 262 262 200
Width: 563
GlyphClass: 2
Flags: HW
AnchorPoint: "Anchor-2" 695 714 basechar 0
AnchorPoint: "Anchor-1" 547 934 basechar 0
AnchorPoint: "Anchor-0" 340 0 basechar 0
LayerCount: 2
Fore
SplineSet
438 787 m 1
 482 835 529 889 563 934 c 1
 715 934 l 1
 713 925 l 1
 674 887 585 814 528 774 c 1
 436 774 l 1
 438 787 l 1
334 -12 m 0
 139 -12 72 126 119 347 c 0
 167 575 311 725 515 725 c 0
 580 725 629 710 676 682 c 1
 607 567 l 1
 567 590 530 600 490 600 c 0
 364 600 292 498 261 351 c 0
 227 190 267 113 383 113 c 0
 430 113 473 124 535 151 c 1
 508 24 l 1
 452 0 392 -12 334 -12 c 0
EndSplineSet
Validated: 1048609
Substitution2: "'c2sc' Capitals to Small Capitals lookup 34 subtable" cacute.sc
Substitution2: "'aalt' Access All Alternates lookup 0 subtable" cacute.sc
EndChar

StartChar: cacute
Encoding: 263 263 201
Width: 563
GlyphClass: 2
Flags: HW
AnchorPoint: "Anchor-2" 659 546 basechar 0
AnchorPoint: "Anchor-1" 479 766 basechar 0
AnchorPoint: "Anchor-0" 310 0 basechar 0
LayerCount: 2
Fore
SplineSet
375 619 m 1
 420 667 466 721 499 766 c 1
 651 766 l 1
 649 757 l 1
 610 719 521 646 465 606 c 1
 372 606 l 1
 375 619 l 1
319 -10 m 0
 146 -10 83 83 122 266 c 0
 163 458 273 556 445 556 c 0
 500 556 557 546 607 521 c 1
 541 409 l 1
 497 430 462 436 431 436 c 0
 344 436 287 380 264 272 c 0
 240 159 280 111 363 111 c 0
 401 111 450 121 513 154 c 1
 486 27 l 1
 423 -2 370 -10 319 -10 c 0
EndSplineSet
Validated: 1048609
Substitution2: "'smcp' Lowercase to Small Capitals lookup 35 subtable" cacute.sc
Substitution2: "'aalt' Access All Alternates lookup 0 subtable" cacute.sc
EndChar

StartChar: Ccircumflex
Encoding: 264 264 202
Width: 563
GlyphClass: 2
Flags: HW
AnchorPoint: "Anchor-2" 695 714 basechar 0
AnchorPoint: "Anchor-1" 534 934 basechar 0
AnchorPoint: "Anchor-0" 340 0 basechar 0
LayerCount: 2
Fore
SplineSet
333 787 m 1
 374 826 439 894 469 934 c 1
 604 934 l 1
 618 890 649 832 675 787 c 1
 673 774 l 1
 591 774 l 1
 567 795 542 823 519 858 c 1
 481 823 443 793 414 774 c 1
 331 774 l 1
 333 787 l 1
334 -12 m 0
 139 -12 72 126 119 347 c 0
 167 575 311 725 515 725 c 0
 580 725 629 710 676 682 c 1
 607 567 l 1
 567 590 530 600 490 600 c 0
 364 600 292 498 261 351 c 0
 227 190 267 113 383 113 c 0
 430 113 473 124 535 151 c 1
 508 24 l 1
 452 0 392 -12 334 -12 c 0
EndSplineSet
Validated: 1048609
Substitution2: "'c2sc' Capitals to Small Capitals lookup 34 subtable" ccircumflex.sc
Substitution2: "'aalt' Access All Alternates lookup 0 subtable" ccircumflex.sc
EndChar

StartChar: ccircumflex
Encoding: 265 265 203
Width: 563
GlyphClass: 2
Flags: HW
AnchorPoint: "Anchor-2" 659 546 basechar 0
AnchorPoint: "Anchor-1" 472 764 basechar 0
AnchorPoint: "Anchor-0" 337 0 basechar 0
LayerCount: 2
Fore
SplineSet
270 619 m 1
 312 658 375 726 406 766 c 1
 540 766 l 1
 555 722 586 664 613 619 c 1
 610 606 l 1
 527 606 l 1
 504 627 480 655 456 690 c 1
 418 655 380 625 351 606 c 1
 267 606 l 1
 270 619 l 1
319 -10 m 0
 146 -10 83 83 122 266 c 0
 163 458 273 556 445 556 c 0
 500 556 557 546 607 521 c 1
 541 409 l 1
 497 430 462 436 431 436 c 0
 344 436 287 380 264 272 c 0
 240 159 280 111 363 111 c 0
 401 111 450 121 513 154 c 1
 486 27 l 1
 423 -2 370 -10 319 -10 c 0
EndSplineSet
Validated: 1048609
Substitution2: "'smcp' Lowercase to Small Capitals lookup 35 subtable" ccircumflex.sc
Substitution2: "'aalt' Access All Alternates lookup 0 subtable" ccircumflex.sc
EndChar

StartChar: Cdot
Encoding: 266 266 204
Width: 563
GlyphClass: 2
Flags: HW
AnchorPoint: "Anchor-2" 695 714 basechar 0
AnchorPoint: "Anchor-1" 530 914 basechar 0
AnchorPoint: "Anchor-0" 340 0 basechar 0
LayerCount: 2
Fore
SplineSet
501 775 m 0
 447 775 423 803 434 857 c 0
 445 910 479 938 536 938 c 0
 593 938 614 910 603 857 c 0
 592 805 559 775 501 775 c 0
334 -12 m 0
 139 -12 72 126 119 347 c 0
 167 575 311 725 515 725 c 0
 580 725 629 710 676 682 c 1
 607 567 l 1
 567 590 530 600 490 600 c 0
 364 600 292 498 261 351 c 0
 227 190 267 113 383 113 c 0
 430 113 473 124 535 151 c 1
 508 24 l 1
 452 0 392 -12 334 -12 c 0
EndSplineSet
Validated: 1048609
Substitution2: "'c2sc' Capitals to Small Capitals lookup 34 subtable" cdotaccent.sc
Substitution2: "'aalt' Access All Alternates lookup 0 subtable" cdotaccent.sc
EndChar

StartChar: cdot
Encoding: 267 267 205
Width: 563
GlyphClass: 2
Flags: HW
AnchorPoint: "Anchor-2" 659 546 basechar 0
AnchorPoint: "Anchor-1" 469 746 basechar 0
AnchorPoint: "Anchor-0" 326 0 basechar 0
LayerCount: 2
Fore
SplineSet
438 611 m 0
 385 611 360 638 371 692 c 0
 382 746 418 774 475 774 c 0
 531 774 552 746 541 693 c 0
 530 640 497 611 438 611 c 0
319 -10 m 0
 146 -10 83 83 122 266 c 0
 163 458 273 556 445 556 c 0
 500 556 557 546 607 521 c 1
 541 409 l 1
 497 430 462 436 431 436 c 0
 344 436 287 380 264 272 c 0
 240 159 280 111 363 111 c 0
 401 111 450 121 513 154 c 1
 486 27 l 1
 423 -2 370 -10 319 -10 c 0
EndSplineSet
Validated: 1048609
EndChar

StartChar: Ccaron
Encoding: 268 268 206
Width: 563
GlyphClass: 2
Flags: HW
AnchorPoint: "Anchor-2" 695 714 basechar 0
AnchorPoint: "Anchor-1" 532 934 basechar 0
AnchorPoint: "Anchor-0" 345 0 basechar 0
LayerCount: 2
Fore
SplineSet
435 774 m 1
 422 815 386 883 362 921 c 1
 365 934 l 1
 448 934 l 1
 470 913 495 885 517 851 c 1
 557 887 590 911 624 934 c 1
 707 934 l 1
 704 921 l 1
 665 884 601 818 569 774 c 1
 435 774 l 1
334 -12 m 0
 139 -12 72 126 119 347 c 0
 167 575 311 725 515 725 c 0
 580 725 629 710 676 682 c 1
 607 567 l 1
 567 590 530 600 490 600 c 0
 364 600 292 498 261 351 c 0
 227 190 267 113 383 113 c 0
 430 113 473 124 535 151 c 1
 508 24 l 1
 452 0 392 -12 334 -12 c 0
EndSplineSet
Validated: 1048609
Substitution2: "'c2sc' Capitals to Small Capitals lookup 34 subtable" ccaron.sc
Substitution2: "'aalt' Access All Alternates lookup 0 subtable" ccaron.sc
EndChar

StartChar: ccaron
Encoding: 269 269 207
Width: 563
GlyphClass: 2
Flags: HW
AnchorPoint: "Anchor-2" 659 546 basechar 0
AnchorPoint: "Anchor-1" 474 766 basechar 0
AnchorPoint: "Anchor-0" 307 0 basechar 0
LayerCount: 2
Fore
SplineSet
372 606 m 1
 358 647 322 715 298 753 c 1
 301 766 l 1
 385 766 l 1
 407 745 431 717 454 683 c 1
 493 719 527 743 560 766 c 1
 644 766 l 1
 641 753 l 1
 602 716 538 650 505 606 c 1
 372 606 l 1
319 -10 m 0
 146 -10 83 83 122 266 c 0
 163 458 273 556 445 556 c 0
 500 556 557 546 607 521 c 1
 541 409 l 1
 497 430 462 436 431 436 c 0
 344 436 287 380 264 272 c 0
 240 159 280 111 363 111 c 0
 401 111 450 121 513 154 c 1
 486 27 l 1
 423 -2 370 -10 319 -10 c 0
EndSplineSet
Validated: 1048609
Substitution2: "'smcp' Lowercase to Small Capitals lookup 35 subtable" ccaron.sc
Substitution2: "'aalt' Access All Alternates lookup 0 subtable" ccaron.sc
EndChar

StartChar: Dcaron
Encoding: 270 270 208
Width: 563
GlyphClass: 2
Flags: HW
AnchorPoint: "Anchor-3" 362 357 basechar 0
AnchorPoint: "Anchor-2" 715 714 basechar 0
AnchorPoint: "Anchor-1" 469 934 basechar 0
AnchorPoint: "Anchor-0" 282 0 basechar 0
LayerCount: 2
Fore
SplineSet
369 774 m 1
 356 815 320 883 296 921 c 1
 299 934 l 1
 382 934 l 1
 404 913 429 885 451 851 c 1
 491 887 524 911 558 934 c 1
 641 934 l 1
 638 921 l 1
 599 884 535 818 503 774 c 1
 369 774 l 1
41 0 m 1
 193 714 l 1
 401 714 l 2
 580 714 663 594 615 366 c 0
 565 130 425 0 238 0 c 2
 41 0 l 1
256 122 m 2
 369 122 437 200 472 363 c 0
 506 523 469 592 366 592 c 2
 305 592 l 1
 205 122 l 1
 256 122 l 2
EndSplineSet
Validated: 33
Substitution2: "'c2sc' Capitals to Small Capitals lookup 34 subtable" dcaron.sc
Substitution2: "'aalt' Access All Alternates lookup 0 subtable" dcaron.sc
EndChar

StartChar: dcaron
Encoding: 271 271 209
Width: 563
GlyphClass: 2
Flags: HW
AnchorPoint: "Anchor-3" 294 273 basechar 0
AnchorPoint: "Anchor-2" 660 760 basechar 0
AnchorPoint: "Anchor-1" 424 760 basechar 0
AnchorPoint: "Anchor-0" 236 0 basechar 0
LayerCount: 2
Fore
SplineSet
194 -10 m 0
 75 -10 50 114 84 273 c 0
 119 439 199 556 323 556 c 0
 381 556 414 529 436 476 c 1
 441 476 l 1
 441 514 446 551 454 589 c 2
 491 760 l 1
 628 760 l 1
 466 0 l 1
 362 0 l 1
 348 71 l 1
 341 71 l 1
 297 18 250 -10 194 -10 c 0
619 611 m 1
 635 646 665 720 677 760 c 1
 806 760 l 1
 804 751 l 1
 777 706 739 648 698 600 c 1
 617 600 l 1
 619 611 l 1
276 109 m 0
 333 109 373 159 394 257 c 2
 397 273 l 2
 420 379 412 437 346 437 c 0
 277 437 246 371 227 280 c 0
 201 158 219 109 276 109 c 0
EndSplineSet
Validated: 33
Substitution2: "'smcp' Lowercase to Small Capitals lookup 35 subtable" dcaron.sc
Substitution2: "'aalt' Access All Alternates lookup 0 subtable" dcaron.sc
EndChar

StartChar: Dcroat
Encoding: 272 272 210
Width: 563
GlyphClass: 2
Flags: HW
AnchorPoint: "Anchor-3" 366 357 basechar 0
AnchorPoint: "Anchor-2" 719 714 basechar 0
AnchorPoint: "Anchor-1" 434 714 basechar 0
AnchorPoint: "Anchor-0" 282 0 basechar 0
LayerCount: 2
Fore
SplineSet
45 0 m 1
 109 303 l 1
 64 303 l 1
 88 414 l 1
 133 414 l 1
 197 714 l 1
 404 714 l 2
 583 714 667 594 619 366 c 0
 569 130 429 0 242 0 c 2
 45 0 l 1
260 122 m 2
 373 122 441 200 476 363 c 0
 510 523 473 592 370 592 c 2
 309 592 l 1
 271 414 l 1
 368 414 l 1
 344 303 l 1
 247 303 l 1
 209 122 l 1
 260 122 l 2
EndSplineSet
Validated: 33
Substitution2: "'c2sc' Capitals to Small Capitals lookup 34 subtable" dcroat.sc
Substitution2: "'aalt' Access All Alternates lookup 0 subtable" dcroat.sc
EndChar

StartChar: dcroat
Encoding: 273 273 211
Width: 563
GlyphClass: 2
Flags: HW
AnchorPoint: "Anchor-3" 340 273 basechar 0
AnchorPoint: "Anchor-2" 705 760 basechar 0
AnchorPoint: "Anchor-1" 444 760 basechar 0
AnchorPoint: "Anchor-0" 282 0 basechar 0
LayerCount: 2
Fore
SplineSet
221 -10 m 0
 89 -10 60 110 93 267 c 0
 127 429 212 546 348 546 c 0
 414 546 458 518 481 466 c 1
 485 466 l 1
 486 504 490 541 499 585 c 2
 500 587 l 1
 371 587 l 1
 390 679 l 1
 519 679 l 1
 537 760 l 1
 674 760 l 1
 656 679 l 1
 707 679 l 1
 688 587 l 1
 637 587 l 1
 512 0 l 1
 409 0 l 1
 394 71 l 1
 388 71 l 1
 342 18 284 -10 221 -10 c 0
306 109 m 0
 377 109 421 157 440 247 c 2
 444 266 l 2
 464 360 457 427 377 427 c 0
 303 427 258 371 235 264 c 0
 212 155 236 109 306 109 c 0
EndSplineSet
Validated: 33
Substitution2: "'smcp' Lowercase to Small Capitals lookup 35 subtable" dcroat.sc
Substitution2: "'aalt' Access All Alternates lookup 0 subtable" dcroat.sc
EndChar

StartChar: Emacron
Encoding: 274 274 212
Width: 563
GlyphClass: 2
Flags: HW
AnchorPoint: "Anchor-2" 695 714 basechar 0
AnchorPoint: "Anchor-1" 477 883 basechar 0
AnchorPoint: "Anchor-0" 282 0 basechar 0
LayerCount: 2
Fore
SplineSet
309 787 m 1
 330 883 l 1
 620 883 l 1
 599 787 l 1
 309 787 l 1
71 0 m 1
 223 714 l 1
 653 714 l 1
 627 591 l 1
 332 591 l 1
 297 429 l 1
 576 429 l 1
 550 306 l 1
 271 306 l 1
 232 123 l 1
 527 123 l 1
 501 0 l 1
 71 0 l 1
EndSplineSet
Validated: 1048577
Substitution2: "'c2sc' Capitals to Small Capitals lookup 34 subtable" emacron.sc
Substitution2: "'aalt' Access All Alternates lookup 0 subtable" emacron.sc
EndChar

StartChar: emacron
Encoding: 275 275 213
Width: 563
GlyphClass: 2
Flags: HW
AnchorPoint: "Anchor-2" 659 546 basechar 0
AnchorPoint: "Anchor-1" 444 715 basechar 0
AnchorPoint: "Anchor-0" 282 0 basechar 0
LayerCount: 2
Fore
SplineSet
278 619 m 1
 298 715 l 1
 588 715 l 1
 568 619 l 1
 278 619 l 1
322 -10 m 0
 142 -10 64 92 103 275 c 0
 140 449 251 556 408 556 c 0
 552 556 618 467 584 306 c 2
 568 232 l 1
 233 232 l 1
 220 151 274 108 361 108 c 0
 418 108 475 124 530 145 c 1
 505 29 l 1
 453 4 390 -10 322 -10 c 0
458 330 m 1
 473 404 441 444 385 444 c 0
 329 444 278 406 256 330 c 1
 458 330 l 1
EndSplineSet
Validated: 1048609
Substitution2: "'smcp' Lowercase to Small Capitals lookup 35 subtable" emacron.sc
Substitution2: "'aalt' Access All Alternates lookup 0 subtable" emacron.sc
EndChar

StartChar: Ebreve
Encoding: 276 276 214
Width: 563
GlyphClass: 2
Flags: HW
AnchorPoint: "Anchor-2" 695 714 basechar 0
AnchorPoint: "Anchor-1" 486 934 basechar 0
AnchorPoint: "Anchor-0" 282 0 basechar 0
LayerCount: 2
Fore
SplineSet
451 776 m 0
 358 776 307 833 327 935 c 1
 408 935 l 1
 401 885 427 866 471 866 c 0
 512 866 549 884 564 935 c 1
 646 935 l 1
 623 838 545 776 451 776 c 0
71 0 m 1
 223 714 l 1
 653 714 l 1
 627 591 l 1
 332 591 l 1
 297 429 l 1
 576 429 l 1
 550 306 l 1
 271 306 l 1
 232 123 l 1
 527 123 l 1
 501 0 l 1
 71 0 l 1
EndSplineSet
Validated: 1048609
Substitution2: "'c2sc' Capitals to Small Capitals lookup 34 subtable" ebreve.sc
Substitution2: "'aalt' Access All Alternates lookup 0 subtable" ebreve.sc
EndChar

StartChar: ebreve
Encoding: 277 277 215
Width: 563
GlyphClass: 2
Flags: HW
AnchorPoint: "Anchor-2" 659 546 basechar 0
AnchorPoint: "Anchor-1" 452 767 basechar 0
AnchorPoint: "Anchor-0" 282 0 basechar 0
LayerCount: 2
Fore
SplineSet
419 608 m 0
 326 608 275 665 295 767 c 1
 376 767 l 1
 369 717 395 698 439 698 c 0
 480 698 517 716 532 767 c 1
 614 767 l 1
 591 670 513 608 419 608 c 0
322 -10 m 0
 142 -10 64 92 103 275 c 0
 140 449 251 556 408 556 c 0
 552 556 618 467 584 306 c 2
 568 232 l 1
 233 232 l 1
 220 151 274 108 361 108 c 0
 418 108 475 124 530 145 c 1
 505 29 l 1
 453 4 390 -10 322 -10 c 0
458 330 m 1
 473 404 441 444 385 444 c 0
 329 444 278 406 256 330 c 1
 458 330 l 1
EndSplineSet
Validated: 1048609
Substitution2: "'smcp' Lowercase to Small Capitals lookup 35 subtable" ebreve.sc
Substitution2: "'aalt' Access All Alternates lookup 0 subtable" ebreve.sc
EndChar

StartChar: Edotaccent
Encoding: 278 278 216
Width: 563
GlyphClass: 2
Flags: HW
AnchorPoint: "Anchor-2" 695 714 basechar 0
AnchorPoint: "Anchor-1" 481 914 basechar 0
AnchorPoint: "Anchor-0" 282 0 basechar 0
LayerCount: 2
Fore
SplineSet
451 775 m 0
 397 775 373 803 384 857 c 0
 395 910 429 938 486 938 c 0
 543 938 565 910 554 857 c 0
 543 805 509 775 451 775 c 0
71 0 m 1
 223 714 l 1
 653 714 l 1
 627 591 l 1
 332 591 l 1
 297 429 l 1
 576 429 l 1
 550 306 l 1
 271 306 l 1
 232 123 l 1
 527 123 l 1
 501 0 l 1
 71 0 l 1
EndSplineSet
Validated: 1048609
Substitution2: "'c2sc' Capitals to Small Capitals lookup 34 subtable" edotaccent.sc
Substitution2: "'aalt' Access All Alternates lookup 0 subtable" edotaccent.sc
EndChar

StartChar: edotaccent
Encoding: 279 279 217
Width: 563
GlyphClass: 2
Flags: HW
AnchorPoint: "Anchor-2" 659 546 basechar 0
AnchorPoint: "Anchor-1" 451 746 basechar 0
AnchorPoint: "Anchor-0" 282 0 basechar 0
LayerCount: 2
Fore
SplineSet
420 611 m 0
 366 611 342 638 353 692 c 0
 364 746 399 774 456 774 c 0
 513 774 534 746 523 693 c 0
 512 640 478 611 420 611 c 0
322 -10 m 0
 142 -10 64 92 103 275 c 0
 140 449 251 556 408 556 c 0
 552 556 618 467 584 306 c 2
 568 232 l 1
 233 232 l 1
 220 151 274 108 361 108 c 0
 418 108 475 124 530 145 c 1
 505 29 l 1
 453 4 390 -10 322 -10 c 0
458 330 m 1
 473 404 441 444 385 444 c 0
 329 444 278 406 256 330 c 1
 458 330 l 1
EndSplineSet
Validated: 1048609
Substitution2: "'smcp' Lowercase to Small Capitals lookup 35 subtable" edotaccent.sc
Substitution2: "'aalt' Access All Alternates lookup 0 subtable" edotaccent.sc
EndChar

StartChar: Eogonek
Encoding: 280 280 218
Width: 563
GlyphClass: 2
Flags: HW
AnchorPoint: "Anchor-2" 695 714 basechar 0
AnchorPoint: "Anchor-1" 444 714 basechar 0
AnchorPoint: "Anchor-0" 253 -236 basechar 0
LayerCount: 2
Fore
SplineSet
71 0 m 1
 223 714 l 1
 653 714 l 1
 627 591 l 1
 332 591 l 1
 297 429 l 1
 576 429 l 1
 550 306 l 1
 271 306 l 1
 232 123 l 1
 527 123 l 1
 501 0 l 1
 454 0 l 1
 401 -44 378 -75 372 -105 c 0
 366 -134 377 -150 403 -150 c 0
 420 -150 436 -145 447 -141 c 1
 429 -224 l 1
 412 -231 389 -236 360 -236 c 0
 284 -236 252 -195 266 -131 c 0
 276 -86 312 -38 367 0 c 1
 71 0 l 1
EndSplineSet
Validated: 1048609
Substitution2: "'c2sc' Capitals to Small Capitals lookup 34 subtable" eogonek.sc
Substitution2: "'locl' Localized Forms in Latin lookup 10 subtable" Eogonek.loclNAV
Ligature2: "'ccmp' Glyph Composition/Decomposition lookup 6 subtable" E uni0328
AlternateSubs2: "'aalt' Access All Alternates lookup 1 subtable" Eogonek.loclNAV eogonek.sc
EndChar

StartChar: eogonek
Encoding: 281 281 219
Width: 563
GlyphClass: 2
Flags: HW
AnchorPoint: "Anchor-2" 659 546 basechar 0
AnchorPoint: "Anchor-1" 398 546 basechar 0
AnchorPoint: "Anchor-0" 248 -236 basechar 0
LayerCount: 2
Fore
SplineSet
322 -10 m 0
 142 -10 64 92 103 275 c 0
 140 449 251 556 408 556 c 0
 552 556 618 467 584 306 c 2
 568 232 l 1
 233 232 l 1
 220 151 274 108 361 108 c 0
 418 108 475 124 530 145 c 1
 505 29 l 2
 504 28 503 28 503 27 c 0
 432 -14 396 -55 386 -101 c 0
 379 -134 387 -150 417 -150 c 0
 433 -150 448 -145 459 -141 c 1
 441 -224 l 1
 425 -231 401 -236 374 -236 c 0
 297 -236 266 -191 280 -126 c 0
 290 -77 320 -40 357 -9 c 1
 345 -10 334 -10 322 -10 c 0
458 330 m 1
 473 404 441 444 385 444 c 0
 329 444 278 406 256 330 c 1
 458 330 l 1
EndSplineSet
Validated: 1048609
Substitution2: "'smcp' Lowercase to Small Capitals lookup 35 subtable" eogonek.sc
Substitution2: "'locl' Localized Forms in Latin lookup 10 subtable" eogonek.loclNAV
Ligature2: "'ccmp' Glyph Composition/Decomposition lookup 6 subtable" e uni0328
AlternateSubs2: "'aalt' Access All Alternates lookup 1 subtable" eogonek.loclNAV eogonek.sc
EndChar

StartChar: Ecaron
Encoding: 282 282 220
Width: 563
GlyphClass: 2
Flags: HW
AnchorPoint: "Anchor-2" 695 714 basechar 0
AnchorPoint: "Anchor-1" 486 934 basechar 0
AnchorPoint: "Anchor-0" 282 0 basechar 0
LayerCount: 2
Fore
SplineSet
386 774 m 1
 372 815 336 883 312 921 c 1
 315 934 l 1
 399 934 l 1
 420 913 445 885 467 851 c 1
 507 887 541 911 574 934 c 1
 657 934 l 1
 654 921 l 1
 615 884 552 818 519 774 c 1
 386 774 l 1
71 0 m 1
 223 714 l 1
 653 714 l 1
 627 591 l 1
 332 591 l 1
 297 429 l 1
 576 429 l 1
 550 306 l 1
 271 306 l 1
 232 123 l 1
 527 123 l 1
 501 0 l 1
 71 0 l 1
EndSplineSet
Validated: 1048577
Substitution2: "'c2sc' Capitals to Small Capitals lookup 34 subtable" ecaron.sc
Substitution2: "'aalt' Access All Alternates lookup 0 subtable" ecaron.sc
EndChar

StartChar: ecaron
Encoding: 283 283 221
Width: 563
GlyphClass: 2
Flags: HW
AnchorPoint: "Anchor-2" 659 546 basechar 0
AnchorPoint: "Anchor-1" 452 766 basechar 0
AnchorPoint: "Anchor-0" 282 0 basechar 0
LayerCount: 2
Fore
SplineSet
354 606 m 1
 340 647 304 715 280 753 c 1
 283 766 l 1
 367 766 l 1
 388 745 413 717 435 683 c 1
 475 719 509 743 542 766 c 1
 625 766 l 1
 622 753 l 1
 583 716 520 650 487 606 c 1
 354 606 l 1
322 -10 m 0
 142 -10 64 92 103 275 c 0
 140 449 251 556 408 556 c 0
 552 556 618 467 584 306 c 2
 568 232 l 1
 233 232 l 1
 220 151 274 108 361 108 c 0
 418 108 475 124 530 145 c 1
 505 29 l 1
 453 4 390 -10 322 -10 c 0
458 330 m 1
 473 404 441 444 385 444 c 0
 329 444 278 406 256 330 c 1
 458 330 l 1
EndSplineSet
Validated: 1048609
Substitution2: "'smcp' Lowercase to Small Capitals lookup 35 subtable" ecaron.sc
Substitution2: "'aalt' Access All Alternates lookup 0 subtable" ecaron.sc
EndChar

StartChar: Gcircumflex
Encoding: 284 284 222
Width: 563
GlyphClass: 2
Flags: HW
AnchorPoint: "Anchor-2" 695 714 basechar 0
AnchorPoint: "Anchor-1" 507 934 basechar 0
AnchorPoint: "Anchor-0" 282 0 basechar 0
LayerCount: 2
Fore
SplineSet
306 787 m 1
 347 826 412 894 442 934 c 1
 577 934 l 1
 591 890 622 832 648 787 c 1
 646 774 l 1
 564 774 l 1
 540 795 515 823 492 858 c 1
 454 823 416 793 387 774 c 1
 304 774 l 1
 306 787 l 1
324 -10 m 0
 116 -10 54 130 100 348 c 0
 151 586 289 724 486 724 c 0
 553 724 614 708 663 680 c 1
 594 565 l 1
 559 591 516 601 475 601 c 0
 352 601 275 511 241 353 c 0
 211 210 239 112 346 112 c 0
 373 112 399 117 423 122 c 1
 457 283 l 1
 363 283 l 1
 388 402 l 1
 607 402 l 1
 528 30 l 1
 455 1 396 -10 324 -10 c 0
EndSplineSet
Validated: 1048609
Substitution2: "'c2sc' Capitals to Small Capitals lookup 34 subtable" gcircumflex.sc
Substitution2: "'aalt' Access All Alternates lookup 0 subtable" gcircumflex.sc
EndChar

StartChar: gcircumflex
Encoding: 285 285 223
Width: 563
GlyphClass: 2
Flags: HW
AnchorPoint: "Anchor-2" 659 546 basechar 0
AnchorPoint: "Anchor-1" 445 766 basechar 0
AnchorPoint: "Anchor-0" 230 -245 basechar 0
LayerCount: 2
Fore
SplineSet
242 619 m 1
 284 658 347 726 378 766 c 1
 512 766 l 1
 527 722 558 664 585 619 c 1
 582 606 l 1
 499 606 l 1
 476 627 452 655 428 690 c 1
 390 655 352 625 323 606 c 1
 239 606 l 1
 242 619 l 1
192 -245 m 0
 137 -245 81 -237 25 -213 c 1
 53 -81 l 1
 112 -109 168 -123 223 -123 c 0
 307 -122 351 -86 368 -8 c 2
 371 4 l 2
 376 26 382 50 387 68 c 1
 383 68 l 1
 337 13 287 -10 228 -10 c 0
 106 -10 56 95 94 273 c 0
 132 452 228 557 347 557 c 0
 408 557 449 529 473 476 c 1
 477 476 l 1
 515 546 l 1
 628 546 l 1
 512 -1 l 2
 479 -158 377 -245 192 -245 c 0
305 109 m 0
 369 109 413 158 433 252 c 2
 437 271 l 2
 462 388 441 437 373 437 c 0
 305 437 260 380 237 273 c 0
 214 167 235 109 305 109 c 0
EndSplineSet
Validated: 1048609
Substitution2: "'smcp' Lowercase to Small Capitals lookup 35 subtable" gcircumflex.sc
Substitution2: "'aalt' Access All Alternates lookup 0 subtable" gcircumflex.sc
EndChar

StartChar: Gbreve
Encoding: 286 286 224
Width: 563
GlyphClass: 2
Flags: HW
AnchorPoint: "Anchor-2" 695 714 basechar 0
AnchorPoint: "Anchor-1" 507 937 basechar 0
AnchorPoint: "Anchor-0" 282 0 basechar 0
LayerCount: 2
Fore
SplineSet
474 776 m 0
 381 776 330 833 350 935 c 1
 431 935 l 1
 423 885 450 866 494 866 c 0
 535 866 572 884 587 935 c 1
 668 935 l 1
 645 838 568 776 474 776 c 0
324 -10 m 0
 116 -10 54 130 100 348 c 0
 151 586 289 724 486 724 c 0
 553 724 614 708 663 680 c 1
 594 565 l 1
 559 591 516 601 475 601 c 0
 352 601 275 511 241 353 c 0
 211 210 239 112 346 112 c 0
 373 112 399 117 423 122 c 1
 457 283 l 1
 363 283 l 1
 388 402 l 1
 607 402 l 1
 528 30 l 1
 455 1 396 -10 324 -10 c 0
EndSplineSet
Validated: 1048609
Substitution2: "'c2sc' Capitals to Small Capitals lookup 34 subtable" gbreve.sc
Substitution2: "'aalt' Access All Alternates lookup 0 subtable" gbreve.sc
EndChar

StartChar: gbreve
Encoding: 287 287 225
Width: 563
GlyphClass: 2
Flags: HW
AnchorPoint: "Anchor-2" 659 546 basechar 0
AnchorPoint: "Anchor-1" 445 767 basechar 0
AnchorPoint: "Anchor-0" 230 -245 basechar 0
LayerCount: 2
Fore
SplineSet
409 608 m 0
 317 608 266 665 285 767 c 1
 366 767 l 1
 359 717 386 698 429 698 c 0
 471 698 507 716 523 767 c 1
 604 767 l 1
 581 670 503 608 409 608 c 0
192 -245 m 0
 137 -245 81 -237 25 -213 c 1
 53 -81 l 1
 112 -109 168 -123 223 -123 c 0
 307 -122 351 -86 368 -8 c 2
 371 4 l 2
 376 26 382 50 387 68 c 1
 383 68 l 1
 337 13 287 -10 228 -10 c 0
 106 -10 56 95 94 273 c 0
 132 452 228 557 347 557 c 0
 408 557 449 529 473 476 c 1
 477 476 l 1
 515 546 l 1
 628 546 l 1
 512 -1 l 2
 479 -158 377 -245 192 -245 c 0
305 109 m 0
 369 109 413 158 433 252 c 2
 437 271 l 2
 462 388 441 437 373 437 c 0
 305 437 260 380 237 273 c 0
 214 167 235 109 305 109 c 0
EndSplineSet
Validated: 1048609
Substitution2: "'smcp' Lowercase to Small Capitals lookup 35 subtable" gbreve.sc
Substitution2: "'aalt' Access All Alternates lookup 0 subtable" gbreve.sc
EndChar

StartChar: Gdot
Encoding: 288 288 226
Width: 563
GlyphClass: 2
Flags: HW
AnchorPoint: "Anchor-2" 695 714 basechar 0
AnchorPoint: "Anchor-1" 504 914 basechar 0
AnchorPoint: "Anchor-0" 282 0 basechar 0
LayerCount: 2
Fore
SplineSet
474 775 m 0
 420 775 396 803 407 857 c 0
 418 910 452 938 509 938 c 0
 566 938 587 910 576 857 c 0
 565 805 532 775 474 775 c 0
324 -10 m 0
 116 -10 54 130 100 348 c 0
 151 586 289 724 486 724 c 0
 553 724 614 708 663 680 c 1
 594 565 l 1
 559 591 516 601 475 601 c 0
 352 601 275 511 241 353 c 0
 211 210 239 112 346 112 c 0
 373 112 399 117 423 122 c 1
 457 283 l 1
 363 283 l 1
 388 402 l 1
 607 402 l 1
 528 30 l 1
 455 1 396 -10 324 -10 c 0
EndSplineSet
Validated: 1048609
Substitution2: "'c2sc' Capitals to Small Capitals lookup 34 subtable" gdotaccent.sc
Substitution2: "'aalt' Access All Alternates lookup 0 subtable" gdotaccent.sc
EndChar

StartChar: gdot
Encoding: 289 289 227
Width: 563
GlyphClass: 2
Flags: HW
AnchorPoint: "Anchor-2" 659 546 basechar 0
AnchorPoint: "Anchor-1" 441 746 basechar 0
AnchorPoint: "Anchor-0" 230 -245 basechar 0
LayerCount: 2
Fore
SplineSet
410 611 m 0
 357 611 332 639 343 693 c 0
 354 746 390 774 447 774 c 0
 503 774 524 746 513 693 c 0
 502 641 469 611 410 611 c 0
192 -245 m 0
 137 -245 81 -237 25 -213 c 1
 53 -81 l 1
 112 -109 168 -123 223 -123 c 0
 307 -122 351 -86 368 -8 c 2
 371 4 l 2
 376 26 382 50 387 68 c 1
 383 68 l 1
 337 13 287 -10 228 -10 c 0
 106 -10 56 95 94 273 c 0
 132 452 228 557 347 557 c 0
 408 557 449 529 473 476 c 1
 477 476 l 1
 515 546 l 1
 628 546 l 1
 512 -1 l 2
 479 -158 377 -245 192 -245 c 0
305 109 m 0
 369 109 413 158 433 252 c 2
 437 271 l 2
 462 388 441 437 373 437 c 0
 305 437 260 380 237 273 c 0
 214 167 235 109 305 109 c 0
EndSplineSet
Validated: 1048609
EndChar

StartChar: uni0122
Encoding: 290 290 228
Width: 563
GlyphClass: 2
Flags: HW
AnchorPoint: "Anchor-2" 695 714 basechar 0
AnchorPoint: "Anchor-1" 469 714 basechar 0
AnchorPoint: "Anchor-0" 235 -221 basechar 0
LayerCount: 2
Fore
SplineSet
324 -10 m 0
 116 -10 54 130 100 348 c 0
 151 586 289 724 486 724 c 0
 553 724 614 708 663 680 c 1
 594 565 l 1
 559 591 516 601 475 601 c 0
 352 601 275 511 241 353 c 0
 211 210 239 112 346 112 c 0
 373 112 399 117 423 122 c 1
 457 283 l 1
 363 283 l 1
 388 402 l 1
 607 402 l 1
 528 30 l 1
 455 1 396 -10 324 -10 c 0
178 -208 m 1
 196 -171 224 -103 237 -61 c 1
 365 -61 l 1
 363 -70 l 1
 336 -116 297 -172 256 -221 c 1
 175 -221 l 1
 178 -208 l 1
EndSplineSet
Validated: 1048609
Substitution2: "'c2sc' Capitals to Small Capitals lookup 34 subtable" uni0123.sc
Substitution2: "'aalt' Access All Alternates lookup 0 subtable" uni0123.sc
EndChar

StartChar: uni0123
Encoding: 291 291 229
Width: 563
GlyphClass: 2
Flags: HW
AnchorPoint: "Anchor-2" 659 546 basechar 0
AnchorPoint: "Anchor-1" 447 766 basechar 0
AnchorPoint: "Anchor-0" 230 -245 basechar 0
LayerCount: 2
Fore
SplineSet
337 615 m 1
 363 660 402 717 445 766 c 1
 526 766 l 1
 523 755 l 1
 503 713 475 647 462 606 c 1
 335 606 l 1
 337 615 l 1
192 -245 m 0
 137 -245 81 -237 25 -213 c 1
 53 -81 l 1
 112 -109 168 -123 223 -123 c 0
 307 -122 351 -86 368 -8 c 2
 371 4 l 2
 376 26 382 50 387 68 c 1
 383 68 l 1
 337 13 287 -10 228 -10 c 0
 106 -10 56 95 94 273 c 0
 132 452 228 557 347 557 c 0
 408 557 449 529 473 476 c 1
 477 476 l 1
 515 546 l 1
 628 546 l 1
 512 -1 l 2
 479 -158 377 -245 192 -245 c 0
305 109 m 0
 369 109 413 158 433 252 c 2
 437 271 l 2
 462 388 441 437 373 437 c 0
 305 437 260 380 237 273 c 0
 214 167 235 109 305 109 c 0
EndSplineSet
Validated: 1048609
Substitution2: "'smcp' Lowercase to Small Capitals lookup 35 subtable" uni0123.sc
Substitution2: "'aalt' Access All Alternates lookup 0 subtable" uni0123.sc
EndChar

StartChar: Hcircumflex
Encoding: 292 292 230
Width: 563
GlyphClass: 2
Flags: HW
AnchorPoint: "Anchor-3" 361 372 basechar 0
AnchorPoint: "Anchor-2" 715 714 basechar 0
AnchorPoint: "Anchor-1" 481 934 basechar 0
AnchorPoint: "Anchor-0" 282 0 basechar 0
LayerCount: 2
Fore
SplineSet
277 787 m 1
 319 826 383 894 414 934 c 1
 548 934 l 1
 563 890 593 832 620 787 c 1
 618 774 l 1
 535 774 l 1
 512 795 487 823 463 858 c 1
 425 823 388 793 359 774 c 1
 275 774 l 1
 277 787 l 1
41 0 m 1
 193 714 l 1
 332 714 l 1
 272 434 l 1
 475 434 l 1
 535 714 l 1
 674 714 l 1
 522 0 l 1
 383 0 l 1
 449 309 l 1
 246 309 l 1
 180 0 l 1
 41 0 l 1
EndSplineSet
Validated: 1
Substitution2: "'c2sc' Capitals to Small Capitals lookup 34 subtable" hcircumflex.sc
Substitution2: "'aalt' Access All Alternates lookup 0 subtable" hcircumflex.sc
EndChar

StartChar: hcircumflex
Encoding: 293 293 231
Width: 563
GlyphClass: 2
Flags: HW
AnchorPoint: "Anchor-3" 340 273 basechar 0
AnchorPoint: "Anchor-2" 705 760 basechar 0
AnchorPoint: "Anchor-1" 331 980 basechar 0
AnchorPoint: "Anchor-0" 282 0 basechar 0
LayerCount: 2
Fore
SplineSet
129 833 m 1
 170 872 233 940 264 980 c 1
 398 980 l 1
 413 936 444 878 471 833 c 1
 468 820 l 1
 385 820 l 1
 362 841 338 869 314 904 c 1
 277 869 238 839 209 820 c 1
 126 820 l 1
 129 833 l 1
51 0 m 1
 213 760 l 1
 352 760 l 1
 318 601 l 2
 309 559 298 518 286 476 c 1
 295 476 l 1
 336 528 388 556 460 556 c 0
 574 556 621 486 593 356 c 2
 517 0 l 1
 378 0 l 1
 446 320 l 2
 464 404 444 437 387 437 c 0
 312 437 271 380 245 258 c 2
 190 0 l 1
 51 0 l 1
EndSplineSet
Validated: 33
Substitution2: "'smcp' Lowercase to Small Capitals lookup 35 subtable" hcircumflex.sc
Substitution2: "'aalt' Access All Alternates lookup 0 subtable" hcircumflex.sc
EndChar

StartChar: Hbar
Encoding: 294 294 232
Width: 563
GlyphClass: 2
Flags: HW
AnchorPoint: "Anchor-3" 358 357 basechar 0
AnchorPoint: "Anchor-1" 434 714 basechar 0
AnchorPoint: "Anchor-0" 282 0 basechar 0
LayerCount: 2
Fore
SplineSet
51 0 m 1
 162 523 l 1
 111 523 l 1
 131 616 l 1
 182 616 l 1
 203 714 l 1
 342 714 l 1
 321 616 l 1
 505 616 l 1
 526 714 l 1
 665 714 l 1
 644 616 l 1
 694 616 l 1
 674 523 l 1
 624 523 l 1
 513 0 l 1
 374 0 l 1
 440 309 l 1
 256 309 l 1
 190 0 l 1
 51 0 l 1
282 434 m 1
 466 434 l 1
 485 523 l 1
 301 523 l 1
 282 434 l 1
EndSplineSet
Validated: 1048577
Substitution2: "'c2sc' Capitals to Small Capitals lookup 34 subtable" hbar.sc
Substitution2: "'aalt' Access All Alternates lookup 0 subtable" hbar.sc
EndChar

StartChar: hbar
Encoding: 295 295 233
Width: 563
GlyphClass: 2
Flags: HW
AnchorPoint: "Anchor-3" 340 273 basechar 0
AnchorPoint: "Anchor-1" 285 760 basechar 0
AnchorPoint: "Anchor-0" 282 0 basechar 0
LayerCount: 2
Fore
SplineSet
51 0 m 1
 176 587 l 1
 125 587 l 1
 144 679 l 1
 195 679 l 1
 213 760 l 1
 352 760 l 1
 334 679 l 1
 467 679 l 1
 448 587 l 1
 315 587 l 1
 306 546 296 506 284 466 c 1
 293 466 l 1
 334 518 386 546 458 546 c 0
 572 546 619 476 591 346 c 2
 517 0 l 1
 378 0 l 1
 444 310 l 2
 462 394 442 427 385 427 c 0
 310 427 269 370 243 248 c 2
 190 0 l 1
 51 0 l 1
EndSplineSet
Validated: 1048609
Substitution2: "'smcp' Lowercase to Small Capitals lookup 35 subtable" hbar.sc
Substitution2: "'aalt' Access All Alternates lookup 0 subtable" hbar.sc
EndChar

StartChar: Itilde
Encoding: 296 296 234
Width: 563
GlyphClass: 2
Flags: HW
AnchorPoint: "Anchor-2" 695 714 basechar 0
AnchorPoint: "Anchor-1" 478 922 basechar 0
AnchorPoint: "Anchor-0" 282 0 basechar 0
LayerCount: 2
Fore
SplineSet
266 773 m 1
 287 849 331 921 400 921 c 0
 456 921 493 870 538 870 c 0
 561 870 573 888 587 922 c 1
 657 922 l 1
 633 826 580 774 524 774 c 0
 471 774 425 825 385 825 c 0
 363 825 350 809 337 773 c 1
 266 773 l 1
79 0 m 1
 100 100 l 1
 238 115 l 1
 342 600 l 1
 210 614 l 1
 231 714 l 1
 636 714 l 1
 615 614 l 1
 475 600 l 1
 371 115 l 1
 505 100 l 1
 484 0 l 1
 79 0 l 1
EndSplineSet
Validated: 1048577
Substitution2: "'c2sc' Capitals to Small Capitals lookup 34 subtable" itilde.sc
Substitution2: "'aalt' Access All Alternates lookup 0 subtable" itilde.sc
EndChar

StartChar: itilde
Encoding: 297 297 235
Width: 563
GlyphClass: 2
Flags: HW
AnchorPoint: "Anchor-3" 353 291 basechar 0
AnchorPoint: "Anchor-1" 442 754 basechar 0
AnchorPoint: "Anchor-0" 282 0 basechar 0
LayerCount: 2
Fore
SplineSet
231 605 m 1
 252 681 295 753 364 753 c 0
 420 753 457 702 502 702 c 0
 525 702 537 720 551 754 c 1
 621 754 l 1
 597 658 544 606 488 606 c 0
 435 606 390 657 350 657 c 0
 328 657 315 641 302 605 c 1
 231 605 l 1
58 0 m 1
 78 92 l 1
 249 115 l 1
 317 431 l 1
 177 446 l 1
 198 546 l 1
 480 546 l 1
 388 115 l 1
 532 92 l 1
 512 0 l 1
 58 0 l 1
EndSplineSet
Validated: 1048577
Substitution2: "'smcp' Lowercase to Small Capitals lookup 35 subtable" itilde.sc
Substitution2: "'aalt' Access All Alternates lookup 0 subtable" itilde.sc
EndChar

StartChar: Imacron
Encoding: 298 298 236
Width: 563
GlyphClass: 2
Flags: HW
AnchorPoint: "Anchor-2" 695 714 basechar 0
AnchorPoint: "Anchor-1" 470 883 basechar 0
AnchorPoint: "Anchor-0" 282 0 basechar 0
LayerCount: 2
Fore
SplineSet
303 787 m 1
 324 883 l 1
 615 883 l 1
 594 787 l 1
 303 787 l 1
79 0 m 1
 100 100 l 1
 238 115 l 1
 342 600 l 1
 210 614 l 1
 231 714 l 1
 636 714 l 1
 615 614 l 1
 475 600 l 1
 371 115 l 1
 505 100 l 1
 484 0 l 1
 79 0 l 1
EndSplineSet
Validated: 1048577
Substitution2: "'c2sc' Capitals to Small Capitals lookup 34 subtable" imacron.sc
Substitution2: "'aalt' Access All Alternates lookup 0 subtable" imacron.sc
EndChar

StartChar: imacron
Encoding: 299 299 237
Width: 563
GlyphClass: 2
Flags: HW
AnchorPoint: "Anchor-3" 353 291 basechar 0
AnchorPoint: "Anchor-1" 434 715 basechar 0
AnchorPoint: "Anchor-0" 282 0 basechar 0
LayerCount: 2
Fore
SplineSet
268 619 m 1
 288 715 l 1
 579 715 l 1
 559 619 l 1
 268 619 l 1
58 0 m 1
 78 92 l 1
 249 115 l 1
 317 431 l 1
 177 446 l 1
 198 546 l 1
 480 546 l 1
 388 115 l 1
 532 92 l 1
 512 0 l 1
 58 0 l 1
EndSplineSet
Validated: 1048577
Substitution2: "'smcp' Lowercase to Small Capitals lookup 35 subtable" imacron.sc
Substitution2: "'aalt' Access All Alternates lookup 0 subtable" imacron.sc
EndChar

StartChar: Ibreve
Encoding: 300 300 238
Width: 563
GlyphClass: 2
Flags: HW
AnchorPoint: "Anchor-2" 695 714 basechar 0
AnchorPoint: "Anchor-1" 481 935 basechar 0
AnchorPoint: "Anchor-0" 282 0 basechar 0
LayerCount: 2
Fore
SplineSet
445 776 m 0
 353 776 302 833 321 935 c 1
 402 935 l 1
 395 885 422 866 465 866 c 0
 507 866 543 884 559 935 c 1
 640 935 l 1
 617 838 539 776 445 776 c 0
79 0 m 1
 100 100 l 1
 238 115 l 1
 342 600 l 1
 210 614 l 1
 231 714 l 1
 636 714 l 1
 615 614 l 1
 475 600 l 1
 371 115 l 1
 505 100 l 1
 484 0 l 1
 79 0 l 1
EndSplineSet
Validated: 1048609
Substitution2: "'c2sc' Capitals to Small Capitals lookup 34 subtable" ibreve.sc
Substitution2: "'aalt' Access All Alternates lookup 0 subtable" ibreve.sc
EndChar

StartChar: ibreve
Encoding: 301 301 239
Width: 563
GlyphClass: 2
Flags: HW
AnchorPoint: "Anchor-3" 353 291 basechar 0
AnchorPoint: "Anchor-1" 445 767 basechar 0
AnchorPoint: "Anchor-0" 282 0 basechar 0
LayerCount: 2
Fore
SplineSet
409 608 m 0
 317 608 266 665 285 767 c 1
 366 767 l 1
 359 717 386 698 429 698 c 0
 471 698 507 716 523 767 c 1
 604 767 l 1
 581 670 503 608 409 608 c 0
58 0 m 1
 78 92 l 1
 249 115 l 1
 317 431 l 1
 177 446 l 1
 198 546 l 1
 480 546 l 1
 388 115 l 1
 532 92 l 1
 512 0 l 1
 58 0 l 1
EndSplineSet
Validated: 1048609
Substitution2: "'smcp' Lowercase to Small Capitals lookup 35 subtable" ibreve.sc
Substitution2: "'aalt' Access All Alternates lookup 0 subtable" ibreve.sc
EndChar

StartChar: Iogonek
Encoding: 302 302 240
Width: 563
GlyphClass: 2
Flags: HW
AnchorPoint: "Anchor-2" 695 714 basechar 0
AnchorPoint: "Anchor-1" 434 714 basechar 0
AnchorPoint: "Anchor-0" 232 -236 basechar 0
LayerCount: 2
Fore
SplineSet
79 0 m 1
 100 100 l 1
 238 115 l 1
 342 600 l 1
 210 614 l 1
 231 714 l 1
 636 714 l 1
 615 614 l 1
 475 600 l 1
 371 115 l 1
 505 100 l 1
 484 0 l 1
 411 0 l 1
 358 -44 335 -75 329 -105 c 0
 323 -134 334 -150 361 -150 c 0
 378 -150 393 -145 404 -141 c 1
 386 -224 l 1
 369 -231 346 -236 317 -236 c 0
 242 -236 209 -195 223 -131 c 0
 233 -86 270 -38 324 0 c 1
 79 0 l 1
EndSplineSet
Validated: 1048609
Substitution2: "'c2sc' Capitals to Small Capitals lookup 34 subtable" iogonek.sc
Substitution2: "'locl' Localized Forms in Latin lookup 10 subtable" Iogonek.loclNAV
Ligature2: "'ccmp' Glyph Composition/Decomposition lookup 6 subtable" I uni0328
AlternateSubs2: "'aalt' Access All Alternates lookup 1 subtable" Iogonek.loclNAV iogonek.sc
EndChar

StartChar: iogonek
Encoding: 303 303 241
Width: 563
GlyphClass: 2
Flags: HW
AnchorPoint: "Anchor-3" 353 291 basechar 0
AnchorPoint: "Anchor-2" 644 774 basechar 0
AnchorPoint: "Anchor-1" 463 774 basechar 0
AnchorPoint: "Anchor-0" 248 -236 basechar 0
LayerCount: 2
Fore
SplineSet
423 611 m 0
 370 611 345 639 356 693 c 0
 367 746 403 774 460 774 c 0
 516 774 537 746 526 693 c 0
 515 641 482 611 423 611 c 0
58 0 m 1
 78 92 l 1
 249 115 l 1
 317 431 l 1
 177 446 l 1
 198 546 l 1
 480 546 l 1
 388 115 l 1
 532 92 l 1
 512 0 l 1
 454 0 l 1
 401 -44 378 -75 372 -105 c 0
 366 -134 377 -150 403 -150 c 0
 420 -150 436 -145 447 -141 c 1
 429 -224 l 1
 412 -231 389 -236 360 -236 c 0
 284 -236 252 -195 266 -131 c 0
 276 -86 312 -38 367 0 c 1
 58 0 l 1
EndSplineSet
Validated: 33
Substitution2: "'smcp' Lowercase to Small Capitals lookup 35 subtable" iogonek.sc
Substitution2: "'locl' Localized Forms in Latin lookup 10 subtable" iogonek.loclNAV
Ligature2: "'ccmp' Glyph Composition/Decomposition lookup 6 subtable" i uni0328
Substitution2: "Single Substitution lookup 5 subtable" iogonekdotless
Substitution2: "Single Substitution lookup 4 subtable" iogonekdotless
AlternateSubs2: "'aalt' Access All Alternates lookup 1 subtable" iogonekdotless iogonek.loclNAV iogonek.sc
EndChar

StartChar: Idotaccent
Encoding: 304 304 242
Width: 563
GlyphClass: 2
Flags: HW
AnchorPoint: "Anchor-2" 695 714 basechar 0
AnchorPoint: "Anchor-1" 476 914 basechar 0
AnchorPoint: "Anchor-0" 282 0 basechar 0
LayerCount: 2
Fore
SplineSet
445 775 m 0
 392 775 367 803 378 857 c 0
 389 910 424 938 481 938 c 0
 537 938 559 910 548 857 c 0
 537 805 504 775 445 775 c 0
79 0 m 1
 100 100 l 1
 238 115 l 1
 342 600 l 1
 210 614 l 1
 231 714 l 1
 636 714 l 1
 615 614 l 1
 475 600 l 1
 371 115 l 1
 505 100 l 1
 484 0 l 1
 79 0 l 1
EndSplineSet
Validated: 1048609
Substitution2: "'c2sc' Capitals to Small Capitals lookup 34 subtable" i.loclTRK.sc
Substitution2: "'aalt' Access All Alternates lookup 0 subtable" i.loclTRK.sc
EndChar

StartChar: IJ
Encoding: 306 306 243
Width: 563
GlyphClass: 2
Flags: HW
AnchorPoint: "Anchor-1" 434 714 basechar 0
AnchorPoint: "Anchor-0" 282 0 basechar 0
LayerCount: 2
Fore
SplineSet
233 -10 m 0
 185 -10 130 -4 80 11 c 1
 106 134 l 1
 164 119 207 113 245 113 c 0
 341 113 382 154 402 249 c 2
 501 714 l 1
 638 714 l 1
 537 240 l 2
 503 78 408 -10 233 -10 c 0
123 212 m 1
 230 714 l 1
 363 714 l 1
 256 212 l 1
 123 212 l 1
EndSplineSet
Validated: 1048577
Substitution2: "'c2sc' Capitals to Small Capitals lookup 34 subtable" ij.sc
Substitution2: "'aalt' Access All Alternates lookup 0 subtable" ij.sc
EndChar

StartChar: ij
Encoding: 307 307 244
Width: 563
GlyphClass: 2
Flags: HW
AnchorPoint: "Anchor-1" 449 774 basechar 0
AnchorPoint: "Anchor-0" 239 -245 basechar 0
LayerCount: 2
Fore
SplineSet
285 611 m 0
 232 611 207 639 218 693 c 0
 229 746 265 774 322 774 c 0
 378 774 399 746 388 693 c 0
 377 641 344 611 285 611 c 0
536 611 m 0
 483 611 458 639 469 693 c 0
 480 746 516 774 573 774 c 0
 629 774 650 746 639 693 c 0
 628 641 595 611 536 611 c 0
206 -245 m 0
 161 -245 110 -238 65 -223 c 1
 90 -104 l 1
 131 -117 178 -123 209 -123 c 0
 282 -123 321 -91 339 -4 c 2
 456 546 l 1
 595 546 l 1
 473 -28 l 2
 441 -177 358 -245 206 -245 c 0
85 0 m 1
 201 546 l 1
 340 546 l 1
 224 0 l 1
 85 0 l 1
EndSplineSet
Validated: 1048609
Substitution2: "'smcp' Lowercase to Small Capitals lookup 35 subtable" ij.sc
Substitution2: "'aalt' Access All Alternates lookup 0 subtable" ij.sc
EndChar

StartChar: Jcircumflex
Encoding: 308 308 245
Width: 563
GlyphClass: 2
Flags: HW
AnchorPoint: "Anchor-2" 695 714 basechar 0
AnchorPoint: "Anchor-1" 590 934 basechar 0
AnchorPoint: "Anchor-0" 302 0 basechar 0
LayerCount: 2
Fore
SplineSet
387 787 m 1
 428 826 493 894 523 934 c 1
 657 934 l 1
 672 890 703 832 729 787 c 1
 727 774 l 1
 644 774 l 1
 621 795 596 823 573 858 c 1
 535 823 497 793 468 774 c 1
 385 774 l 1
 387 787 l 1
214 -10 m 0
 169 -10 117 -4 72 11 c 1
 98 133 l 1
 150 117 196 112 229 112 c 0
 316 112 357 153 377 248 c 2
 476 714 l 1
 613 714 l 1
 512 240 l 2
 478 78 386 -10 214 -10 c 0
EndSplineSet
Validated: 1048577
Substitution2: "'c2sc' Capitals to Small Capitals lookup 34 subtable" jcircumflex.sc
Substitution2: "'aalt' Access All Alternates lookup 0 subtable" jcircumflex.sc
EndChar

StartChar: jcircumflex
Encoding: 309 309 246
Width: 563
GlyphClass: 2
Flags: HW
AnchorPoint: "Anchor-1" 484 766 basechar 0
AnchorPoint: "Anchor-0" 230 -245 basechar 0
LayerCount: 2
Fore
SplineSet
285 619 m 1
 326 658 390 726 420 766 c 1
 555 766 l 1
 570 722 601 664 627 619 c 1
 624 606 l 1
 542 606 l 1
 518 627 494 655 471 690 c 1
 433 655 395 625 365 606 c 1
 282 606 l 1
 285 619 l 1
132 -245 m 0
 87 -245 37 -238 -9 -223 c 1
 16 -104 l 1
 57 -117 104 -123 135 -123 c 0
 208 -123 247 -91 265 -4 c 2
 358 431 l 1
 208 446 l 1
 229 546 l 1
 521 546 l 1
 399 -28 l 2
 367 -177 284 -245 132 -245 c 0
EndSplineSet
Validated: 1048577
Substitution2: "'smcp' Lowercase to Small Capitals lookup 35 subtable" jcircumflex.sc
Substitution2: "'aalt' Access All Alternates lookup 0 subtable" jcircumflex.sc
EndChar

StartChar: uni0136
Encoding: 310 310 247
Width: 563
GlyphClass: 2
Flags: HW
AnchorPoint: "Anchor-2" 695 714 basechar 0
AnchorPoint: "Anchor-1" 434 714 basechar 0
AnchorPoint: "Anchor-0" 235 -221 basechar 0
LayerCount: 2
Fore
SplineSet
41 0 m 1
 193 714 l 1
 330 714 l 1
 257 374 l 1
 283 412 306 441 337 477 c 2
 537 714 l 1
 691 714 l 1
 416 394 l 1
 536 0 l 1
 380 0 l 1
 295 291 l 1
 229 238 l 1
 178 0 l 1
 41 0 l 1
151 -208 m 1
 170 -171 198 -103 211 -61 c 1
 339 -61 l 1
 337 -70 l 1
 310 -116 271 -172 230 -221 c 1
 148 -221 l 1
 151 -208 l 1
EndSplineSet
Validated: 1048577
Substitution2: "'c2sc' Capitals to Small Capitals lookup 34 subtable" uni0137.sc
Substitution2: "'aalt' Access All Alternates lookup 0 subtable" uni0137.sc
EndChar

StartChar: uni0137
Encoding: 311 311 248
Width: 563
GlyphClass: 2
Flags: HW
AnchorPoint: "Anchor-2" 630 860 basechar 0
AnchorPoint: "Anchor-1" 444 760 basechar 0
AnchorPoint: "Anchor-0" 235 -221 basechar 0
LayerCount: 2
Fore
SplineSet
55 0 m 1
 217 760 l 1
 356 760 l 1
 282 415 l 2
 273 373 263 339 249 297 c 1
 252 297 l 1
 276 324 303 352 332 382 c 2
 494 546 l 1
 655 546 l 1
 427 322 l 1
 550 0 l 1
 397 0 l 1
 314 228 l 1
 229 165 l 1
 194 0 l 1
 55 0 l 1
163 -208 m 1
 181 -171 209 -103 222 -61 c 1
 350 -61 l 1
 348 -70 l 1
 321 -116 282 -172 241 -221 c 1
 160 -221 l 1
 163 -208 l 1
EndSplineSet
Validated: 1048577
Substitution2: "'smcp' Lowercase to Small Capitals lookup 35 subtable" uni0137.sc
Substitution2: "'aalt' Access All Alternates lookup 0 subtable" uni0137.sc
EndChar

StartChar: kgreenlandic
Encoding: 312 312 249
Width: 563
GlyphClass: 2
Flags: HW
AnchorPoint: "Anchor-1" 398 546 basechar 0
AnchorPoint: "Anchor-0" 282 0 basechar 0
LayerCount: 2
Fore
SplineSet
55 0 m 1
 171 546 l 1
 310 546 l 1
 282 415 l 2
 273 373 263 339 249 297 c 1
 252 297 l 1
 276 324 303 352 332 382 c 2
 494 546 l 1
 655 546 l 1
 427 322 l 1
 550 0 l 1
 397 0 l 1
 314 228 l 1
 229 165 l 1
 194 0 l 1
 55 0 l 1
EndSplineSet
Validated: 1048577
EndChar

StartChar: Lacute
Encoding: 313 313 250
Width: 563
GlyphClass: 2
Flags: HW
AnchorPoint: "Anchor-3" 358 357 basechar 0
AnchorPoint: "Anchor-2" 575 714 basechar 0
AnchorPoint: "Anchor-1" 373 934 basechar 0
AnchorPoint: "Anchor-0" 282 0 basechar 0
LayerCount: 2
Fore
SplineSet
249 787 m 1
 294 835 341 889 375 934 c 1
 526 934 l 1
 524 925 l 1
 486 887 396 814 340 774 c 1
 247 774 l 1
 249 787 l 1
81 0 m 1
 233 714 l 1
 372 714 l 1
 246 124 l 1
 527 124 l 1
 501 0 l 1
 81 0 l 1
EndSplineSet
Validated: 1
Substitution2: "'c2sc' Capitals to Small Capitals lookup 34 subtable" lacute.sc
Substitution2: "'aalt' Access All Alternates lookup 0 subtable" lacute.sc
EndChar

StartChar: lacute
Encoding: 314 314 251
Width: 563
GlyphClass: 2
Flags: HW
AnchorPoint: "Anchor-3" 373 374 basechar 0
AnchorPoint: "Anchor-2" 634 760 basechar 0
AnchorPoint: "Anchor-1" 490 980 basechar 0
AnchorPoint: "Anchor-0" 282 0 basechar 0
LayerCount: 2
Fore
SplineSet
392 833 m 1
 437 881 483 935 516 980 c 1
 668 980 l 1
 666 971 l 1
 627 933 538 860 482 820 c 1
 389 820 l 1
 392 833 l 1
58 0 m 1
 78 92 l 1
 246 115 l 1
 359 645 l 1
 232 668 l 1
 252 760 l 1
 523 760 l 1
 385 115 l 1
 532 92 l 1
 512 0 l 1
 58 0 l 1
EndSplineSet
Validated: 1
Substitution2: "'smcp' Lowercase to Small Capitals lookup 35 subtable" lacute.sc
Substitution2: "'aalt' Access All Alternates lookup 0 subtable" lacute.sc
EndChar

StartChar: uni013B
Encoding: 315 315 252
Width: 563
GlyphClass: 2
Flags: HW
AnchorPoint: "Anchor-3" 358 357 basechar 0
AnchorPoint: "Anchor-2" 575 714 basechar 0
AnchorPoint: "Anchor-1" 300 714 basechar 0
AnchorPoint: "Anchor-0" 235 -221 basechar 0
LayerCount: 2
Fore
SplineSet
81 0 m 1
 233 714 l 1
 372 714 l 1
 246 124 l 1
 527 124 l 1
 501 0 l 1
 81 0 l 1
171 -208 m 1
 189 -171 217 -103 230 -61 c 1
 358 -61 l 1
 356 -70 l 1
 329 -116 290 -172 249 -221 c 1
 168 -221 l 1
 171 -208 l 1
EndSplineSet
Validated: 1
Substitution2: "'c2sc' Capitals to Small Capitals lookup 34 subtable" uni013C.sc
Substitution2: "'locl' Localized Forms in Latin lookup 13 subtable" uni013B.loclMAH
AlternateSubs2: "'aalt' Access All Alternates lookup 1 subtable" uni013B.loclMAH uni013C.sc
EndChar

StartChar: uni013C
Encoding: 316 316 253
Width: 563
GlyphClass: 2
Flags: HW
AnchorPoint: "Anchor-3" 373 374 basechar 0
AnchorPoint: "Anchor-2" 634 760 basechar 0
AnchorPoint: "Anchor-1" 444 760 basechar 0
AnchorPoint: "Anchor-0" 235 -221 basechar 0
LayerCount: 2
Fore
SplineSet
58 0 m 1
 78 92 l 1
 246 115 l 1
 359 645 l 1
 232 668 l 1
 252 760 l 1
 523 760 l 1
 385 115 l 1
 532 92 l 1
 512 0 l 1
 58 0 l 1
157 -208 m 1
 175 -171 203 -103 216 -61 c 1
 344 -61 l 1
 342 -70 l 1
 315 -116 276 -172 235 -221 c 1
 154 -221 l 1
 157 -208 l 1
EndSplineSet
Validated: 1
Substitution2: "'smcp' Lowercase to Small Capitals lookup 35 subtable" uni013C.sc
Substitution2: "'locl' Localized Forms in Latin lookup 13 subtable" uni013C.loclMAH
AlternateSubs2: "'aalt' Access All Alternates lookup 1 subtable" uni013C.loclMAH uni013C.sc
EndChar

StartChar: Lcaron
Encoding: 317 317 254
Width: 563
GlyphClass: 2
Flags: HW
AnchorPoint: "Anchor-3" 358 357 basechar 0
AnchorPoint: "Anchor-2" 575 714 basechar 0
AnchorPoint: "Anchor-1" 299 714 basechar 0
AnchorPoint: "Anchor-0" 282 0 basechar 0
LayerCount: 2
Fore
SplineSet
468 565 m 1
 484 600 514 674 526 714 c 1
 655 714 l 1
 653 705 l 1
 626 660 588 602 547 554 c 1
 466 554 l 1
 468 565 l 1
81 0 m 1
 233 714 l 1
 372 714 l 1
 246 124 l 1
 527 124 l 1
 501 0 l 1
 81 0 l 1
EndSplineSet
Validated: 1
Substitution2: "'c2sc' Capitals to Small Capitals lookup 34 subtable" lcaron.sc
Substitution2: "'aalt' Access All Alternates lookup 0 subtable" lcaron.sc
EndChar

StartChar: lcaron
Encoding: 318 318 255
Width: 563
GlyphClass: 2
Flags: HW
AnchorPoint: "Anchor-3" 373 374 basechar 0
AnchorPoint: "Anchor-2" 634 760 basechar 0
AnchorPoint: "Anchor-1" 444 760 basechar 0
AnchorPoint: "Anchor-0" 282 0 basechar 0
LayerCount: 2
Fore
SplineSet
529 611 m 1
 546 646 575 720 588 760 c 1
 716 760 l 1
 714 751 l 1
 688 706 649 648 609 600 c 1
 527 600 l 1
 529 611 l 1
58 0 m 1
 78 92 l 1
 246 115 l 1
 359 645 l 1
 232 668 l 1
 252 760 l 1
 523 760 l 1
 385 115 l 1
 532 92 l 1
 512 0 l 1
 58 0 l 1
EndSplineSet
Validated: 1
Substitution2: "'smcp' Lowercase to Small Capitals lookup 35 subtable" lcaron.sc
Substitution2: "'aalt' Access All Alternates lookup 0 subtable" lcaron.sc
EndChar

StartChar: Ldot
Encoding: 319 319 256
Width: 563
GlyphClass: 2
Flags: HW
AnchorPoint: "Anchor-3" 358 357 basechar 0
AnchorPoint: "Anchor-2" 575 714 basechar 0
AnchorPoint: "Anchor-1" 298 714 basechar 0
AnchorPoint: "Anchor-0" 282 0 basechar 0
LayerCount: 2
Fore
SplineSet
81 0 m 1
 233 714 l 1
 372 714 l 1
 246 124 l 1
 527 124 l 1
 501 0 l 1
 81 0 l 1
489 303 m 0
 436 303 412 334 423 388 c 0
 435 443 471 473 526 473 c 0
 579 473 603 443 591 388 c 0
 580 335 541 303 489 303 c 0
EndSplineSet
Validated: 33
Substitution2: "'c2sc' Capitals to Small Capitals lookup 34 subtable" ldot.sc
Ligature2: "Ligature Substitution lookup 16 subtable" L periodcentered
Substitution2: "'aalt' Access All Alternates lookup 0 subtable" ldot.sc
EndChar

StartChar: ldot
Encoding: 320 320 257
Width: 563
GlyphClass: 2
Flags: HW
AnchorPoint: "Anchor-3" 373 374 basechar 0
AnchorPoint: "Anchor-2" 634 760 basechar 0
AnchorPoint: "Anchor-1" 444 760 basechar 0
AnchorPoint: "Anchor-0" 282 0 basechar 0
LayerCount: 2
Fore
SplineSet
58 0 m 1
 78 92 l 1
 246 115 l 1
 359 645 l 1
 232 668 l 1
 252 760 l 1
 523 760 l 1
 385 115 l 1
 532 92 l 1
 512 0 l 1
 58 0 l 1
628 298 m 0
 575 298 550 329 561 383 c 0
 573 438 609 467 664 467 c 0
 717 467 742 438 730 383 c 0
 719 330 680 298 628 298 c 0
EndSplineSet
Validated: 33
Substitution2: "'smcp' Lowercase to Small Capitals lookup 35 subtable" ldot.sc
Ligature2: "Ligature Substitution lookup 15 subtable" l periodcentered
Substitution2: "'aalt' Access All Alternates lookup 0 subtable" ldot.sc
EndChar

StartChar: Lslash
Encoding: 321 321 258
Width: 563
GlyphClass: 2
Flags: HW
AnchorPoint: "Anchor-3" 394 357 basechar 0
AnchorPoint: "Anchor-2" 611 714 basechar 0
AnchorPoint: "Anchor-1" 342 714 basechar 0
AnchorPoint: "Anchor-0" 335 0 basechar 0
LayerCount: 2
Fore
SplineSet
117 0 m 1
 168 242 l 1
 124 216 l 1
 88 304 l 1
 195 366 l 1
 269 714 l 1
 408 714 l 1
 353 456 l 1
 442 507 l 1
 479 420 l 1
 327 332 l 1
 282 124 l 1
 563 124 l 1
 537 0 l 1
 117 0 l 1
EndSplineSet
Validated: 1
Substitution2: "'c2sc' Capitals to Small Capitals lookup 34 subtable" lslash.sc
Substitution2: "'aalt' Access All Alternates lookup 0 subtable" lslash.sc
EndChar

StartChar: lslash
Encoding: 322 322 259
Width: 563
GlyphClass: 2
Flags: HW
AnchorPoint: "Anchor-3" 373 374 basechar 0
AnchorPoint: "Anchor-2" 634 760 basechar 0
AnchorPoint: "Anchor-1" 444 760 basechar 0
AnchorPoint: "Anchor-0" 282 0 basechar 0
LayerCount: 2
Fore
SplineSet
58 0 m 1
 78 92 l 1
 246 115 l 1
 277 257 l 1
 205 215 l 1
 168 301 l 1
 303 380 l 1
 359 645 l 1
 232 668 l 1
 252 760 l 1
 523 760 l 1
 461 472 l 1
 523 508 l 1
 562 422 l 1
 435 349 l 1
 385 115 l 1
 532 92 l 1
 512 0 l 1
 58 0 l 1
EndSplineSet
Validated: 1
Substitution2: "'smcp' Lowercase to Small Capitals lookup 35 subtable" lslash.sc
Substitution2: "'aalt' Access All Alternates lookup 0 subtable" lslash.sc
EndChar

StartChar: Nacute
Encoding: 323 323 260
Width: 563
GlyphClass: 2
Flags: HW
AnchorPoint: "Anchor-2" 715 714 basechar 0
AnchorPoint: "Anchor-1" 481 934 basechar 0
AnchorPoint: "Anchor-0" 282 0 basechar 0
LayerCount: 2
Fore
SplineSet
387 787 m 1
 432 835 479 889 512 934 c 1
 664 934 l 1
 662 925 l 1
 623 887 534 814 478 774 c 1
 385 774 l 1
 387 787 l 1
41 0 m 1
 193 714 l 1
 390 714 l 1
 430 137 l 1
 435 137 l 1
 447 221 464 332 475 382 c 2
 546 714 l 1
 674 714 l 1
 522 0 l 1
 327 0 l 1
 286 581 l 1
 281 581 l 1
 269 494 253 399 244 355 c 2
 169 0 l 1
 41 0 l 1
EndSplineSet
Validated: 1048577
Substitution2: "'c2sc' Capitals to Small Capitals lookup 34 subtable" nacute.sc
Substitution2: "'aalt' Access All Alternates lookup 0 subtable" nacute.sc
EndChar

StartChar: nacute
Encoding: 324 324 261
Width: 563
GlyphClass: 2
Flags: HW
AnchorPoint: "Anchor-2" 659 546 basechar 0
AnchorPoint: "Anchor-1" 445 766 basechar 0
AnchorPoint: "Anchor-0" 282 0 basechar 0
LayerCount: 2
Fore
SplineSet
353 619 m 1
 398 667 444 721 478 766 c 1
 629 766 l 1
 627 757 l 1
 589 719 499 646 443 606 c 1
 350 606 l 1
 353 619 l 1
51 0 m 1
 167 546 l 1
 275 546 l 1
 283 479 l 1
 290 479 l 1
 331 529 387 556 460 556 c 0
 575 556 621 490 594 362 c 2
 517 0 l 1
 378 0 l 1
 447 325 l 2
 464 403 443 439 386 439 c 0
 312 439 270 378 247 268 c 2
 190 0 l 1
 51 0 l 1
EndSplineSet
Validated: 1048609
Substitution2: "'smcp' Lowercase to Small Capitals lookup 35 subtable" nacute.sc
Substitution2: "'aalt' Access All Alternates lookup 0 subtable" nacute.sc
EndChar

StartChar: uni0145
Encoding: 325 325 262
Width: 563
GlyphClass: 2
Flags: HW
AnchorPoint: "Anchor-2" 715 714 basechar 0
AnchorPoint: "Anchor-1" 466 714 basechar 0
AnchorPoint: "Anchor-0" 214 -221 basechar 0
LayerCount: 2
Fore
SplineSet
41 0 m 1
 193 714 l 1
 390 714 l 1
 430 137 l 1
 435 137 l 1
 447 221 464 332 475 382 c 2
 546 714 l 1
 674 714 l 1
 522 0 l 1
 327 0 l 1
 286 581 l 1
 281 581 l 1
 269 494 253 399 244 355 c 2
 169 0 l 1
 41 0 l 1
144 -208 m 1
 163 -171 191 -103 204 -61 c 1
 332 -61 l 1
 330 -70 l 1
 303 -116 264 -172 222 -221 c 1
 141 -221 l 1
 144 -208 l 1
EndSplineSet
Validated: 1048577
Substitution2: "'c2sc' Capitals to Small Capitals lookup 34 subtable" uni0146.sc
Substitution2: "'locl' Localized Forms in Latin lookup 13 subtable" uni0145.loclMAH
AlternateSubs2: "'aalt' Access All Alternates lookup 1 subtable" uni0145.loclMAH uni0146.sc
EndChar

StartChar: uni0146
Encoding: 326 326 263
Width: 563
GlyphClass: 2
Flags: HW
AnchorPoint: "Anchor-2" 659 546 basechar 0
AnchorPoint: "Anchor-1" 398 546 basechar 0
AnchorPoint: "Anchor-0" 235 -221 basechar 0
LayerCount: 2
Fore
SplineSet
51 0 m 1
 167 546 l 1
 275 546 l 1
 283 479 l 1
 290 479 l 1
 331 529 387 556 460 556 c 0
 575 556 621 490 594 362 c 2
 517 0 l 1
 378 0 l 1
 447 325 l 2
 464 403 443 439 386 439 c 0
 312 439 270 378 247 268 c 2
 190 0 l 1
 51 0 l 1
149 -208 m 1
 167 -171 195 -103 208 -61 c 1
 336 -61 l 1
 334 -70 l 1
 307 -116 268 -172 227 -221 c 1
 146 -221 l 1
 149 -208 l 1
EndSplineSet
Validated: 1048609
Substitution2: "'smcp' Lowercase to Small Capitals lookup 35 subtable" uni0146.sc
Substitution2: "'locl' Localized Forms in Latin lookup 13 subtable" uni0146.loclMAH
AlternateSubs2: "'aalt' Access All Alternates lookup 1 subtable" uni0146.loclMAH uni0146.sc
EndChar

StartChar: Ncaron
Encoding: 327 327 264
Width: 563
GlyphClass: 2
Flags: HW
AnchorPoint: "Anchor-2" 715 714 basechar 0
AnchorPoint: "Anchor-1" 481 934 basechar 0
AnchorPoint: "Anchor-0" 282 0 basechar 0
LayerCount: 2
Fore
SplineSet
385 774 m 1
 371 815 335 883 311 921 c 1
 314 934 l 1
 398 934 l 1
 420 913 444 885 467 851 c 1
 506 887 540 911 573 934 c 1
 657 934 l 1
 654 921 l 1
 615 884 551 818 518 774 c 1
 385 774 l 1
41 0 m 1
 193 714 l 1
 390 714 l 1
 430 137 l 1
 435 137 l 1
 447 221 464 332 475 382 c 2
 546 714 l 1
 674 714 l 1
 522 0 l 1
 327 0 l 1
 286 581 l 1
 281 581 l 1
 269 494 253 399 244 355 c 2
 169 0 l 1
 41 0 l 1
EndSplineSet
Validated: 1048577
Substitution2: "'c2sc' Capitals to Small Capitals lookup 34 subtable" ncaron.sc
Substitution2: "'aalt' Access All Alternates lookup 0 subtable" ncaron.sc
EndChar

StartChar: ncaron
Encoding: 328 328 265
Width: 563
GlyphClass: 2
Flags: HW
AnchorPoint: "Anchor-2" 659 546 basechar 0
AnchorPoint: "Anchor-1" 445 766 basechar 0
AnchorPoint: "Anchor-0" 282 0 basechar 0
LayerCount: 2
Fore
SplineSet
350 606 m 1
 337 647 300 715 277 753 c 1
 280 766 l 1
 363 766 l 1
 385 745 409 717 432 683 c 1
 472 719 505 743 539 766 c 1
 622 766 l 1
 619 753 l 1
 580 716 516 650 484 606 c 1
 350 606 l 1
51 0 m 1
 167 546 l 1
 275 546 l 1
 283 479 l 1
 290 479 l 1
 331 529 387 556 460 556 c 0
 575 556 621 490 594 362 c 2
 517 0 l 1
 378 0 l 1
 447 325 l 2
 464 403 443 439 386 439 c 0
 312 439 270 378 247 268 c 2
 190 0 l 1
 51 0 l 1
EndSplineSet
Validated: 1048609
Substitution2: "'smcp' Lowercase to Small Capitals lookup 35 subtable" ncaron.sc
Substitution2: "'aalt' Access All Alternates lookup 0 subtable" ncaron.sc
EndChar

StartChar: napostrophe
Encoding: 329 329 266
Width: 563
GlyphClass: 2
Flags: HW
AnchorPoint: "Anchor-1" 411 546 basechar 0
AnchorPoint: "Anchor-0" 292 0 basechar 0
LayerCount: 2
Fore
SplineSet
-15 461 m 1
 25 550 63 647 85 714 c 1
 216 714 l 1
 220 703 l 1
 188 627 144 547 89 461 c 1
 -15 461 l 1
61 0 m 1
 177 546 l 1
 285 546 l 1
 292 475 l 1
 300 475 l 1
 343 531 399 556 465 556 c 0
 576 556 621 486 593 356 c 2
 517 0 l 1
 378 0 l 1
 446 320 l 2
 463 399 444 437 392 437 c 0
 321 437 279 369 255 258 c 2
 200 0 l 1
 61 0 l 1
EndSplineSet
Validated: 1048609
EndChar

StartChar: Eng
Encoding: 330 330 267
Width: 563
GlyphClass: 2
Flags: HW
AnchorPoint: "Anchor-2" 715 714 basechar 0
AnchorPoint: "Anchor-1" 439 714 basechar 0
AnchorPoint: "Anchor-0" 243 -208 basechar 0
LayerCount: 2
Fore
SplineSet
41 0 m 1
 193 714 l 1
 390 714 l 1
 430 137 l 1
 435 137 l 1
 447 221 464 332 475 382 c 2
 546 714 l 1
 674 714 l 1
 522 -2 l 2
 494 -136 403 -208 274 -208 c 0
 240 -208 212 -204 191 -197 c 1
 213 -93 l 1
 233 -98 255 -103 282 -103 c 0
 347 -103 389 -70 404 0 c 1
 327 0 l 1
 286 581 l 1
 281 581 l 1
 269 494 253 399 244 355 c 2
 169 0 l 1
 41 0 l 1
EndSplineSet
Validated: 1048577
Substitution2: "'c2sc' Capitals to Small Capitals lookup 34 subtable" eng.sc
AlternateSubs2: "'aalt' Access All Alternates lookup 1 subtable" Eng.alt1 Eng.alt2 Eng.alt3 eng.sc
EndChar

StartChar: eng
Encoding: 331 331 268
Width: 563
GlyphClass: 2
Flags: HW
AnchorPoint: "Anchor-2" 659 546 basechar 0
AnchorPoint: "Anchor-1" 404 546 basechar 0
AnchorPoint: "Anchor-0" 234 -240 basechar 0
LayerCount: 2
Fore
SplineSet
51 0 m 1
 167 546 l 1
 275 546 l 1
 283 479 l 1
 290 479 l 1
 331 529 387 556 460 556 c 0
 575 556 621 490 594 362 c 2
 504 -62 l 2
 483 -162 416 -240 297 -240 c 0
 269 -240 237 -236 217 -228 c 1
 240 -119 l 1
 258 -125 275 -128 290 -128 c 0
 327 -128 355 -109 368 -47 c 2
 447 325 l 2
 464 403 443 439 386 439 c 0
 312 439 270 378 247 268 c 2
 190 0 l 1
 51 0 l 1
EndSplineSet
Validated: 1048609
Substitution2: "'smcp' Lowercase to Small Capitals lookup 35 subtable" eng.sc
Substitution2: "'aalt' Access All Alternates lookup 0 subtable" eng.sc
EndChar

StartChar: Omacron
Encoding: 332 332 269
Width: 563
GlyphClass: 2
Flags: HW
AnchorPoint: "Anchor-3" 358 357 basechar 0
AnchorPoint: "Anchor-2" 715 714 basechar 0
AnchorPoint: "Anchor-1" 470 883 basechar 0
AnchorPoint: "Anchor-0" 282 0 basechar 0
LayerCount: 2
Fore
SplineSet
303 787 m 1
 324 883 l 1
 615 883 l 1
 594 787 l 1
 303 787 l 1
280 -9 m 0
 104 -9 54 131 102 358 c 0
 152 593 263 726 436 726 c 0
 611 726 662 587 613 358 c 0
 565 130 455 -9 280 -9 c 0
306 113 m 0
 385 113 436 196 471 359 c 0
 505 521 490 604 410 604 c 0
 330 604 278 518 244 358 c 0
 210 198 225 113 306 113 c 0
EndSplineSet
Validated: 33
Substitution2: "'c2sc' Capitals to Small Capitals lookup 34 subtable" omacron.sc
Substitution2: "'aalt' Access All Alternates lookup 0 subtable" omacron.sc
EndChar

StartChar: omacron
Encoding: 333 333 270
Width: 563
GlyphClass: 2
Flags: HW
AnchorPoint: "Anchor-3" 340 273 basechar 0
AnchorPoint: "Anchor-2" 659 546 basechar 0
AnchorPoint: "Anchor-1" 434 715 basechar 0
AnchorPoint: "Anchor-0" 282 0 basechar 0
LayerCount: 2
Fore
SplineSet
268 619 m 1
 288 715 l 1
 579 715 l 1
 559 619 l 1
 268 619 l 1
282 -10 m 0
 120 -10 59 108 94 273 c 0
 129 439 242 556 401 556 c 0
 551 556 624 453 585 271 c 0
 550 107 445 -10 282 -10 c 0
307 107 m 0
 378 107 421 165 444 272 c 0
 467 379 449 439 377 439 c 0
 303 439 258 376 236 273 c 0
 214 168 234 107 307 107 c 0
EndSplineSet
Validated: 33
Substitution2: "'smcp' Lowercase to Small Capitals lookup 35 subtable" omacron.sc
Substitution2: "'aalt' Access All Alternates lookup 0 subtable" omacron.sc
EndChar

StartChar: Obreve
Encoding: 334 334 271
Width: 563
GlyphClass: 2
Flags: HW
AnchorPoint: "Anchor-3" 358 357 basechar 0
AnchorPoint: "Anchor-2" 715 714 basechar 0
AnchorPoint: "Anchor-1" 481 935 basechar 0
AnchorPoint: "Anchor-0" 282 0 basechar 0
LayerCount: 2
Fore
SplineSet
445 776 m 0
 353 776 302 833 321 935 c 1
 402 935 l 1
 395 885 422 866 465 866 c 0
 507 866 543 884 559 935 c 1
 640 935 l 1
 617 838 539 776 445 776 c 0
280 -9 m 0
 104 -9 54 131 102 358 c 0
 152 593 263 726 436 726 c 0
 611 726 662 587 613 358 c 0
 565 130 455 -9 280 -9 c 0
306 113 m 0
 385 113 436 196 471 359 c 0
 505 521 490 604 410 604 c 0
 330 604 278 518 244 358 c 0
 210 198 225 113 306 113 c 0
EndSplineSet
Validated: 33
Substitution2: "'c2sc' Capitals to Small Capitals lookup 34 subtable" obreve.sc
Substitution2: "'aalt' Access All Alternates lookup 0 subtable" obreve.sc
EndChar

StartChar: obreve
Encoding: 335 335 272
Width: 563
GlyphClass: 2
Flags: HW
AnchorPoint: "Anchor-3" 340 273 basechar 0
AnchorPoint: "Anchor-2" 659 546 basechar 0
AnchorPoint: "Anchor-1" 445 767 basechar 0
AnchorPoint: "Anchor-0" 282 0 basechar 0
LayerCount: 2
Fore
SplineSet
409 608 m 0
 317 608 266 665 285 767 c 1
 366 767 l 1
 359 717 386 698 429 698 c 0
 471 698 507 716 523 767 c 1
 604 767 l 1
 581 670 503 608 409 608 c 0
282 -10 m 0
 120 -10 59 108 94 273 c 0
 129 439 242 556 401 556 c 0
 551 556 624 453 585 271 c 0
 550 107 445 -10 282 -10 c 0
307 107 m 0
 378 107 421 165 444 272 c 0
 467 379 449 439 377 439 c 0
 303 439 258 376 236 273 c 0
 214 168 234 107 307 107 c 0
EndSplineSet
Validated: 33
Substitution2: "'smcp' Lowercase to Small Capitals lookup 35 subtable" obreve.sc
Substitution2: "'aalt' Access All Alternates lookup 0 subtable" obreve.sc
EndChar

StartChar: Ohungarumlaut
Encoding: 336 336 273
Width: 563
GlyphClass: 2
Flags: HW
AnchorPoint: "Anchor-3" 358 357 basechar 0
AnchorPoint: "Anchor-2" 715 714 basechar 0
AnchorPoint: "Anchor-1" 481 934 basechar 0
AnchorPoint: "Anchor-0" 282 0 basechar 0
LayerCount: 2
Fore
SplineSet
454 787 m 1
 497 840 546 901 568 934 c 1
 695 934 l 1
 693 925 l 1
 665 886 574 811 522 774 c 1
 452 774 l 1
 454 787 l 1
282 787 m 1
 325 841 372 901 395 934 c 1
 522 934 l 1
 520 925 l 1
 491 884 407 815 346 774 c 1
 280 774 l 1
 282 787 l 1
280 -9 m 0
 104 -9 54 131 102 358 c 0
 152 593 263 726 436 726 c 0
 611 726 662 587 613 358 c 0
 565 130 455 -9 280 -9 c 0
306 113 m 0
 385 113 436 196 471 359 c 0
 505 521 490 604 410 604 c 0
 330 604 278 518 244 358 c 0
 210 198 225 113 306 113 c 0
EndSplineSet
Validated: 33
Substitution2: "'c2sc' Capitals to Small Capitals lookup 34 subtable" ohungarumlaut.sc
Substitution2: "'aalt' Access All Alternates lookup 0 subtable" ohungarumlaut.sc
EndChar

StartChar: ohungarumlaut
Encoding: 337 337 274
Width: 563
GlyphClass: 2
Flags: HW
AnchorPoint: "Anchor-3" 340 273 basechar 0
AnchorPoint: "Anchor-2" 659 546 basechar 0
AnchorPoint: "Anchor-1" 445 766 basechar 0
AnchorPoint: "Anchor-0" 282 0 basechar 0
LayerCount: 2
Fore
SplineSet
419 619 m 1
 462 672 510 733 532 766 c 1
 659 766 l 1
 657 757 l 1
 629 718 538 643 486 606 c 1
 416 606 l 1
 419 619 l 1
247 619 m 1
 290 673 336 733 359 766 c 1
 486 766 l 1
 484 757 l 1
 455 716 371 647 310 606 c 1
 244 606 l 1
 247 619 l 1
282 -10 m 0
 120 -10 59 108 94 273 c 0
 129 439 242 556 401 556 c 0
 551 556 624 453 585 271 c 0
 550 107 445 -10 282 -10 c 0
307 107 m 0
 378 107 421 165 444 272 c 0
 467 379 449 439 377 439 c 0
 303 439 258 376 236 273 c 0
 214 168 234 107 307 107 c 0
EndSplineSet
Validated: 33
Substitution2: "'smcp' Lowercase to Small Capitals lookup 35 subtable" ohungarumlaut.sc
Substitution2: "'aalt' Access All Alternates lookup 0 subtable" ohungarumlaut.sc
EndChar

StartChar: OE
Encoding: 338 338 275
Width: 563
GlyphClass: 2
Flags: HW
AnchorPoint: "Anchor-1" 434 714 basechar 0
AnchorPoint: "Anchor-0" 282 0 basechar 0
LayerCount: 2
Fore
SplineSet
231 -10 m 0
 79 -10 54 133 102 359 c 0
 150 584 237 724 390 724 c 0
 404 724 430 724 458 714 c 1
 695 714 l 1
 669 592 l 1
 542 592 l 1
 508 433 l 1
 619 433 l 1
 593 310 l 1
 482 310 l 1
 442 122 l 1
 569 122 l 1
 543 0 l 1
 305 0 l 1
 280 -7 254 -10 231 -10 c 0
273 114 m 0
 287 114 304 120 314 125 c 1
 412 590 l 1
 406 598 391 600 379 600 c 0
 318 600 270 512 237 358 c 0
 203 200 202 114 273 114 c 0
EndSplineSet
Validated: 1048609
Substitution2: "'c2sc' Capitals to Small Capitals lookup 34 subtable" oe.sc
Substitution2: "'aalt' Access All Alternates lookup 0 subtable" oe.sc
EndChar

